<?xml version="1.0" encoding="utf-8"?>
<!-- Generator: Adobe Illustrator 24.0.2, SVG Export Plug-In . SVG Version: 6.00 Build 0)  -->
<svg version="1.1" id="Layer_1" xmlns="http://www.w3.org/2000/svg" xmlns:xlink="http://www.w3.org/1999/xlink" x="0px" y="0px"
	 viewBox="0 0 500 500" style="enable-background:new 0 0 500 500;" xml:space="preserve">
<style type="text/css">
	.st0{fill:url(#SVGID_1_);}
	.st1{fill-rule:evenodd;clip-rule:evenodd;fill:url(#SVGID_2_);}
	.st2{opacity:0.71;fill-rule:evenodd;clip-rule:evenodd;fill:#2E292F;}
	.st3{fill-rule:evenodd;clip-rule:evenodd;fill:#FFFFF8;}
	.st4{opacity:0.45;fill-rule:evenodd;clip-rule:evenodd;fill:#626763;}
	.st5{opacity:0.55;fill-rule:evenodd;clip-rule:evenodd;fill:#626763;}
	.st6{opacity:0.47;fill-rule:evenodd;clip-rule:evenodd;fill:#626763;}
	.st7{opacity:0.34;fill-rule:evenodd;clip-rule:evenodd;fill:url(#SVGID_3_);}
	.st8{opacity:0.42;fill-rule:evenodd;clip-rule:evenodd;fill:url(#SVGID_4_);}
	.st9{fill-rule:evenodd;clip-rule:evenodd;fill:#201114;}
	.st10{fill-rule:evenodd;clip-rule:evenodd;fill:#212025;}
	.st11{fill-rule:evenodd;clip-rule:evenodd;fill:#FFFFFF;}
	.st12{opacity:0.67;fill-rule:evenodd;clip-rule:evenodd;fill:url(#SVGID_5_);}
	.st13{opacity:0.58;fill-rule:evenodd;clip-rule:evenodd;fill:url(#SVGID_6_);}
	.st14{opacity:0.58;fill-rule:evenodd;clip-rule:evenodd;fill:url(#SVGID_7_);}
	.st15{opacity:0.34;fill-rule:evenodd;clip-rule:evenodd;fill:url(#SVGID_8_);}
	.st16{opacity:0.66;fill-rule:evenodd;clip-rule:evenodd;fill:url(#SVGID_9_);}
	.st17{fill-rule:evenodd;clip-rule:evenodd;fill:#271D1C;}
	.st18{fill-rule:evenodd;clip-rule:evenodd;fill:#BF4032;}
	.st19{opacity:0.65;fill-rule:evenodd;clip-rule:evenodd;fill:#470D0D;}
	.st20{opacity:0.64;fill-rule:evenodd;clip-rule:evenodd;fill:url(#SVGID_10_);}
	.st21{opacity:0.66;fill-rule:evenodd;clip-rule:evenodd;fill:#FFC6C8;}
	.st22{opacity:0.73;fill-rule:evenodd;clip-rule:evenodd;fill:#FFC4C5;}
	.st23{opacity:0.74;fill-rule:evenodd;clip-rule:evenodd;fill:#FFCCCE;}
	.st24{opacity:0.63;fill-rule:evenodd;clip-rule:evenodd;fill:#9B5331;}
	.st25{fill:url(#SVGID_11_);}
	.st26{fill:url(#SVGID_12_);}
	.st27{fill:url(#SVGID_13_);}
	.st28{fill:url(#SVGID_14_);}
	.st29{fill:url(#SVGID_15_);}
	.st30{fill:url(#SVGID_16_);}
	.st31{fill:url(#SVGID_17_);}
	.st32{fill:url(#SVGID_18_);}
	.st33{fill:url(#SVGID_19_);}
	.st34{fill:url(#SVGID_20_);}
	.st35{fill:url(#SVGID_21_);}
	.st36{fill:url(#SVGID_22_);}
	.st37{fill:url(#SVGID_23_);}
	.st38{fill:url(#SVGID_24_);}
	.st39{fill:url(#SVGID_25_);}
	.st40{fill:url(#SVGID_26_);}
	.st41{fill:#80663B;}
	.st42{fill:url(#SVGID_27_);}
	.st43{fill:url(#SVGID_28_);}
	.st44{fill:url(#SVGID_29_);}
	.st45{fill:url(#SVGID_30_);}
	.st46{fill:url(#SVGID_31_);}
	.st47{fill:url(#SVGID_32_);}
	.st48{fill:#DBB460;}
</style>
<path d="M392.1,471.2H107.9c-43.5,0-79-35.6-79-79V107.9c0-43.5,35.6-79,79-79h284.3c43.5,0,79,35.6,79,79v284.3
	C471.2,435.6,435.6,471.2,392.1,471.2z"/>
<g id="Face">
	<linearGradient id="SVGID_1_" gradientUnits="userSpaceOnUse" x1="85.5296" y1="240.3582" x2="274.6614" y2="295.8398">
		<stop  offset="0" style="stop-color:#FCD2BA"/>
		<stop  offset="0.2149" style="stop-color:#CD8B5D"/>
		<stop  offset="0.5056" style="stop-color:#B4855E"/>
		<stop  offset="0.7707" style="stop-color:#845A44"/>
		<stop  offset="1" style="stop-color:#3D2822"/>
	</linearGradient>
	<path class="st0" d="M299.9,334.5c-11.2-22.2-21.4-43.4-20.7-46.9c0.7-3.5-2.4-6.8,0.4-8.4c2.9-1.5,9.5-3.7,9.9-6.2
		c0-0.1,0-0.3,0-0.4c-1.5-3-9.6-12.5-17.7-21.5c-7.6-7.9-30.5-32.1-39.7-40.7c-9.3-8.7-20.3-19.2-28.3-26.3c0,0,0,0-0.1,0
		c-1.3-0.9-2.6-1.9-4-2.8c-5.6-3.6-15.2-9.1-22.7-13.2c-3.7-1.9-7.2-3.6-10.3-5c-0.1,0-0.2-0.1-0.3-0.1c-5.8-2.4-16.8-7.5-22.7-9.3
		c-0.9-0.2-1.8-0.5-2.7-0.6c-3.7-0.6-8-0.5-11.1,0.2c-1.6,0.6-3.3,1.5-5,2.6c-2.1,1.4-4.2,3-5.4,4.4c-2.6,2.5-4.8,5.3-6,7.8
		c-3.3,6.6-8.6,18.5-7.9,23.1c0.7,4.6,2,9,4,8.6c-0.5,1-1,2.9-0.7,4.3c1.6,0.4-0.1,3.1-0.5,4.4c-0.8,3-0.8,5-0.5,7.6
		c-6.8,9.4-5.3,28.9-5,34.5c0.3,5.6,3.6,19.5,4.3,25.8c0.7,6.3,2,15.9,5.3,22.8c3.3,6.9,8.6,20.5,9.6,25.8c1,5.3,2.3,12.2,5.6,15.9
		c3.3,3.6,7.9,6.3,10.9,7.9c3,1.7,8.6,5.6,21.5,4.6c8.1-0.6,16.4-2.2,22.6-3.5c0.8,1.2,5.5,8.3,7.4,11.9c2,4,5.3,14.8,5.3,14.8
		s5.7-2.2,7.9-4.6c2.2-2.4,12.1-9.7,18.9-12.8c6.8-3.1,32.1-9.5,38.8-11.7c6.6-2.2,18.7-7.3,27.3-9.7S299.7,334.5,299.9,334.5z"/>
	<linearGradient id="SVGID_2_" gradientUnits="userSpaceOnUse" x1="192.8097" y1="247.378" x2="285.9" y2="343.5342">
		<stop  offset="0" style="stop-color:#312624"/>
		<stop  offset="1" style="stop-color:#181216"/>
	</linearGradient>
	<path class="st1" d="M184.7,172.1c19.5,9.5,27.1,17.3,42.7,32.6c10.2,10,30.2,30.3,37.8,38.2s20.9,24.9,23.4,27.6s-1,5.6-4,6.3
		c-3,0.7-3.3,1.5-4.9,2.3s-0.4,4.1-0.4,5.7c0,1.7-0.7,3.9,0.3,5.9s17.6,38.5,20.4,43.6c-9.8,2.5-16.5,4.1-19.5,5.4
		c-36.6,14.1-61,18.4-45.5,8.5c16.2-10.3,15-20.3,6.4-16.8c-8.6,3.4-23.4,10.6-31,13.2c11.7-5.8,21.6-11.1,24.6-13.2
		c4-2.8,12.1-6.6,11.6-11.1c-0.5-4.5-6.5-8.9-6.2-11.2s5.8-7,5.4-9.5c-0.4-2.5-0.7-2.7-9-3.8s-4.2-5.2-2.4-8.5
		c1.7-3.3,1.4-7.9-2-6.4c-3.4,1.4-3.4,8.6-7.3,9.3c-3.9,0.7-12.2,2.2-14.1-1.8c-1.9-4,0-17.4,4.7-22s12.8-14.2,12.3-21.3
		c-0.5-7-1-10.8-4-12.9c-3.1-2.2-6.6,0.7-10.1,1c-2.8,0.3-7.9-0.7-7.1-3.9c0.8-3.2,4.8-8.6,5.9-10.2c1.8-2.6,3.1-10.8,2-16.8
		C212.8,192.3,198.9,179.2,184.7,172.1z"/>
	<circle class="st2" cx="270.6" cy="325" r="16.1"/>
	<path class="st3" d="M268.7,312.6c-2.4,2-4.2,4.2-2.3,5.7s3.2,5.8-0.7,7.1c-3.9,1.3-7-2-6.3-5.4c0.5-2.2,1.8-4.1,2.8-5.1
		c1.1-1.1,2.1-2.1,3.3-2.5C266.6,312,269.7,311.7,268.7,312.6z"/>
	<path class="st4" d="M281.7,328.6c-2.6,1.4-4.9,3.2-7.8,2.8c-2.5-0.4-3.2-2-5-1.8c-2.3,0.2-3.7,2.2-3.7,4.7c0,1.3,1.9,5.1,7.2,4.5
		c5.3-0.6,8.7-3.6,10.2-6.4C284.1,329.9,284.1,327.4,281.7,328.6z"/>
	<path class="st5" d="M274.7,316.2c-1.4-1.2-3.1-0.1-2.5,1.2c0.6,1.3,2.1,2.1,2.8,1.7C275.6,318.7,276.6,317.8,274.7,316.2z"/>
	<path class="st6" d="M269.1,322.2c-0.2,1.6-1.2,2.1-1,2.7c0.2,0.9,2.4,0.7,3.1-1.1c0.7-1.7,0.2-3.9-0.7-4.9
		c-0.9-0.9-3.1-2.1-3.4-1.4C266.9,318.2,269.5,319.6,269.1,322.2z"/>
	<linearGradient id="SVGID_3_" gradientUnits="userSpaceOnUse" x1="142.9553" y1="157.3089" x2="122.3956" y2="347.3283">
		<stop  offset="0" style="stop-color:#EFD5C0;stop-opacity:0.6"/>
		<stop  offset="0.193" style="stop-color:#FFEBBF;stop-opacity:0.7"/>
		<stop  offset="0.4599" style="stop-color:#F2B99C;stop-opacity:0.8"/>
		<stop  offset="1" style="stop-color:#F4CD9E"/>
	</linearGradient>
	<path class="st7" d="M159.3,161.4c-6.4-3.1-14.4-7.4-22-7.4s-13,1-20.6,11.9s-0.3,16.8,4,20.6s9.4,11.1,10.2,15.2s2.8,12.6,2.1,16
		c-0.7,3.5-1,7.8-3.6,9.9c-2.6,2.1-6.3,7.4-8.9,7.3c-2.6-0.2-6.8-3.3-7.6-6.8c-0.8-3.5-5.6-7.5-5.9-8.8c-0.3-1.3-3.2,7.7-3.4,13.1
		c-0.2,5.4-0.5,17.2,0.2,20.5c1.3,5.8,4.6,26.5,4.7,29.8c0.2,3.3,3.3,13.8,5.3,17.6c2,3.8,4.3,11.1,5.8,15.2
		c1.5,4.1,3.5,9.8,3.6,11.8s2,9.6,4.6,12.6c2.6,3,6.7,6.2,9.7,7.4c3,1.2,6.5,2.9,8.6,3.4c2.1,0.5,0-4-3.1-8.1
		c-3.1-4.1,1.7-3.6,2.1-6.1c0.5-2.5-1.5-7.3-5.9-8.8s-9.1-1.5-11.6-4.3c-2.5-2.8-6.9-10.4-7.1-12.7s2.6-7.3,1.3-8.3
		c-1.3-1-7.1-5.4-4-9.4c3.1-4,8.1-0.2,9.7,0.7s6.8,0.2,5.4-4.6c-1.3-4.8,0.3-7.6-1.8-8.4s-13.4-4.3-13-8.6c0.3-4.3,6.8-10.7,7.4-13
		c0.7-2.3,4.1-10.7,6.6-14.7c2.5-4,9.2-16.7,8.9-24.8s0.2-17.3,5.9-22c6.2-5,11.4-5.6,14.9-5s6.6-0.8,6.4-2.6
		c-0.2-1.8-4.8-7.1-8.4-6.4s-7.9-3.5-5.9-7.6c2-4.1,4.3-5.4,6.9-3.8c2.6,1.7,4.6,9.6,8.8,9.2s1.8-11.2-3.8-15.4
		C160.5,161.9,159.3,161.4,159.3,161.4z"/>
	<linearGradient id="SVGID_4_" gradientUnits="userSpaceOnUse" x1="169.4311" y1="194.1189" x2="134.0911" y2="284.507">
		<stop  offset="0" style="stop-color:#9E755A"/>
		<stop  offset="0.5239" style="stop-color:#956048"/>
		<stop  offset="1" style="stop-color:#714936"/>
	</linearGradient>
	<path class="st8" d="M127.8,278c-3.3-1.7-7.8-2.3-7.9-5c-0.2-2.6,3.3-8.6,5.6-10.7c2.3-2.1,2.6-7.4,5.1-12.6
		c2.5-5.1,5.8-10.1,7.3-13.4c1.5-3.3,5-10.2,4.8-14.7c-0.2-4.5-1-11.2,0.3-14.7c1.3-3.5,5-8.6,11.1-10.4c6.1-1.8,17.7-2.5,21.3,0
		c3.6,2.5,1.7,2.1,4,3.5c2.3,1.3-1.5,5.1-4.8,5.3c-3.3,0.2-6.6-0.2-8.3,1.8c-1.7,2-7.1,8.3-8.8,9.1s-4.5,5.4-4.3,8.6
		c0.2,3.1,4.6,8.9,4,13.2s-5.4,17.2-3,22.5c2.5,5.3,6.1,10.2,4.8,15c-1.3,4.8-4.1,6.8-5.9,6.9s-4.5-1.7-5.6-0.5
		c-1.2,1.2,1.2,6.4-3.6,5c-4.8-1.5-8.9-1-9.7-3.1s0.8-3.5-1.8-4.3S127.8,278,127.8,278z"/>
	<path class="st9" d="M137.7,275.5c-4.3-1.5-13-1.7-11.1,0.2c2,1.8,5.8,2.1,7.4,3.3c1.7,1.2,5.6,1.8,6.6,1.8
		C141.6,280.8,141,276.7,137.7,275.5z"/>
	<path class="st10" d="M109.3,208.9c2-1.9,3.2-3.4,5.8-3.2c2.6,0.2,2.5-0.2,3.2,0.2c-1.5,0.9-3.5,3.4-2.6,7.1c0.5,2,2.1,4.3,3.7,4.9
		c2.2,0.9,6.1,0.5,6.8,0.2c0.8-0.3,3.2-0.8,3.4-2.2c0.2-1.5,0.3-6.5-5.3-9.5c-4.6-2.4-7.4-2.6-11.1-2
		C111.4,204.8,109.3,207.9,109.3,208.9z"/>
	<circle class="st11" cx="119.9" cy="209.1" r="1.6"/>
	<path class="st11" d="M109.3,208.9c2.1-2.4,3.5-3.4,5.9-3.5c2.4-0.1,3.5,0.2,2.6,0.8c-0.8,0.6-2,2.4-2.2,3.8
		c-0.4,2.7,0,6.2,3.7,7.8c-6.4-1.3-9.7-4-10.3-6C108.4,209.8,109.3,208.9,109.3,208.9z"/>
	<path class="st10" d="M177.1,216.5c-3.5,0-0.4,0.5,1.8,1.4c2.3,0.9,3.2,2.5,2.1,3.8c-0.9,1.1-2.1,1.2-3.3,0.3
		c-1.2,2.3-0.4,6.7,1.5,8.2c1.9,1.5,5.5,2.8,9.7,1.4c4.2-1.4,8.1-3.4,9.1-4c-3.1-3.3-6.4-7.1-10.7-8.8
		C183.1,216.9,179.1,216.5,177.1,216.5z"/>
	<path class="st11" d="M173.3,216.5c-1.4-0.1-5.6,0.7-7.6,3c2.7,5.4,6.4,8.1,8,8.8c0.7,0.3,6.3,2.8,7.3,3c-4.7-3.4-3.8-6.2-3.3-9.3
		c1.7,1.1,3.7,0.2,3.7-1.2C181.5,219.3,179.6,216.9,173.3,216.5z"/>
	<linearGradient id="SVGID_5_" gradientUnits="userSpaceOnUse" x1="196.8953" y1="289.2787" x2="243.7767" y2="324.0141">
		<stop  offset="0" style="stop-color:#8B5D46"/>
		<stop  offset="1" style="stop-color:#4D3524"/>
	</linearGradient>
	<path class="st12" d="M208.7,282.3c0.6-5.7,4.4-20-3.3-0.9c0.2,9-3.7,13.2-7.7,14.5c-4,1.3-3.3,6.4-5.9,7.7s-10.1,3.3-6.2,5.7
		c4,2.4,8.6,5.1,4.8,8.1c-3.7,3.1,7.3,2.4,8.8,4.4c1.5,2,9,3.3,13.2,1.3c4.2-2,7.9-8.4,5.1-12.3c-2.9-4-3.5-8.4,2.4-9
		c5.8-0.7,15.6-2.9,14.5,0.2c-1.1,3.1-5.1,7-3.1,8.4c2,1.3,9.9,3.9,9.9,7.4c0,3.5-4,8.5-6.6,10.5c7.5-1.5,11.1-6.5,11.3-7.8
		s0.4-5.3-4.5-8.5c-5-3.2,0.8-7.5,1.3-8.4s-0.1-4,1.3-4.8c1.4-0.9-1.7-2.2-6.9-2.9c-5.3-0.7-5.6-4.2-4.7-6.7s3.4-11.6-1.9-6.4
		c-5.3,5.2-7.6,8.8-10.6,9.8C217.2,293.6,207.6,292.4,208.7,282.3z"/>
	<linearGradient id="SVGID_6_" gradientUnits="userSpaceOnUse" x1="193.672" y1="212.67" x2="184.475" y2="236.1927">
		<stop  offset="0" style="stop-color:#815F4D"/>
		<stop  offset="1" style="stop-color:#452623"/>
	</linearGradient>
	<path class="st13" d="M183.3,208.6c4.7,4.1,9.9,7.2,7.9,7.8c-2,0.7-4.7-1-8.3-1.2c-3.5-0.2-7.7-0.3-10.7,0.2
		c7.6,0.3,15.4,2.3,18.1,4.2c2.8,1.9,6.9,5.7,7.8,7.5c-2.5,2.9-4.3,3.4-6.3,3.7c3.2,1.2,3.6,2.4-1,4.6s-3.2,3.3,2.9,1.2
		c6.1-2.1,4.5-5.3,6.6-5.6c2.1-0.3,3.4-0.7,6.1,0.9c-3.7-4.1-1.5-5-1.8-6.8c-0.2-1.9-5.4-6.6-10.6-10.2
		C188.9,211.3,188.9,211.4,183.3,208.6z"/>
	<linearGradient id="SVGID_7_" gradientUnits="userSpaceOnUse" x1="155.4231" y1="232.6521" x2="222.2233" y2="291.4187">
		<stop  offset="0" style="stop-color:#DEA970"/>
		<stop  offset="0.5243" style="stop-color:#EAAC72;stop-opacity:0.51"/>
		<stop  offset="1" style="stop-color:#A36D4B"/>
	</linearGradient>
	<path class="st14" d="M183.5,235.3c-4.2-0.8-7.6-4-8.9-1.9c-1.3,2.1-1.1,5,0.2,6.1c1.3,1.1,4,5.9,8.3,6.9c4.3,1,12.2,0.1,17.2-5.5
		s6.1-6.8,14-5.6s14,5,8.8,14.9c-5.2,9.9-25.5,18.6-28.2,23.2s-0.7,5.9,0.7,6.5c1.3,0.6,9.2,3.5,4,8.9c-5.3,5.4-9.4,7.6-12.1,7.4
		s-11.4-5.2-12.4-2.3c-1,2.9,2.6,9.6,3.6,11.7c-8.7-5.3-11.3-10.7-11.9-15.1c-0.6-4.4-5.7-6.2-5.3-12.4c0.4-6.3-0.8-8-1.9-10.5
		c-1.1-2.4-5-8-4.3-9.1c0.7-1.1,5.8-0.2,4.1-5.3s-1.9-8.7-1.2-10.9c0.7-2.2,2.3-6.9,0-10.7c-2.3-3.7,0.6-6.8,4.1-6.6
		c3.5,0.2,8.5,3,11.2,4.6c2.8,1.7,6.1,2.8,8.8,3.2s8.3-0.6,9.4-0.2c1.1,0.3-0.3,2.2-2.3,2.5C187.3,235.4,187.2,235.9,183.5,235.3z"
		/>
	<linearGradient id="SVGID_8_" gradientUnits="userSpaceOnUse" x1="115.0682" y1="187.5334" x2="126.5948" y2="195.0726">
		<stop  offset="0" style="stop-color:#B59B84"/>
		<stop  offset="1" style="stop-color:#D4AA8A"/>
	</linearGradient>
	<path class="st15" d="M111.6,175.9c-1.9,4.2-4,9.6-4.4,12.7c-0.4,2.8,0.1,4.1,2.3,4c2.2-0.1,2.4-4.8,6.2-4.2s8.3,3.3,9.5,5.1
		C115.5,184.7,111.9,181.9,111.6,175.9z"/>
	<linearGradient id="SVGID_9_" gradientUnits="userSpaceOnUse" x1="190.2014" y1="189.908" x2="173.592" y2="232.3893">
		<stop  offset="0" style="stop-color:#D7AA80"/>
		<stop  offset="1" style="stop-color:#815949"/>
	</linearGradient>
	<path class="st16" d="M167.8,165.6c11.8,5.2,32.6,18.9,36.9,24.4c4.3,5.5,12.6,12.4,6.7,27.4c-3.2,6.3-7,2.1-11.4-1.3
		c-4.4-3.4-8-11-12.8-15.2c-4.7-4.2-10.3-7.7-16.2-7.8c4.1-2.3,3-5-1.7-7.5s4.6,2.2,5.2-6.7C174.9,171.9,171.7,168.4,167.8,165.6z"
		/>
	<path class="st17" d="M208.1,345.2c4.8-1,8.5,1.4,8.9,4.2s-2.4,1.7-5.3,0.6c-2.9-1.1-7.5-0.7-8.6,1.2c-1.1,1.9-6.4,2.2-8.9,1
		c-2.5-1.2-8.1-1.4-7.2,1.4c1,2.9,7.6,17.3,10.8,17.8s5.6-0.8,7.7-2.1c-5.7,4.8-7,5.5-10,7.2c-1.2-5.8-4.3-12-7-17.6
		c-2.8-5.6-4.4-7.4-5.6-9.1C199.6,348.8,204.4,346,208.1,345.2z"/>
	<path class="st18" d="M123.1,302.1c-4.8-3-6.6-8.4-1.2-8.3c5,0.2,5.7,3,7.9,3.8c4.1,1.5,7.2-0.3,9.9,0.3c4.5,1,10.1,4.8,11.9,5.8
		c1.3,0.7,9.7,4.5,12.9,5.3c3.1,0.8,4.8,2.1,1.5,3.8c-3.3,1.7-8.6,12.2-18.2,12.6c-9.6,0.3-17.2-3.1-20.1-5.8
		C123.8,316.1,119.7,312.2,123.1,302.1z"/>
	<path class="st19" d="M133.7,303.6c-3.1,0-5,0.3-7.6-2.1c-2.6-2.5-2.5-0.5-1.3,1s4,1,4.6,2.5s2.5,5,6.3,5.4c3.8,0.5,8.8-0.2,12.9,1
		c4.1,1.2,7.4,1.5,9.7,0.5c-6.8,0-9.9-1.8-13-2.3c-3.1-0.5-8.6-0.3-10.2-1.8C133.4,306.2,132.6,305.2,133.7,303.6z"/>
	<linearGradient id="SVGID_10_" gradientUnits="userSpaceOnUse" x1="134.9487" y1="312.2021" x2="130.5521" y2="322.1471">
		<stop  offset="0" style="stop-color:#BF7F5B"/>
		<stop  offset="0.5102" style="stop-color:#E29C74"/>
		<stop  offset="1" style="stop-color:#B95F48"/>
	</linearGradient>
	<path class="st20" d="M139.7,313c-1.6,0-4,0.9-6.1-0.5c-0.6-0.4-3.1-2.4-5.5-2.3c-2.4,0.1-4.3,0.4-4.6,2.5
		c-0.3,2.2,2.1,4.6,4.5,6.6c2.2,1.8,4.8,3.1,6.5,3.7c1.6,0.6,6,0.4,6.3-0.9c0.9-3.8,2-2.3,2.9-4C144.2,317.1,143.6,313,139.7,313z"
		/>
	<path class="st21" d="M139,314c-2,0.4-3.1,1.9-2.5,3c0.6,1,1.7,1,1.7,2.8s1.6,1,2.4-0.6c0.7-1.6,1.9-0.7,1.9-2.2
		c-0.1-1.4-2.1-1-2.3-1.4C139.9,315.1,140.6,313.6,139,314z"/>
	<path class="st22" d="M130.6,312.2c-0.6-1.4-2.8-2.3-3-0.8c-0.1,1.6-0.2,2.5,0.7,3.3c1.1,1,2.7,0.9,2.8,0.5
		C131.2,314.7,131.2,313.7,130.6,312.2z"/>
	<path class="st23" d="M163.5,312.2c-1.7,0.3-3.2,0.3-3.1,2c0.1,1.7,0.8,1.4,1.2,1.2s2.7-2.3,3.3-2.9
		C165.5,312,164.3,312.1,163.5,312.2z"/>
	<path class="st24" d="M139.9,304.2c-2.4-0.8-5.2-1.4-6.2-0.7c-1,0.7-1,3,1.3,4.1c2.3,1.2,6.8,1.5,8.9,1.7c2.1,0.2,5.7,2.1,8.3,2.2
		c2.6,0.1,6.2,0.5,6.9-0.1s-6.1-3-9.6-3.7C145.9,307.1,142,305,139.9,304.2z"/>
</g>
<g id="Jacket">
	<linearGradient id="SVGID_11_" gradientUnits="userSpaceOnUse" x1="191.095" y1="453.8434" x2="244.4195" y2="453.8434">
		<stop  offset="0" style="stop-color:#986C34"/>
		<stop  offset="1" style="stop-color:#68492F"/>
	</linearGradient>
	<path class="st25" d="M252.6,438.2c-1.5-1.3-11.7-0.7-14-1.3c-2.3-0.7-9.7-0.2-12.9,0c-3.1,0.2-0.2,3.1-0.2,4.5s-5.1,3.1-9.1,3.5
		c-4,0.3,2.6,5.9,0.3,6.3c-2.3,0.3-5.4,1-12.9,2.6c2.3-1,4-3.6,7.5-4.6c3.6-1-1.2-4,1.7-5.3s3-0.7,6.3-4s-4-1.3-6.6-1.3
		s-15.2,7.6-14,9.9c1.1,2.3-1.8,3-3.8,5c-2,2-4,5.6,1.7,9.2c-3.6,2.6-8.9,3-11.9,4.3c-1.6,0.7-3.1,2.4-5.4,4.3h80.8
		c-0.3-0.8-0.4-1.8,0-3.1c1.5-4.6-1.8-7.3-2.6-9.7s0-4,1.1-7.3s-2.9-3.6-2-5.8S254.1,439.5,252.6,438.2z"/>
	<linearGradient id="SVGID_12_" gradientUnits="userSpaceOnUse" x1="166.0893" y1="419.7412" x2="233.8832" y2="419.7412">
		<stop  offset="0" style="stop-color:#986C34"/>
		<stop  offset="1" style="stop-color:#68492F"/>
	</linearGradient>
	<path class="st26" d="M175.1,471.2c0.9-1.1,1.9-2.4,3-3.6c3.3-3.6-4-3-5.5-4.3s5.2-5.3,7.8-7.6c2.6-2.3-2-2.3-5-3.3s-3.6,4-5.6,5.6
		c-2,1.7-2-10.6,0-10.9c2-0.3,1.7-7.9,5.9-7.6c4.3,0.3,0.3,5.3-1.3,7.9c-1.7,2.6,3.3,3.3,6.3,2.6c3-0.7,5-1.8,7.3-9.2
		c-0.3,5.3,3.6,8.9,5.6,6.9s2.3-6.3,5.1-5.3c2.8,1,11.1-4,12.7-6.3c1.7-2.3,14.5-2,19.5-2.3s9.9,2.3,14.6,2.3c4.7,0,3.9-1.7,4.4-5.3
		c0.5-3.6-0.9-8.6-6.1-8.6c-5.3,0-5-2.6-6.6-5.9s1.7-10.2,3-12.6c1.3-2.3,6.6-4.6,9.8-4c3.2,0.7,2.4-3.3,3.3-8.9
		c0.9-5.6-3.2-10.2-3.3-13.1c-0.1-2.9,10-9.7,0-9.5c-1.5,0.4-2.9,0.8-3.8,1.2c-3.1,1.1-4.8,4.4-6.6,5.5c-1.8,1.1-8.1,2.6-10.1,4
		c-2,1.3-4.4,6.2-10.1,7.7c-5.7,1.5-10.1,5.9-12.6,6.4s-6.4,5.1-9.9,8.6c-3.5,3.5-5.7,2.9-6.8,5.7c-1.1,2.9-4.6,6.8-7.7,9
		s-7,4-9.7,5.9c-2,1.3-0.2,4.6-2.6,6.4s-4.4,7-5.5,11.4c-1.1,4.4-4.6,13.2-9,18.9c-1.8,2.4-3.4,7-4.3,12.1H175.1z"/>
	<linearGradient id="SVGID_13_" gradientUnits="userSpaceOnUse" x1="168.3873" y1="418.3335" x2="278.907" y2="418.3335">
		<stop  offset="0" style="stop-color:#885A3A"/>
		<stop  offset="0.4769" style="stop-color:#67432B"/>
		<stop  offset="1" style="stop-color:#4A3E2F"/>
	</linearGradient>
	<path class="st27" d="M169.9,458c2-1.7,2.6-6.6,5.6-5.6s7.6,1,5,3.3c-2.6,2.3-9.4,6.3-7.8,7.6s8.8,0.7,5.5,4.3
		c-1.2,1.3-2.1,2.5-3,3.6h4.2c2.2-1.9,3.8-3.6,5.4-4.3c3-1.3,8.3-1.7,11.9-4.3c-5.6-3.6-3.6-7.3-1.7-9.2c2-2,4.9-2.6,3.8-5
		c-1.1-2.3,11.4-9.9,14-9.9s9.9-2,6.6,1.3s-3.3,2.6-6.3,4s1.8,4.3-1.7,5.3c-3.6,1-5.2,3.6-7.5,4.6c7.5-1.7,10.6-2.3,12.9-2.6
		c2.3-0.3-4.3-5.9-0.3-6.3c4-0.3,9.1-2.1,9.1-3.5s-3-4.3,0.2-4.5c3.1-0.2,10.6-0.7,12.9,0c2.3,0.7,12.6,0,14,1.3
		c1.5,1.3,4.8,5,4,7.1s3.1,2.5,2,5.8s-1.9,4.8-1.1,7.3s4.1,5.1,2.6,9.7c-0.4,1.3-0.4,2.3,0,3.1h17c0.6-0.7,1.1-1.4,1.4-2
		c1.8-2.9-3.1-2-6.8-1.5c-3.7,0.4-4.2-10.1-6.6-15.2s1.1-12.1,4-20c-3.1,0-4.2,4.6-6.4,6.6c-2.2,2-4.4-4-7-6.2
		c-2.6-2.2,1.8-7.5,4-12.3c2.2-4.8-6.6-2.2-10.1-3.7c-3.5-1.5-1.1-8.8,2.4-9.5c3.5-0.7,5.3-5.1,7.5-10.1c2.2-5.1-2.9-14.3-3.7-18.7
		c-0.9-4.4,2.2-5.9,3.3-12.8c0.2-1-5.3,1.6-8.9,2.6c10-0.2-0.1,6.7,0,9.5c0.1,2.9,4.2,7.5,3.3,13.1c-0.9,5.6-0.1,9.6-3.3,8.9
		c-3.2-0.7-8.5,1.7-9.8,4c-1.3,2.3-4.6,9.2-3,12.6s1.3,5.9,6.6,5.9c5.3,0,6.7,5,6.1,8.6c-0.5,3.6,0.3,5.3-4.4,5.3
		c-4.7,0-9.7-2.6-14.6-2.3s-17.8,0-19.5,2.3c-1.7,2.3-9.9,7.3-12.7,6.3c-2.8-1-3.1,3.3-5.1,5.3s-5.9-1.7-5.6-6.9
		c-2.3,7.5-4.3,8.6-7.3,9.2c-3,0.7-7.9,0-6.3-2.6c1.7-2.6,5.6-7.6,1.3-7.9c-4.3-0.3-4,7.3-5.9,7.6
		C167.9,447.4,167.9,459.6,169.9,458z"/>
	<linearGradient id="SVGID_14_" gradientUnits="userSpaceOnUse" x1="247.7474" y1="410.2241" x2="351.3454" y2="410.2241">
		<stop  offset="0" style="stop-color:#3C2F26"/>
		<stop  offset="1" style="stop-color:#1E1212"/>
	</linearGradient>
	<path class="st28" d="M249.5,416.8c3.5,1.5,12.3-1.1,10.1,3.7c-2.2,4.8-6.6,10.1-4,12.3c2.6,2.2,4.8,8.1,7,6.2
		c2.2-2,3.3-6.6,6.4-6.6c-2.9,7.9-6.4,15-4,20s2.9,15.6,6.6,15.2c3.7-0.4,8.6-1.3,6.8,1.5c-0.3,0.6-0.8,1.2-1.4,2h73.6
		c0.2-1.9,0.3-3.6,0.3-5c0-6.4-1.5-11.4-0.8-17.3c0.7-5.9,1.5-13.9,1-17.2c-0.5-3.3-1.8-22.1-1.7-29.2c0.2-7.1-1.8-15.7-2.5-22
		c-0.7-6.3-3-23.8-2.5-28.2c0.1-0.6,0.1-1.6,0-3l-0.2,0.2c0,0-11.9-0.2-16.1,0.4c-4.2,0.7-18.3,1.3-21.8,2.4
		c-3.5,1.1-15.2,2.9-18.7,4.8c-3.5,2-10.6,5.3-14.1,5.5c-3.5,0.2-13.4,2.4-14.8,3.1c-1.1,6.8-4.2,8.4-3.3,12.8
		c0.9,4.4,5.9,13.7,3.7,18.7c-2.2,5.1-4,9.5-7.5,10.1C248.4,408,245.9,415.3,249.5,416.8z"/>
</g>
<g id="White">
	<linearGradient id="SVGID_15_" gradientUnits="userSpaceOnUse" x1="199.182" y1="389.8888" x2="274.7174" y2="353.2841">
		<stop  offset="0" style="stop-color:#FFFEFB"/>
		<stop  offset="1" style="stop-color:#FBFBF9"/>
	</linearGradient>
	<path class="st29" d="M270.1,362.1c1.4-0.8,1.6-4.3,5.1-5.4c3.5-1.1,3.7-3.9,7.1-4.6c3.3-0.6,6-0.9,3.7,0.8c-1.8,1.4,0.6,2,2.3,1.3
		c1.7-0.6,4-2.2,6.3-2.7c2.2-0.5,2.9-1.7,2.7-3s-7.8-2.5-12.4-2.2c-4.6,0.3-11-0.5-14.5,0.5c-3.5,1-10.7,4.9-14.3,4.9
		c-3.4,0-5.9,0.5-10.3,0.1c-9.2,2.6-19.4,5.5-23.4,7.3c-6.8,3.1-16.7,10.3-18.9,12.8c-1.6,1.8-5.2,3.5-6.9,4.2
		c-2.9,2.3-8.1,10.6-8.5,11.7c-0.4,1.1-6.4,5.9-8.4,9.7c-2,3.7-6.2,15.6-7,24.9c2.6-2,6.6-3.7,9.7-5.9s6.6-6.2,7.7-9
		c1.1-2.9,3.3-2.2,6.8-5.7c3.5-3.5,7.5-8.1,9.9-8.6s6.8-4.8,12.6-6.4c5.7-1.5,8.1-6.4,10.1-7.7c2-1.3,8.4-2.9,10.1-4
		c1.8-1.1,3.5-4.4,6.6-5.5c0.7-0.3,1.6-0.6,2.7-0.9C263.3,363.4,268.7,362.8,270.1,362.1z"/>
	<linearGradient id="SVGID_16_" gradientUnits="userSpaceOnUse" x1="244.9285" y1="350.9307" x2="329.25" y2="350.9307">
		<stop  offset="0" style="stop-color:#C0C8D4"/>
		<stop  offset="1" style="stop-color:#524C3F"/>
	</linearGradient>
	<path class="st30" d="M325.7,345.5c-4.3-0.3-5.1-0.8-3.5-1.4c1.6-0.6,3.3-4,0.5-6c-2.9-2.1-5.2-4.2-8.1-4.7
		c-5.3,0-10.6,0.4-14.8,1.1c-0.2,0.1-2.9,0.9-11.4,3.3s-20.6,7.4-27.2,9.4c-4.7,1.4-6,2.1-16.3,4.6c4.9,0.5,7.5,0,11.1,0
		s10.8-4,14.3-4.9c3.5-1,9.9-0.2,14.5-0.5c4.6-0.3,12.2,1,12.4,2.2s-0.5,2.5-2.7,3c-2.2,0.5-4.5,2.1-6.3,2.7
		c-1.7,0.6-4.1,0.1-2.3-1.3c2.3-1.7-0.4-1.5-3.7-0.8c-3.3,0.6-3.6,3.4-7.1,4.6c-3.5,1.1-3.7,4.6-5.1,5.4c-1.4,0.8-6.8,1.4-21.2,6.4
		c3.7-1.1,9.1-2.3,10.1-2.8c1.3-0.7,11.2-2.9,14.8-3.1c3.5-0.2,10.6-3.5,14.1-5.5c3.5-2,15.2-3.7,18.7-4.8
		c3.5-1.1,17.6-1.8,21.8-2.4C329.7,346.7,330,345.9,325.7,345.5z"/>
	<linearGradient id="SVGID_17_" gradientUnits="userSpaceOnUse" x1="314.0187" y1="341.5266" x2="344.6031" y2="341.5266">
		<stop  offset="0" style="stop-color:#2D2E33"/>
		<stop  offset="1" style="stop-color:#1C1B23"/>
	</linearGradient>
	<path class="st31" d="M314.6,333.4c-4.6-0.8,17.3,1.9,29.1,2c0.4,5.6,0.7,10.7,0.9,13.9l-0.2,0.2c0,0-11.9,0-16.1,0.4
		c1.4-3.2,1.7-4-2.6-4.3c-4.3-0.3-5.1-0.8-3.5-1.4s3.3-4,0.5-6C319.9,336,317.5,333.9,314.6,333.4z"/>
</g>
<g id="Blue">
	<linearGradient id="SVGID_18_" gradientUnits="userSpaceOnUse" x1="266.413" y1="182.166" x2="366.2032" y2="307.1808">
		<stop  offset="0" style="stop-color:#222952"/>
		<stop  offset="1" style="stop-color:#130D19"/>
	</linearGradient>
	<path class="st32" d="M196.4,179c-4.4-2.6-9.5-7.3-4.6-7c4.8,0.2,7.9,1.8,9.6,3.5s5.2,6.8,8.1,6.8s2-10.8,0-11.9
		c-2-1.1-2-4.4-1.8-5.5c0.2-1.1-4.2-4.2-6.3-4.8c-2.1-0.7-11.3-5.7-12.4-4.2c-1.1,1.5,3.1,7.9,5.3,9c-7.9-4.2-12.8-10.6-9.2-12.3
		c3.5-1.8,3.5-2.4,5.5-2.4c-3.3-5.7,2-13.4,4-13c2,0.4,2.7,2.6,4.3,3.1s-0.1,2.4,0,4.4c0.1,2,1.8,7.7,6.2,9.2
		c4.4,1.5,12.6,6.2,15.2,7.7c2.6,1.5,7.5,5.7,9.2,4.6c1.8-1.1-3.7-6.6-6.2-8.4c-2.4-1.8-3.7-4.2-0.9-5.3s7.5-0.7,10.1,3.1
		c2.6,3.7,6.8,12.1,9.5,13.7c2.6,1.5,2-6.8,1.1-9.6c-0.9-2.7,0-9.6,2.4-10.7s0.9-1.8,0-2.9s2.2-1.1,3.5-0.4c1.3,0.7,9.5,7.5,10.8,9
		c1.3,1.5-0.2,4.8,3.1,4.9c3.3,0.1,8.6-2.8,7.7-7.2c-0.9-4.4-2-13,2-13.2s5.1-0.9,7.3-0.9c2.2,0,4.8,2.6,6.4,5.7
		c0-5.5-5.3-12.6-7.5-14.1c-2.2-1.5-10.3-9.2-7.7-12.3c2.6-3.1,5.1-2.4,7-1.5c2,0.9,10.1,4,8.1,2.2c-2-1.8-10.3-4.4-11.9-6.8
		c-1.5-2.4-2.4-4.8-5.1-6.2c-2.6-1.3-7-2.9-7.5-4.6c7.3,1.5,12.1,3.7,12.8,5.9c0.7,2.2,6.2,6.8,8.6,7.5c2.4,0.7,0.8-4.2-1.9-6.3
		c16.4,10.2,26.2,19.4,28.9,22.1c2.7,2.6,7.5,7.4,10.2,12.9c2.3,4.7,10,10.3,12.7,12.4c0,17.9,4.7,49.9,5.6,54.7s2.2,32.8,2.7,40.9
		c0.5,8.2,0.8,31,0.9,36.4s-0.4,15.2-0.2,21.1c0.2,5.9,1.4,23.3,1.7,26.9c-11,0-23.6-1.8-26.7-1.9s-13.8,0.1-17.2,1
		c-7.4-14.9-19.9-41.8-20.5-45.1c-0.6-3.3,0.3-4.4-0.8-6.7s0.4-3.8,6-5.7c5.6-1.9,6-4,4-6.3s-33.7-37.8-41.1-44.9
		c-7.4-7.2-34.2-32.9-37.9-36.3C206,185.9,200.8,181.6,196.4,179z"/>
	<linearGradient id="SVGID_19_" gradientUnits="userSpaceOnUse" x1="162.757" y1="89.4701" x2="237.5061" y2="183.114">
		<stop  offset="0" style="stop-color:#7586C1"/>
		<stop  offset="1" style="stop-color:#7283BC"/>
	</linearGradient>
	<path class="st33" d="M196.4,179c-4.4-2.6-9.5-7.3-4.6-7c4.8,0.2,7.9,1.8,9.6,3.5c1.7,1.8,5.2,6.8,8.1,6.8s2-10.8,0-11.9
		c-2-1.1-2-4.4-1.8-5.5c0.2-1.1-4.2-4.2-6.3-4.8c-2.1-0.7-11.3-5.7-12.4-4.2c-1.1,1.5,3.1,7.9,5.3,9c-7.9-4.2-12.8-10.6-9.2-12.3
		c3.5-1.8,3.5-2.4,5.5-2.4c-3.3-5.7,2-13.4,4-13c2,0.4,2.7,2.6,4.3,3.1c1.6,0.4-0.1,2.4,0,4.4c0.1,2,1.8,7.7,6.2,9.2
		c4.4,1.5,12.6,6.2,15.2,7.7c2.6,1.5,7.5,5.7,9.2,4.6c1.8-1.1-3.7-6.6-6.2-8.4s-3.7-4.2-0.9-5.3s7.5-0.7,10.1,3.1s6.8,12.1,9.5,13.7
		c2.6,1.5,2-6.8,1.1-9.6c-0.9-2.7,0-9.6,2.4-10.7c2.4-1.1,0.9-1.8,0-2.9c-0.9-1.1,2.2-1.1,3.5-0.4c1.3,0.7,9.5,7.5,10.8,9
		c1.3,1.5-0.2,4.8,3.1,4.9c3.3,0.1,8.6-2.8,7.7-7.2c-0.9-4.4-2-13,2-13.2c4-0.2,5.1-0.9,7.3-0.9s4.8,2.6,6.4,5.7
		c0-5.5-5.3-12.6-7.5-14.1c-2.2-1.5-10.3-9.2-7.7-12.3c2.6-3.1,5.1-2.4,7-1.5c2,0.9,10.1,4,8.1,2.2s-10.3-4.4-11.9-6.8
		c-1.5-2.4-2.4-4.8-5.1-6.2s-7-2.9-7.5-4.6c7.3,1.5,12.1,3.7,12.8,5.9c0.7,2.2,6.2,6.8,8.6,7.5c2.4,0.7,0.8-4.2-1.9-6.3c0,0,0,0,0,0
		c-1.7-1.3-3-2.3-3.9-3c-3.9-3.2-15.9-10.7-24.1-14c-3.8-1.3-6.6-1.9-8.3-2.5c-2.5-0.9-3.2-1.5-4.2-2.1c-0.4-0.2-0.8-0.4-1.4-0.6
		c-2.6-0.8-10.1-0.8-14.2-2.5c-0.4-0.2-0.9-0.4-1.4-0.5c-1.3-0.4-2.5-0.8-3.8-1.2c-1.3-0.4-2.6-0.6-4-0.8c-2.2-0.1-4.6,0.1-7.1,0.4
		c-3.1,0.6-5.8,1.1-8,1.2c-1.3,0.2-2.6,0.3-3.9,0.4c-8.1,0.7-26.4,6.6-35.7,10.6c-9.2,4-11.3,5.2-13.2,10
		c-4.9,1.9-11.6,10-12.7,11.6c-1.1,1.5,0,2.9,0,2.9s-0.9,0.4-3.1,2.2c-2.2,1.8-9.7,12.1-11,14.3c-1.3,2.2-0.3,4.8-0.9,5.7
		c-0.2,0.3-2.1,1.1-2.7,2.6c-0.6,1.7-2.2,3.5-4,8.5s2,13.2,5.4,9.5c0.8-0.9,4.1-3.7,6.8-5.4c2.7-1.7,10.3-3.4,16.5-2
		c5.8,1.3,19.5,7.9,25.2,10.1c4.6,1.8,19.2,9.7,28.2,15.4C195,178.1,197.3,179.5,196.4,179z"/>
	<linearGradient id="SVGID_20_" gradientUnits="userSpaceOnUse" x1="198.4429" y1="100.9781" x2="253.6925" y2="170.1936">
		<stop  offset="0" style="stop-color:#576BB2"/>
		<stop  offset="1" style="stop-color:#293F6A"/>
	</linearGradient>
	<path class="st34" d="M191.8,172c4.8,0.2,7.9,1.8,9.6,3.5c1.7,1.8,5.2,6.8,8.1,6.8s2-10.8,0-11.9c-2-1.1-2-4.4-1.8-5.5
		c0.2-1.1-4.2-4.2-6.3-4.8c-2.1-0.7-11.3-5.7-12.4-4.2c-1.1,1.5,3.1,7.9,5.3,9c-7.9-4.2-12.8-10.6-9.2-12.3c3.5-1.8,3.5-2.4,5.5-2.4
		c-3.3-5.7,2-13.4,4-13c2,0.4,2.7,2.6,4.3,3.1c1.6,0.4-0.1,2.4,0,4.4c0.1,2,1.8,7.7,6.2,9.2c4.4,1.5,12.6,6.2,15.2,7.7
		c2.6,1.5,7.5,5.7,9.2,4.6c1.8-1.1-3.7-6.6-6.2-8.4s-3.7-4.2-0.9-5.3s7.5-0.7,10.1,3.1s6.8,12.1,9.5,13.7c2.6,1.5,2-6.8,1.1-9.6
		c-0.9-2.7,0-9.6,2.4-10.7c2.4-1.1,0.9-1.8,0-2.9c-0.9-1.1,2.2-1.1,3.5-0.4c1.3,0.7,9.5,7.5,10.8,9c1.3,1.5-0.2,4.8,3.1,4.9
		c3.3,0.1,8.6-2.8,7.7-7.2c-0.9-4.4-2-13,2-13.2c4-0.2,5.1-0.9,7.3-0.9s4.8,2.6,6.4,5.7c0-5.5-5.3-12.6-7.5-14.1
		c-2.2-1.5-10.3-9.2-7.7-12.3c2.6-3.1,5.1-2.4,7-1.5c2,0.9,10.1,4,8.1,2.2s-10.3-4.4-11.9-6.8c-1.5-2.4-2.4-4.8-5.1-6.2
		s-7-2.9-7.5-4.6c7.3,1.5,12.1,3.7,12.8,5.9c0.7,2.2,6.2,6.8,8.6,7.5c2.4,0.7,0.8-4.2-1.9-6.3c5.5,3.4,10.2,6.7,14.2,9.7l0,0
		c-0.7-1.6-7.5-6.4-12.9-10.1c-5.4-3.7-11.3-7.9-14.1-9.7c-2.8-1.8-12.2-5.5-15.2-7c-3-1.5-14.1-5.3-13.4-3.5
		c0.7,1.8,6.1,3.3,7.9,6.3s-5.8-3-7.9-3.1c-2.1-0.1-8.4-4.3-12.1-5.4c-3.6-1.1,1.7-0.6,2.9,0.6c1.2,1.1,5.7,5.2,9.1,6.8s6.3,6.5,4,7
		c-2.3,0.6-4.7-2.1-7.4-3.4s-3.4-3.9-6.5-4.1c-3.1-0.2-3-2.5-6.9-3c-4-0.4,0.8,1.8,1,3.1c0.2,1.3-2.8,1.1-3.4,3.4
		c-0.7,2.3-2.1,5.2-4.3,6.4c-2.2,1.2-6.9-1.1-9.1-2.2c-2.2-1.1-7.7,0.3-6.6,1.8c1.1,1.4-0.3,3.7-2,3.4c-1.7-0.3-5.3-1.5-4.3,0
		c1,1.5,3.3,2.4,5.4,4.3s3.5,4.4,3.4,5.8c-0.1,1.4-4.1,1.1-7.3,0.7s-3.2,1.4-3,2.5c0.2,1.1,2.8,0.1,3.4,0.9c0.7,0.8-1,1.9-3,2.1
		c-2,0.3-0.6,3.2-1,4.2c-0.4,1,2,2.9,3.9,4c-1.1,0.3-1.9,3.1-2.1,4.2c-0.2,1.1-4,1.2-8.4,0.8c0.4,1.7,3.4,3,4,4.4
		c0.6,1.4-3,3.5-2.1,6.2c0.9,2.6,1.8,1.1-0.2,4.3c-2,0-5.4,2.5-6.9,4.3c-1.5,1.8-5.2,1.1-8.1,0.6c-3-0.6-6.4-3.4-9.9-4.6
		c0.8,1.1,0.9,3,0.3,4.3c-0.6,1.3-6.3,1.1-4,2.1c2.3,1,1.5,2.3,3.1,4.2c1.5,1.8,7.4,3.7,11.3,5.9c3.6,2,10.6,5.8,13,7.1
		c0.8,0.5,6,3.3,9.1,5.3C189.3,174.2,188.4,171.8,191.8,172z"/>
	<linearGradient id="SVGID_21_" gradientUnits="userSpaceOnUse" x1="119.7908" y1="138.5694" x2="131.2522" y2="144.2752">
		<stop  offset="0" style="stop-color:#576BB2"/>
		<stop  offset="1" style="stop-color:#293F6A"/>
	</linearGradient>
	<path class="st35" d="M118.1,142c1.5-2,4.5-1,7.5-1.2c3-0.2,4.5-0.3,7.4,0c-8.6-1.2-12.7-0.5-12.2-2
		C119.1,141.2,118.1,142,118.1,142z"/>
	<linearGradient id="SVGID_22_" gradientUnits="userSpaceOnUse" x1="131.8637" y1="118.4274" x2="142.5701" y2="123.7574">
		<stop  offset="0" style="stop-color:#576BB2"/>
		<stop  offset="1" style="stop-color:#293F6A"/>
	</linearGradient>
	<path class="st36" d="M129.6,123c1.5-2,3.5-3.5,6.5-3.7s5.8-0.5,8.8-0.1c-8.6-1.2-10.8-1.4-9.7-3.8
		C133.4,118.3,129.6,123,129.6,123z"/>
	<linearGradient id="SVGID_23_" gradientUnits="userSpaceOnUse" x1="146.4365" y1="101.9175" x2="156.2858" y2="106.8208">
		<stop  offset="0" style="stop-color:#576BB2"/>
		<stop  offset="1" style="stop-color:#293F6A"/>
	</linearGradient>
	<path class="st37" d="M144.8,105.3c1.8-0.9,2.6-1.7,5.6-1.9c3-0.2,4.6-0.3,7.6,0c-8.6-1.2-9.4-0.5-8.9-2
		C147.2,103.8,144.8,105.3,144.8,105.3z"/>
</g>
<g id="Yellow">
	<linearGradient id="SVGID_24_" gradientUnits="userSpaceOnUse" x1="299.9499" y1="159.7408" x2="366.6307" y2="352.6105">
		<stop  offset="0" style="stop-color:#92723E"/>
		<stop  offset="1" style="stop-color:#B08B51"/>
	</linearGradient>
	<path class="st38" d="M210.5,80.8c5-1,10.6,0.8,14.7,2.5c4.1,1.7,11.6,1.7,14.2,2.5c2.6,0.8,2.5,1.8,10.1,3.8
		c7.6,2,23.3,11.6,27.9,15.4s24.6,18.5,31.4,23.9c6.8,5.4,8.3,10.5,11.6,14c2.7,3,3.6,5.8,12.7,12.4c-0.3,4.6,1.3,29.4,2.8,36
		c1.5,6.6,3.3,30.2,3.8,36.2s2.3,29.2,2.5,38.8c0.2,9.6,0.5,30.4,0,38.5c-0.5,8.1,3,43.1,2.5,47.6c-0.5,4.5,1.8,22,2.5,28.2
		c0.7,6.3,2.6,14.9,2.5,22c-0.2,7.1,1.2,25.9,1.7,29.2c0.5,3.3-0.3,11.2-1,17.2c-0.7,5.9,0.8,10.9,0.8,17.3c0,1.4-0.1,3.1-0.3,5
		h42.6c-0.1-0.4-0.2-0.7-0.2-1c-0.7-3.6-2-9.1,1.5-8.8c6.6,1.2,7.6-1.8,10.2-2.8c2.6-1,2.5,1.5,5.8,3.5s9.4-0.2,11.1-2
		c1.7-1.8,1.5-1,4.6-1.5c3.1-0.5,2.6-4.3,2-6.1c-0.7-1.8-1.8-2.5-1.2-9.6c0.7-7.1-1.2-25.8-1.3-29.9c-0.2-4.1-5.1-9.9-5-14.2
		c0.2-4.3-3-5-4-9.1s0.3-22.1-1.3-24.3c-1.7-2.1-4-10.2-4-18.8s-6.4-23.9-7.6-27.9c-1.2-4,2-8.1,1.8-11.6c-0.2-3.5-6.1-7.8-6.9-13.2
		s-1.2-12.1-4.6-15c-3.5-3-4.6-7.9-4.6-19.5c0-11.6-6.1-13.7-9.7-17.7c-3.6-4-0.7-7.9-2.6-12.1c-2-4.1-1.5-14.2-1.8-20
		s-4.6-16.7-3.3-20.3c1.3-3.6-2.3-13.2-1.8-18.3c0.5-5.1-2-10.9-3-13.9s-3.5-3.1-2.1-7.9s-2.6-9.2-4.5-9.9c-1.8-0.7-4.1-3.1-3.8-9.6
		c2.5-2.5,3.5-8.1,2.5-11.6c-1-3.5-1.8-6.9-4.5-14.5c-2.6-7.6-10.4-9.6-12.7-11.4c-2.3-1.8-3.1-7.1-1.5-11.6
		c1.7-4.5-7.1-8.8-8.9-11.9c-1.8-3.1-6.4-5-10.6-5.8s-6.3-4.3-7.8-5.8c-1.5-1.5-3.3-3.5-8.4-6.3c-5.1-2.8-12.2-1.8-19.5-3.3
		c-7.3-1.5-11.9-2.3-20.8-2.6c-8.9-0.3-16.5,3.1-20.8,5.8s-16.2,11.6-16.5,16.5c-3.3,1.3-14,4.8-17.8,5.8c-3.8,1-11.2,2.6-10.9,9.1
		C201.6,82.6,205.5,81.8,210.5,80.8z"/>
	<linearGradient id="SVGID_25_" gradientUnits="userSpaceOnUse" x1="242.9248" y1="47.9983" x2="312.5237" y2="82.6469">
		<stop  offset="0" style="stop-color:#6E5837"/>
		<stop  offset="1" style="stop-color:#514024"/>
	</linearGradient>
	<path class="st39" d="M286.5,50.4c-15.4,0-24,1.8-25.4,3c-1.3,1.2-4,2-6.6,4.1c-2.6,2.1-6.4,5.8-4.6,5.9c1.8,0.2,10.5-4.1,12.4-5.6
		c1.8-1.5,10.7-5.1,15.7-5.1s13-0.5,16.2,0.2c-11.6,0.8-21.6,2-22.3,2.8c-0.8,0.8-7.4,2.5-7.2,4c0.2,1.5-2.6,4.5,0.2,5
		c2.8,0.5,4.9-0.8,7.1,0c2.2,0.8-0.8,3.3,1.4,4c2.1,0.7,6.1,0.8,8.8,0c-3.3,2.8-3.1,4.3-0.2,4.6s5.1-1.3,6.1,0.8
		c1,2.1-2.6,4.6,3.6,4.5s10.6-1.8,11.4,0c0.8,1.8-1.8,5.9,1.7,7.3c3.5,1.3,3,2.1,4.8,3.1c-9.5-3.6-12.1-6.3-14-7.1
		c-1.9-0.8-13.6-6.4-17.8-8.8c-4.1-2.3-9.6-5.6-16.3-6.9s-20.1-1.3-24.1-1.2c-4,0.2-3.3-1.5,3.1-2.5c6.4-1,9.6-4,11.6-5.8
		s8.3-5.8,13.7-6.3C271.1,49.9,279,51.4,286.5,50.4z"/>
	<linearGradient id="SVGID_26_" gradientUnits="userSpaceOnUse" x1="229.7772" y1="195.9632" x2="477.4846" y2="319.2801">
		<stop  offset="0" style="stop-color:#775F3E"/>
		<stop  offset="1" style="stop-color:#744F35"/>
	</linearGradient>
	<path class="st40" d="M313.8,91c4.2,6.1,13.3,11.9,15,14.4s0.3-4,3.3-4.6c3-0.6,7.8,4.9,6.4,1.6c-1.3-3.3-4-7.9-1.7-6.3
		c2.3,1.7,4,6.9,5.9,9.8c2,2.9,1.7,4.9,3.3,2.6s-0.2-3.5-2.3-6.9c-2.1-3.5-4.8-7.9-7.6-8.1s-6.6-0.2-9.1-3.5s-9.6-7.9-7.8-9.4
		c1.8-1.5,3.1-1,4.6-0.8s-2.1-3.1-5.3-3.8c-3.1-0.7-4-3.6-2.1-4c1.8-0.3,5,0.8,7.6,2.8c2.6,2-2.5-3.6-1.3-5.3c1.2-1.7,3.6-3.8,5.8,0
		s1.3,9.7,4.5,10.2c3.1,0.5,5.4-1.3,4.6-3s4-1.1,3.3,2.3s-2.2,6.1-0.7,9.4c1.5,3.2,2.8,5.1,7.9,7.1c5.1,2,6.5,6.8,7.8,10.9
		s3.9,11.4,3.9,13.8c0,2.4-0.8,7.3-2.8,9.5c-2,2.3,0.7,34,2.8,39.5c2.1,5.4,4.4,21.8,3.8,31.2s-1,20.8,1.2,26.4s4.8,31.4,4.6,43.3
		s1.5,35.8,2.5,44.4c1,8.6,4.6,26.1,5.1,32.7c0.5,6.6,2.5,23.4,3.8,27.7c1.3,4.3,1.2,18.7,3.8,18.5c2.6-0.2,3.3-2.9,2.6-9.3
		c3.1,11.6,4,14.9,2.1,16.2c-1.8,1.3-4.5,2.5-2.6,5c1.8,2.5,5-2,6.4-1.3s-3.8-51-4.6-59c-0.8-7.9-12.7-67.5-13.7-80.6
		s-3-26.4-4.3-33.1c-1.3-6.8,0.3-15.5,2.3-1.5c2,14,2.3,16.3,3.3,13.2c1-3.1,5-0.8,7.8,2.4s5.6,9.2,5.7,14c0.1,4.8,0,14.1,2.7,17.2
		c2.7,3.1-3.3,1.3-1.7,6.6s7.4,26,7.8,33.2c0.3,7.2,8.4,31.2,8.9,41.6c0.5,10.4,2.5,23.1,3.5,26.2c1,3.2,7.3,13.1,6.8,17.2
		c-0.5,4.1-0.8,13-3.5,12.6c-2.6-0.5-6.8-8.3-5.1-12.7c1.7-4.5,2.3-9.9,1.3-13.9s-2.5-17.8-4.6-17.8s-1.2,18,0.3,22.5
		s1.5,11.7,1.7,17c0.2,5.3-2.5,13-0.7,19c1.8,5.9-0.5,12.2,2,15.9s2.1,11.6-0.2,12.1s-6.1-0.8-5.9-7.1c0.2-6.3,2.1-12.4-2.3-18.3
		s-4.6-14.2-3.6-16.5c1-2.3,3.1-9.7-2.1-7.4c-5.3,2.3-8.6,3.8-7.6,10.2c1,6.4,4.5,17.2,3.8,21.6c-0.7,4.5,1.2,9.9,1.5,15
		c-4.5-12.9-3.3-18-3.6-22c-0.3-4-2.8-3-5.3-1.2c-2.5,1.8-2.8-1.6-2.3-5.2c0.5-3.6,1.5-18.1,0-24.4c-1.5-6.3-4.6-15-5.8-19.5
		c-1.2-4.5-2.3-21.3-4.3-27.6c-2-6.3-0.2-8.3-0.8-12.2s-3.5-0.6-4.7-1.6c-1.1-1,2.8-5.3,1.5-8.4s-3.6-8.8-2.6-15
		c1-6.1-0.2-14.7-1.3-18c0.5,12.7-0.7,17.5-1.2,24.1c-0.5,6.6,2.1,15.2,1.5,20.3s-1.5,13.4,2.1,17.7c3.7,4.3,7.3,8.1,7,13
		c-0.3,5-1.3,14.4,0,19.8c-3.1-3.8-4.5-3.5-4.5,0c-1.8-10.9-3.5-15.2-3.3-19s-0.5-10.1-2.8-14.9c-2.3-4.8-4-12.6-3-17
		c1-4.5-2.3-75.6-1.5-82.6c0.8-6.9,1.2-23.4-1.2-25.1c-2.3-1.7-5.4-4.8-5.8-11.2c-0.3-6.4,1.5-27.6,0.5-31.2c-1-3.6-2.6,2.1-2.6,5.1
		s0.2,22.6-0.2,28.1c-0.3,5.4,4.5,24.4,4.3,30.2c-0.2,5.8,2,24.8,0.7,29.9c-1.8-11.4-3.8-20.3-3.8-31c0-10.7-5.1-26.6-4.9-39.1
		c0.2-12.6,0.3-54,1.3-56.1c1-2.1-0.2-29.4-2.2-30.2s-1.6,5.6-3,4.2c-1.3-1.4-0.8-13.3-0.3-15.8c0.5-2.5-3.6-13.9-5.8-13.5
		c-2.1,0.3-2,9.4-1.2,12.9c0.8,3.5,2.3,9.2,1.5,13.4s-1.5,9.2-1.7,15.7s-0.3,9.2-0.3,9.2s-9.4-7.1-11.1-9.2
		c-1.7-2.1-5.2-12.5-11.8-16c6.7,1.4,3-4-1.6-10.3c-4.6-6.3-7.3-15.4-11.6-18.9c-4.3-3.5-16-12.1-13.7-11.9s21,11.7,23.4,15.9
		s7.1,8.4,11.2,9.4c4.1,1,9.9,4.5,9.4,2c-0.5-2.5-4.1-3-4.1-4.6c0-1.7-1-9.9-4.6-12.1C321.5,100,319.6,96.5,313.8,91z"/>
	<path class="st41" d="M351.7,424c-0.8,7.3-0.1,8.3,1.9,8.3c2,0,0.4-14.8,0-18.3s0.2-13.3-0.3-18.1c-0.5-4.8,0.1-16.2-0.9-20.1
		c-0.9-4-1.9-16.5-2.1-21s-0.8-15.1-1.1-21.6c-0.3-6.5-2.3-9.1-2.3,2.2s-0.3,14.4,0.8,15.6c1.2,1.2,0.3,11.3,0,13.2
		c-0.3,2-0.5,7.4,0.8,7.8c1.3,0.3,2.2,6.3,1.8,8.9c-0.4,2.6,1.4,14.4,1.2,15.7s0.7,9.1,0.2,12.6C351.2,412.6,352.1,419.9,351.7,424z
		"/>
	<path class="st41" d="M351.9,332.5c-0.3-8.3,2-12.7,2.7-5.8s1.4,14.1,1,19.6c-0.3,5.5,2.1,9,2,14.1c-0.2,5.1,1.5,15.4,2.3,18.3
		s0,15-1.3,14.9c-1.3-0.2-3-9.2-2.6-13.7c0.4-4.5,0-8.3-1.4-8.8c-1.4-0.5-0.2-8.3,0-11.7c0.2-3.5-0.4-8.5-1.8-13.1
		C351.9,343,351.9,334.3,351.9,332.5z"/>
	<linearGradient id="SVGID_27_" gradientUnits="userSpaceOnUse" x1="215.171" y1="64.3833" x2="292.6761" y2="102.9678">
		<stop  offset="0" style="stop-color:#F6D983"/>
		<stop  offset="1" style="stop-color:#C7A560"/>
	</linearGradient>
	<path class="st42" d="M221.9,79c-4.5,0.2-16.8,1.8-13.7,0c3.1-1.8,8.9-4.5,12.4-4.3s7.3-1.7,2.3-2.1c-5-0.5-4.5-1.7,4-1.2
		c8.4,0.5,6.1-0.6,7.1-1.8c1-1.2,6.1-0.6,7.9,0c1.8,0.6,1.3-2,0-2.8c-1.3-0.8,10.1-0.9,14.2,0.7c4.1,1.6,18.5,7.2,22.6,9.7
		c4.1,2.5,13,6.6,15.4,9.2c-5.9-1.9-5.4-2.1-6.6-1.2c-1.2,1-2.8-2.8-7.8-4.6c-5-1.8-7.4-2.1-11.2-4.3s-4.5-4.9-7.4-3.9
		c-3,1-3.1-1.8-4.3-1.8c-1.2,0-4,0.5-5.9-0.2c-1.9-0.7-4.5-1.8-5.2-0.8c-0.7,1,2.3,2.8,3.5,3.9c1.2,1.2,2,2.2-0.7,2.8
		s1.2,2.2,4.8,2.3c3.6,0.2,13.5,4.9,14.7,5.8c1.2,0.9-0.3,5.9,2.1,7.7c2.5,1.8,9.2,4,11.6,6.4c2.3,2.5,7.3,7.1,8.3,9.1
		c1,2-3.9-0.5-6.9-2.5c-3-2-11.1-7.4-13.4-8.6s-12.2-5.1-16.3-7.8s-4.7-5.6-7.5-5.8c-2.8-0.2-1.2,2.4-4.8,1.4s-5-1.2-4.8-3.8
		c0.2-2.7-2.8,0.3-6.4,0C226.2,80.3,224.5,78.9,221.9,79z"/>
	<linearGradient id="SVGID_28_" gradientUnits="userSpaceOnUse" x1="269.3324" y1="53.3518" x2="318.3728" y2="77.7657">
		<stop  offset="0" style="stop-color:#F6D983"/>
		<stop  offset="1" style="stop-color:#C7A560"/>
	</linearGradient>
	<path class="st43" d="M295.5,63.5c4.4-1,12.3-5.1,6.9-6.8s-10.1,1.2-11.6,0s-3.3-3.3-5.7-3c-2.4,0.2-12.7,2-15.7,3.2
		s-4.7,5.8-3.7,5.8c1,0,5.6,0.8,7.4,0.8c1.8,0-0.5,3.6,1.3,4c1.8,0.4,8,0.7,10.4,0c-2.4,2.1-5.2,3.7-4.1,4.2
		c1.2,0.5,5.8,0.2,7.4,0.8c1.7,0.7,0,2.5,1.2,3.8c1.2,1.3,6.3,0.7,7.9,0c1.7-0.7,7.1-1,8.3,0.8c1.2,1.7,7.8,2.2,7.1,0
		s-2.8-4.6-6.3-4.2c-3.5,0.3-10.2,2.6-8.6,1c1.7-1.7,8.8-2.6,9.2-4.3c0.5-1.7,3.5-3.2,1-5.1c-2.5-2-4.3-2.1-6.9-1.5
		c-2.6,0.7-7.9,2.3-10.6,3.1C294.1,64.3,295.5,63.5,295.5,63.5z"/>
	<linearGradient id="SVGID_29_" gradientUnits="userSpaceOnUse" x1="328.6154" y1="136.1781" x2="344.332" y2="144.0023">
		<stop  offset="0" style="stop-color:#F6D983"/>
		<stop  offset="1" style="stop-color:#C7A560"/>
	</linearGradient>
	<path class="st44" d="M334.5,145.6c-0.5-3.6-0.1-8.1,0.8-11c0.9-2.9,0.9-8.5,0.4-11.4c-0.4-3,2.1-1.5,2.1,2.1
		c0,3.6,1.9,9.2,0.7,11.8s-2.4,5.5-2.1,10.7c0.3,5.2-0.4,7.8,0.7,11C334.2,150.4,334.8,148.2,334.5,145.6z"/>
	<linearGradient id="SVGID_30_" gradientUnits="userSpaceOnUse" x1="335.3962" y1="192.5064" x2="352.13" y2="200.837">
		<stop  offset="0" style="stop-color:#F6D983"/>
		<stop  offset="1" style="stop-color:#C7A560"/>
	</linearGradient>
	<path class="st45" d="M343.8,175.6c-0.6,12.1-0.3,21.4-0.2,27.1c0.1,5.7-0.1,11.1,0.1,15.1c-2.3-9.6-1.1-14.9-1.1-17.8
		c0-3-0.9-12-0.8-13.3C341.9,185.3,343.3,179.3,343.8,175.6z"/>
	<linearGradient id="SVGID_31_" gradientUnits="userSpaceOnUse" x1="348.6518" y1="311.5647" x2="415.8284" y2="345.0075">
		<stop  offset="0" style="stop-color:#F6D983"/>
		<stop  offset="1" style="stop-color:#C7A560"/>
	</linearGradient>
	<path class="st46" d="M373,262.7c1.5,16.3,5.3,34.1,6.8,42.3c1.5,8.1,3.5,20,4.8,31c1.3,11,2,25.5,3.3,31.5
		c1.3,5.9,3.7,18.3,3.5,26.4c-3.7-23.1-7.7-31.7-7.9-37s-0.2-18-0.5-22.1c-0.3-4.1-2.5-22.1-4.3-25.9c-1.8-3.8-5.1-23-5.3-29.4
		C373.3,273,373.2,270.2,373,262.7z"/>
	<linearGradient id="SVGID_32_" gradientUnits="userSpaceOnUse" x1="348.1897" y1="298.5609" x2="359.4042" y2="304.1438">
		<stop  offset="0" style="stop-color:#F6D983"/>
		<stop  offset="1" style="stop-color:#C7A560"/>
	</linearGradient>
	<path class="st47" d="M351.4,311c0.6-3,2.3-5.9-1.2-7.8c-3.6-1.9-1.6-5.8,0.1-7s2.6-3.6,2.2-5.8c-0.4-2.2,2.1,3.1,1,4.8
		c-1.1,1.7-2.6,4.8-1.7,5.7c0.9,0.9,1.7,2.4,3.2,3.1c1.5,0.7,2.2,2.4,2.6,3.8c-1.7-3.1-3.6-4.1-4.1-3.5
		C352.9,305.1,353.5,309.8,351.4,311z"/>
	<path class="st48" d="M345.2,301.6c1.2,0.2-2-1.3-1.8,0.2s1.2,1.9,0.8,3.9c-0.4,2-0.3,8.1-0.2,10c0.1,1.9,1.2,5.9,1,8.7
		c-0.2,2.8,0.2,7.4,0.2,10.7c1.4-7.9,1.4-15.1,0.8-17c-0.6-1.9-1.7-6-1.4-7.8c0.2-1.8,1.2-5.5,0.8-6.2S343.4,301.3,345.2,301.6z"/>
</g>
</svg>
