
<svg xmlns="http://www.w3.org/2000/svg" viewBox="0 0 55 55">
	<style type="text/css">
		.st0{fill:url(#SVGID_1_);}
		.st1{fill-rule:evenodd;clip-rule:evenodd;fill:url(#SVGID_2_);}
		.st2{opacity:0.71;fill-rule:evenodd;clip-rule:evenodd;fill:#2E292F;enable-background:new    ;}
		.st3{fill-rule:evenodd;clip-rule:evenodd;fill:#FFFFF8;}
		.st4{opacity:0.45;fill-rule:evenodd;clip-rule:evenodd;fill:#626763;enable-background:new    ;}
		.st5{opacity:0.55;fill-rule:evenodd;clip-rule:evenodd;fill:#626763;enable-background:new    ;}
		.st6{opacity:0.47;fill-rule:evenodd;clip-rule:evenodd;fill:#626763;enable-background:new    ;}
		.st7{opacity:0.34;fill-rule:evenodd;clip-rule:evenodd;fill:url(#SVGID_3_);enable-background:new    ;}
		.st8{opacity:0.42;fill-rule:evenodd;clip-rule:evenodd;fill:url(#SVGID_4_);enable-background:new    ;}
		.st9{fill-rule:evenodd;clip-rule:evenodd;fill:#201114;}
		.st10{fill-rule:evenodd;clip-rule:evenodd;fill:#212025;}
		.st11{fill-rule:evenodd;clip-rule:evenodd;fill:#FFFFFF;}
		.st12{opacity:0.67;fill-rule:evenodd;clip-rule:evenodd;fill:url(#SVGID_5_);enable-background:new    ;}
		.st13{opacity:0.58;fill-rule:evenodd;clip-rule:evenodd;fill:url(#SVGID_6_);enable-background:new    ;}
		.st14{opacity:0.58;fill-rule:evenodd;clip-rule:evenodd;fill:url(#SVGID_7_);enable-background:new    ;}
		.st15{opacity:0.34;fill-rule:evenodd;clip-rule:evenodd;fill:url(#SVGID_8_);enable-background:new    ;}
		.st16{opacity:0.66;fill-rule:evenodd;clip-rule:evenodd;fill:url(#SVGID_9_);enable-background:new    ;}
		.st17{fill-rule:evenodd;clip-rule:evenodd;fill:#271D1C;}
		.st18{fill-rule:evenodd;clip-rule:evenodd;fill:#BF4032;}
		.st19{opacity:0.65;fill-rule:evenodd;clip-rule:evenodd;fill:#470D0D;enable-background:new    ;}
		.st20{opacity:0.64;fill-rule:evenodd;clip-rule:evenodd;fill:url(#SVGID_10_);enable-background:new    ;}
		.st21{opacity:0.66;fill-rule:evenodd;clip-rule:evenodd;fill:#FFC6C8;enable-background:new    ;}
		.st22{opacity:0.73;fill-rule:evenodd;clip-rule:evenodd;fill:#FFC4C5;enable-background:new    ;}
		.st23{opacity:0.74;fill-rule:evenodd;clip-rule:evenodd;fill:#FFCCCE;enable-background:new    ;}
		.st24{opacity:0.63;fill-rule:evenodd;clip-rule:evenodd;fill:#9B5331;enable-background:new    ;}
		.st25{fill:url(#SVGID_11_);}
		.st26{fill:url(#SVGID_12_);}
		.st27{fill:url(#SVGID_13_);}
		.st28{fill:url(#SVGID_14_);}
		.st29{fill:url(#SVGID_15_);}
		.st30{fill:url(#SVGID_16_);}
		.st31{fill:url(#SVGID_17_);}
		.st32{fill:url(#SVGID_18_);}
		.st33{fill:url(#SVGID_19_);}
		.st34{fill:url(#SVGID_20_);}
		.st35{fill:url(#SVGID_21_);}
		.st36{fill:url(#SVGID_22_);}
		.st37{fill:url(#SVGID_23_);}
		.st38{fill:url(#SVGID_24_);}
		.st39{fill:url(#SVGID_25_);}
		.st40{fill:url(#SVGID_26_);}
		.st41{fill:#80663B;}
		.st42{fill:url(#SVGID_27_);}
		.st43{fill:url(#SVGID_28_);}
		.st44{fill:url(#SVGID_29_);}
		.st45{fill:url(#SVGID_30_);}
		.st46{fill:url(#SVGID_31_);}
		.st47{fill:url(#SVGID_32_);}
		.st48{fill:#DBB460;}
	</style>
	<path d="M43.9,52.9H11.1c-5,0-9.1-4.1-9.1-9.1V11.1C2,6.1,6.1,2,11.1,2h32.7c5,0,9.1,4.1,9.1,9.1v32.7C53,48.9,48.9,52.9,43.9,52.9z
		"/>
	<g id="Face">
		
			<linearGradient id="SVGID_1_" gradientUnits="userSpaceOnUse" x1="8.5583" y1="29.606" x2="30.3284" y2="23.2198" gradientTransform="matrix(1 0 0 -1 0 56)">
			<stop  offset="0" style="stop-color:#FCD2BA"/>
			<stop  offset="0.2149" style="stop-color:#CD8B5D"/>
			<stop  offset="0.5056" style="stop-color:#B4855E"/>
			<stop  offset="0.7707" style="stop-color:#845A44"/>
			<stop  offset="1" style="stop-color:#3D2822"/>
		</linearGradient>
		<path class="st0" d="M33.2,37.2c-1.3-2.6-2.5-5-2.4-5.4c0.1-0.4-0.3-0.8,0-1c0.3-0.2,1.1-0.4,1.1-0.7c0,0,0,0,0,0
			c-0.2-0.3-1.1-1.4-2-2.5c-0.9-0.9-3.5-3.7-4.6-4.7c-1.1-1-2.3-2.2-3.3-3c0,0,0,0,0,0c-0.1-0.1-0.3-0.2-0.5-0.3
			c-0.6-0.4-1.7-1-2.6-1.5c-0.4-0.2-0.8-0.4-1.2-0.6c0,0,0,0,0,0c-0.7-0.3-1.9-0.9-2.6-1.1c-0.1,0-0.2-0.1-0.3-0.1
			c-0.4-0.1-0.9-0.1-1.3,0c-0.2,0.1-0.4,0.2-0.6,0.3c-0.2,0.2-0.5,0.3-0.6,0.5c-0.3,0.3-0.6,0.6-0.7,0.9c-0.4,0.8-1,2.1-0.9,2.7
			c0.1,0.5,0.2,1,0.5,1c-0.1,0.1-0.1,0.3-0.1,0.5c0.2,0,0,0.4-0.1,0.5c-0.1,0.3-0.1,0.6-0.1,0.9c-0.8,1.1-0.6,3.3-0.6,4
			c0,0.6,0.4,2.2,0.5,3c0.1,0.7,0.2,1.8,0.6,2.6c0.4,0.8,1,2.4,1.1,3c0.1,0.6,0.3,1.4,0.6,1.8c0.4,0.4,0.9,0.7,1.3,0.9
			c0.3,0.2,1,0.6,2.5,0.5c0.9-0.1,1.9-0.3,2.6-0.4c0.1,0.1,0.6,1,0.9,1.4c0.2,0.5,0.6,1.7,0.6,1.7s0.7-0.3,0.9-0.5s1.4-1.1,2.2-1.5
			c0.8-0.4,3.7-1.1,4.5-1.3c0.8-0.3,2.2-0.8,3.1-1.1S33.2,37.2,33.2,37.2z"/>
		
			<linearGradient id="SVGID_2_" gradientUnits="userSpaceOnUse" x1="20.9172" y1="28.819" x2="31.6324" y2="17.7509" gradientTransform="matrix(1 0 0 -1 0 56)">
			<stop  offset="0" style="stop-color:#312624"/>
			<stop  offset="1" style="stop-color:#181216"/>
		</linearGradient>
		<path class="st1" d="M20,18.5c2.2,1.1,3.1,2,4.9,3.8c1.2,1.2,3.5,3.5,4.4,4.4s2.4,2.9,2.7,3.2s-0.1,0.6-0.5,0.7
			c-0.3,0.1-0.4,0.2-0.6,0.3c-0.2,0.1,0,0.5,0,0.7c0,0.2-0.1,0.4,0,0.7c0.1,0.2,2,4.4,2.3,5c-1.1,0.3-1.9,0.5-2.2,0.6
			c-4.2,1.6-7,2.1-5.2,1c1.9-1.2,1.7-2.3,0.7-1.9c-1,0.4-2.7,1.2-3.6,1.5c1.3-0.7,2.5-1.3,2.8-1.5c0.5-0.3,1.4-0.8,1.3-1.3
			c-0.1-0.5-0.7-1-0.7-1.3c0-0.3,0.7-0.8,0.6-1.1c0-0.3-0.1-0.3-1-0.4c-1-0.1-0.5-0.6-0.3-1c0.2-0.4,0.2-0.9-0.2-0.7
			c-0.4,0.2-0.4,1-0.8,1.1c-0.4,0.1-1.4,0.3-1.6-0.2c-0.2-0.5,0-2,0.5-2.5s1.5-1.6,1.4-2.5c-0.1-0.8-0.1-1.2-0.5-1.5
			c-0.4-0.3-0.8,0.1-1.2,0.1c-0.3,0-0.9-0.1-0.8-0.4c0.1-0.4,0.6-1,0.7-1.2c0.2-0.3,0.4-1.2,0.2-1.9C23.2,20.8,21.6,19.3,20,18.5z"/>
		<circle class="st2" cx="29.9" cy="36.1" r="1.9"/>
		<path class="st3" d="M29.6,34.7c-0.3,0.2-0.5,0.5-0.3,0.7c0.2,0.2,0.4,0.7-0.1,0.8c-0.4,0.1-0.8-0.2-0.7-0.6
			c0.1-0.3,0.2-0.5,0.3-0.6c0.1-0.1,0.2-0.2,0.4-0.3C29.4,34.6,29.8,34.6,29.6,34.7z"/>
		<path class="st4" d="M31.1,36.5c-0.3,0.2-0.6,0.4-0.9,0.3c-0.3,0-0.4-0.2-0.6-0.2c-0.3,0-0.4,0.3-0.4,0.5c0,0.1,0.2,0.6,0.8,0.5
			c0.6-0.1,1-0.4,1.2-0.7C31.4,36.7,31.4,36.4,31.1,36.5z"/>
		<path class="st5" d="M30.3,35.1c-0.2-0.1-0.4,0-0.3,0.1c0.1,0.1,0.2,0.2,0.3,0.2C30.4,35.4,30.6,35.3,30.3,35.1z"/>
		<path class="st6" d="M29.7,35.8c0,0.2-0.1,0.2-0.1,0.3c0,0.1,0.3,0.1,0.4-0.1c0.1-0.2,0-0.4-0.1-0.6c-0.1-0.1-0.4-0.2-0.4-0.2
			C29.4,35.3,29.7,35.5,29.7,35.8z"/>
		
			<linearGradient id="SVGID_3_" gradientUnits="userSpaceOnUse" x1="15.1595" y1="39.1822" x2="12.793" y2="17.3099" gradientTransform="matrix(1 0 0 -1 0 56)">
			<stop  offset="0" style="stop-color:#EFD5C0;stop-opacity:0.6"/>
			<stop  offset="0.193" style="stop-color:#FFEBBF;stop-opacity:0.7"/>
			<stop  offset="0.4599" style="stop-color:#F2B99C;stop-opacity:0.8"/>
			<stop  offset="1" style="stop-color:#F4CD9E"/>
		</linearGradient>
		<path class="st7" d="M17.1,17.3c-0.7-0.4-1.7-0.9-2.5-0.9c-0.9,0-1.5,0.1-2.4,1.4c-0.9,1.3,0,1.9,0.5,2.4c0.5,0.4,1.1,1.3,1.2,1.7
			c0.1,0.5,0.3,1.5,0.2,1.8c-0.1,0.4-0.1,0.9-0.4,1.1c-0.3,0.2-0.7,0.9-1,0.8c-0.3,0-0.8-0.4-0.9-0.8c-0.1-0.4-0.6-0.9-0.7-1
			c0-0.1-0.4,0.9-0.4,1.5c0,0.6-0.1,2,0,2.4c0.1,0.7,0.5,3.1,0.5,3.4c0,0.4,0.4,1.6,0.6,2c0.2,0.4,0.5,1.3,0.7,1.7
			c0.2,0.5,0.4,1.1,0.4,1.4c0,0.2,0.2,1.1,0.5,1.5c0.3,0.3,0.8,0.7,1.1,0.9c0.3,0.1,0.7,0.3,1,0.4c0.2,0.1,0-0.5-0.4-0.9
			c-0.4-0.5,0.2-0.4,0.2-0.7c0.1-0.3-0.2-0.8-0.7-1c-0.5-0.2-1-0.2-1.3-0.5c-0.3-0.3-0.8-1.2-0.8-1.5c0-0.3,0.3-0.8,0.1-1
			c-0.1-0.1-0.8-0.6-0.5-1.1s0.9,0,1.1,0.1c0.2,0.1,0.8,0,0.6-0.5c-0.1-0.6,0-0.9-0.2-1c-0.2-0.1-1.5-0.5-1.5-1
			c0-0.5,0.8-1.2,0.9-1.5c0.1-0.3,0.5-1.2,0.8-1.7s1.1-1.9,1-2.9c0-0.9,0-2,0.7-2.5c0.7-0.6,1.3-0.6,1.7-0.6c0.4,0.1,0.8-0.1,0.7-0.3
			c0-0.2-0.6-0.8-1-0.7c-0.4,0.1-0.9-0.4-0.7-0.9s0.5-0.6,0.8-0.4c0.3,0.2,0.5,1.1,1,1.1s0.2-1.3-0.4-1.8
			C17.2,17.3,17.1,17.3,17.1,17.3z"/>
		
			<linearGradient id="SVGID_4_" gradientUnits="userSpaceOnUse" x1="18.2268" y1="34.9526" x2="14.1566" y2="24.5425" gradientTransform="matrix(1 0 0 -1 0 56)">
			<stop  offset="0" style="stop-color:#9E755A"/>
			<stop  offset="0.5239" style="stop-color:#956048"/>
			<stop  offset="1" style="stop-color:#714936"/>
		</linearGradient>
		<path class="st8" d="M13.4,30.7c-0.4-0.2-0.9-0.3-0.9-0.6c0-0.3,0.4-1,0.6-1.2c0.3-0.2,0.3-0.9,0.6-1.5c0.3-0.6,0.7-1.2,0.8-1.5
			c0.2-0.4,0.6-1.2,0.6-1.7c0-0.5-0.1-1.3,0-1.7c0.1-0.4,0.6-1,1.3-1.2c0.7-0.2,2-0.3,2.5,0c0.4,0.3,0.2,0.2,0.5,0.4
			c0.3,0.1-0.2,0.6-0.6,0.6c-0.4,0-0.8,0-1,0.2c-0.2,0.2-0.8,1-1,1c-0.2,0.1-0.5,0.6-0.5,1c0,0.4,0.5,1,0.5,1.5
			c-0.1,0.5-0.6,2-0.3,2.6c0.3,0.6,0.7,1.2,0.6,1.7c-0.1,0.6-0.5,0.8-0.7,0.8s-0.5-0.2-0.6-0.1c-0.1,0.1,0.1,0.7-0.4,0.6
			c-0.6-0.2-1-0.1-1.1-0.4c-0.1-0.2,0.1-0.4-0.2-0.5C13.7,30.8,13.4,30.7,13.4,30.7z"/>
		<path class="st9" d="M14.6,30.4c-0.5-0.2-1.5-0.2-1.3,0c0.2,0.2,0.7,0.2,0.9,0.4c0.2,0.1,0.6,0.2,0.8,0.2S14.9,30.6,14.6,30.4z"/>
		<path class="st10" d="M11.3,22.8c0.2-0.2,0.4-0.4,0.7-0.4c0.3,0,0.3,0,0.4,0c-0.2,0.1-0.4,0.4-0.3,0.8c0.1,0.2,0.2,0.5,0.4,0.6
			c0.3,0.1,0.7,0.1,0.8,0c0.1,0,0.4-0.1,0.4-0.3c0-0.2,0-0.7-0.6-1.1c-0.5-0.3-0.9-0.3-1.3-0.2C11.5,22.3,11.3,22.6,11.3,22.8z"/>
		<circle class="st11" cx="12.5" cy="22.8" r="0.2"/>
		<path class="st11" d="M11.3,22.8c0.2-0.3,0.4-0.4,0.7-0.4c0.3,0,0.4,0,0.3,0.1c-0.1,0.1-0.2,0.3-0.3,0.4c0,0.3,0,0.7,0.4,0.9
			c-0.7-0.1-1.1-0.5-1.2-0.7S11.3,22.8,11.3,22.8z"/>
		<path class="st10" d="M19.1,23.6c-0.4,0,0,0.1,0.2,0.2c0.3,0.1,0.4,0.3,0.2,0.4c-0.1,0.1-0.2,0.1-0.4,0c-0.1,0.3,0,0.8,0.2,0.9
			s0.6,0.3,1.1,0.2s0.9-0.4,1-0.5c-0.4-0.4-0.7-0.8-1.2-1C19.8,23.7,19.3,23.6,19.1,23.6z"/>
		<path class="st11" d="M18.7,23.6c-0.2,0-0.6,0.1-0.9,0.3c0.3,0.6,0.7,0.9,0.9,1c0.1,0,0.7,0.3,0.8,0.3c-0.5-0.4-0.4-0.7-0.4-1.1
			c0.2,0.1,0.4,0,0.4-0.1C19.6,24,19.4,23.7,18.7,23.6z"/>
		
			<linearGradient id="SVGID_5_" gradientUnits="userSpaceOnUse" x1="21.3809" y1="23.9903" x2="26.7772" y2="19.9921" gradientTransform="matrix(1 0 0 -1 0 56)">
			<stop  offset="0" style="stop-color:#8B5D46"/>
			<stop  offset="1" style="stop-color:#4D3524"/>
		</linearGradient>
		<path class="st12" d="M22.7,31.2c0.1-0.7,0.5-2.3-0.4-0.1c0,1-0.4,1.5-0.9,1.7c-0.5,0.1-0.4,0.7-0.7,0.9c-0.3,0.1-1.2,0.4-0.7,0.7
			c0.5,0.3,1,0.6,0.6,0.9c-0.4,0.4,0.8,0.3,1,0.5c0.2,0.2,1,0.4,1.5,0.1c0.5-0.2,0.9-1,0.6-1.4c-0.3-0.5-0.4-1,0.3-1
			c0.7-0.1,1.8-0.3,1.7,0c-0.1,0.4-0.6,0.8-0.4,1c0.2,0.1,1.1,0.4,1.1,0.9s-0.5,1-0.8,1.2c0.9-0.2,1.3-0.7,1.3-0.9c0-0.1,0-0.6-0.5-1
			c-0.6-0.4,0.1-0.9,0.1-1s0-0.5,0.1-0.6c0.2-0.1-0.2-0.3-0.8-0.3c-0.6-0.1-0.6-0.5-0.5-0.8c0.1-0.3,0.4-1.3-0.2-0.7
			c-0.6,0.6-0.9,1-1.2,1.1C23.7,32.5,22.6,32.4,22.7,31.2z"/>
		
			<linearGradient id="SVGID_6_" gradientUnits="userSpaceOnUse" x1="21.0033" y1="32.813" x2="19.9446" y2="30.1054" gradientTransform="matrix(1 0 0 -1 0 56)">
			<stop  offset="0" style="stop-color:#815F4D"/>
			<stop  offset="1" style="stop-color:#452623"/>
		</linearGradient>
		<path class="st13" d="M19.8,22.7c0.5,0.5,1.1,0.8,0.9,0.9c-0.2,0.1-0.5-0.1-1-0.1c-0.4,0-0.9,0-1.2,0c0.9,0,1.8,0.3,2.1,0.5
			c0.3,0.2,0.8,0.7,0.9,0.9c-0.3,0.3-0.5,0.4-0.7,0.4c0.4,0.1,0.4,0.3-0.1,0.5c-0.5,0.3-0.4,0.4,0.3,0.1c0.7-0.2,0.5-0.6,0.8-0.6
			c0.2,0,0.4-0.1,0.7,0.1c-0.4-0.5-0.2-0.6-0.2-0.8c0-0.2-0.6-0.8-1.2-1.2C20.5,23,20.5,23,19.8,22.7z"/>
		
			<linearGradient id="SVGID_7_" gradientUnits="userSpaceOnUse" x1="16.6084" y1="30.5089" x2="24.2975" y2="23.7445" gradientTransform="matrix(1 0 0 -1 0 56)">
			<stop  offset="0" style="stop-color:#DEA970"/>
			<stop  offset="0.5243" style="stop-color:#EAAC72;stop-opacity:0.51"/>
			<stop  offset="1" style="stop-color:#A36D4B"/>
		</linearGradient>
		<path class="st14" d="M19.8,25.8c-0.5-0.1-0.9-0.5-1-0.2c-0.1,0.2-0.1,0.6,0,0.7c0.1,0.1,0.5,0.7,1,0.8c0.5,0.1,1.4,0,2-0.6
			c0.6-0.6,0.7-0.8,1.6-0.6c0.9,0.1,1.6,0.6,1,1.7c-0.6,1.1-2.9,2.1-3.2,2.7c-0.3,0.5-0.1,0.7,0.1,0.7c0.1,0.1,1.1,0.4,0.5,1
			c-0.6,0.6-1.1,0.9-1.4,0.9c-0.3,0-1.3-0.6-1.4-0.3c-0.1,0.3,0.3,1.1,0.4,1.3c-1-0.6-1.3-1.2-1.4-1.7c-0.1-0.5-0.7-0.7-0.6-1.4
			c0-0.7-0.1-0.9-0.2-1.2c-0.1-0.3-0.6-0.9-0.5-1c0.1-0.1,0.7,0,0.5-0.6c-0.2-0.6-0.2-1-0.1-1.3c0.1-0.3,0.3-0.8,0-1.2
			c-0.3-0.4,0.1-0.8,0.5-0.8c0.4,0,1,0.3,1.3,0.5c0.3,0.2,0.7,0.3,1,0.4s1-0.1,1.1,0c0.1,0,0,0.3-0.3,0.3
			C20.3,25.8,20.3,25.9,19.8,25.8z"/>
		
			<linearGradient id="SVGID_8_" gradientUnits="userSpaceOnUse" x1="11.9611" y1="35.6992" x2="13.2879" y2="34.8314" gradientTransform="matrix(1 0 0 -1 0 56)">
			<stop  offset="0" style="stop-color:#B59B84"/>
			<stop  offset="1" style="stop-color:#D4AA8A"/>
		</linearGradient>
		<path class="st15" d="M11.6,19c-0.2,0.5-0.5,1.1-0.5,1.5c0,0.3,0,0.5,0.3,0.5s0.3-0.6,0.7-0.5c0.4,0.1,1,0.4,1.1,0.6
			C12,20,11.6,19.6,11.6,19z"/>
		
			<linearGradient id="SVGID_9_" gradientUnits="userSpaceOnUse" x1="20.6132" y1="35.4276" x2="18.7013" y2="30.5378" gradientTransform="matrix(1 0 0 -1 0 56)">
			<stop  offset="0" style="stop-color:#D7AA80"/>
			<stop  offset="1" style="stop-color:#815949"/>
		</linearGradient>
		<path class="st16" d="M18,17.8c1.4,0.6,3.8,2.2,4.2,2.8c0.5,0.6,1.5,1.4,0.8,3.2c-0.4,0.7-0.8,0.2-1.3-0.1
			c-0.5-0.4-0.9-1.3-1.5-1.7c-0.5-0.5-1.2-0.9-1.9-0.9c0.5-0.3,0.3-0.6-0.2-0.9c-0.5-0.3,0.5,0.3,0.6-0.8
			C18.8,18.5,18.5,18.1,18,17.8z"/>
		<path class="st17" d="M22.7,38.4c0.6-0.1,1,0.2,1,0.5c0,0.3-0.3,0.2-0.6,0.1c-0.3-0.1-0.9-0.1-1,0.1c-0.1,0.2-0.7,0.3-1,0.1
			c-0.3-0.1-0.9-0.2-0.8,0.2c0.1,0.3,0.9,2,1.2,2c0.4,0.1,0.6-0.1,0.9-0.2c-0.7,0.6-0.8,0.6-1.2,0.8c-0.1-0.7-0.5-1.4-0.8-2
			c-0.3-0.6-0.5-0.9-0.6-1C21.7,38.9,22.2,38.5,22.7,38.4z"/>
		<path class="st18" d="M12.9,33.5c-0.6-0.3-0.8-1-0.1-1c0.6,0,0.7,0.3,0.9,0.4c0.5,0.2,0.8,0,1.1,0c0.5,0.1,1.2,0.6,1.4,0.7
			c0.1,0.1,1.1,0.5,1.5,0.6c0.4,0.1,0.6,0.2,0.2,0.4c-0.4,0.2-1,1.4-2.1,1.5c-1.1,0-2-0.4-2.3-0.7C13,35.1,12.5,34.6,12.9,33.5z"/>
		<path class="st19" d="M14.1,33.7c-0.4,0-0.6,0-0.9-0.2c-0.3-0.3-0.3-0.1-0.1,0.1c0.1,0.2,0.5,0.1,0.5,0.3c0.1,0.2,0.3,0.6,0.7,0.6
			c0.4,0.1,1,0,1.5,0.1c0.5,0.1,0.9,0.2,1.1,0.1c-0.8,0-1.1-0.2-1.5-0.3c-0.4-0.1-1,0-1.2-0.2C14.1,34,14,33.8,14.1,33.7z"/>
		
			<linearGradient id="SVGID_10_" gradientUnits="userSpaceOnUse" x1="14.2513" y1="21.3516" x2="13.7452" y2="20.2069" gradientTransform="matrix(1 0 0 -1 0 56)">
			<stop  offset="0" style="stop-color:#BF7F5B"/>
			<stop  offset="0.5102" style="stop-color:#E29C74"/>
			<stop  offset="1" style="stop-color:#B95F48"/>
		</linearGradient>
		<path class="st20" d="M14.8,34.7c-0.2,0-0.5,0.1-0.7-0.1c-0.1,0-0.4-0.3-0.6-0.3c-0.3,0-0.5,0-0.5,0.3c0,0.3,0.2,0.5,0.5,0.8
			c0.3,0.2,0.6,0.4,0.7,0.4c0.2,0.1,0.7,0,0.7-0.1c0.1-0.4,0.2-0.3,0.3-0.5C15.3,35.2,15.2,34.7,14.8,34.7z"/>
		<path class="st21" d="M14.7,34.9c-0.2,0-0.4,0.2-0.3,0.3c0.1,0.1,0.2,0.1,0.2,0.3s0.2,0.1,0.3-0.1c0.1-0.2,0.2-0.1,0.2-0.3
			c0-0.2-0.2-0.1-0.3-0.2C14.8,35,14.9,34.8,14.7,34.9z"/>
		<path class="st22" d="M13.8,34.6c-0.1-0.2-0.3-0.3-0.3-0.1c0,0.2,0,0.3,0.1,0.4c0.1,0.1,0.3,0.1,0.3,0.1
			C13.8,34.9,13.8,34.8,13.8,34.6z"/>
		<path class="st23" d="M17.5,34.6c-0.2,0-0.4,0-0.4,0.2c0,0.2,0.1,0.2,0.1,0.1c0,0,0.3-0.3,0.4-0.3C17.8,34.6,17.6,34.6,17.5,34.6z"
			/>
		<path class="st24" d="M14.8,33.7c-0.3-0.1-0.6-0.2-0.7-0.1C14,33.7,14,34,14.3,34.1c0.3,0.1,0.8,0.2,1,0.2c0.2,0,0.7,0.2,1,0.3
			c0.3,0,0.7,0.1,0.8,0c0.1-0.1-0.7-0.3-1.1-0.4C15.5,34.1,15.1,33.8,14.8,33.7z"/>
	</g>
	<g id="Jacket">
		
			<linearGradient id="SVGID_11_" gradientUnits="userSpaceOnUse" x1="20.7139" y1="5.0392" x2="26.8519" y2="5.0392" gradientTransform="matrix(1 0 0 -1 0 56)">
			<stop  offset="0" style="stop-color:#986C34"/>
			<stop  offset="1" style="stop-color:#68492F"/>
		</linearGradient>
		<path class="st25" d="M27.8,49.2c-0.2-0.1-1.3-0.1-1.6-0.1c-0.3-0.1-1.1,0-1.5,0c-0.4,0,0,0.4,0,0.5s-0.6,0.4-1,0.4
			c-0.5,0,0.3,0.7,0,0.7c-0.3,0-0.6,0.1-1.5,0.3c0.3-0.1,0.5-0.4,0.9-0.5c0.4-0.1-0.1-0.5,0.2-0.6c0.3-0.1,0.3-0.1,0.7-0.5
			c0.4-0.4-0.5-0.1-0.8-0.1s-1.7,0.9-1.6,1.1c0.1,0.3-0.2,0.3-0.4,0.6c-0.2,0.2-0.5,0.6,0.2,1.1c-0.4,0.3-1,0.3-1.4,0.5
			c-0.2,0.1-0.4,0.3-0.6,0.5h9.3c0-0.1,0-0.2,0-0.4c0.2-0.5-0.2-0.8-0.3-1.1s0-0.5,0.1-0.8s-0.3-0.4-0.2-0.7S28,49.3,27.8,49.2z"/>
		
			<linearGradient id="SVGID_12_" gradientUnits="userSpaceOnUse" x1="17.8356" y1="8.9783" x2="25.6391" y2="8.9783" gradientTransform="matrix(1 0 0 -1 0 56)">
			<stop  offset="0" style="stop-color:#986C34"/>
			<stop  offset="1" style="stop-color:#68492F"/>
		</linearGradient>
		<path class="st26" d="M18.9,52.9c0.1-0.1,0.2-0.3,0.3-0.4c0.4-0.4-0.5-0.3-0.6-0.5s0.6-0.6,0.9-0.9c0.3-0.3-0.2-0.3-0.6-0.4
			c-0.3-0.1-0.4,0.5-0.6,0.6c-0.2,0.2-0.2-1.2,0-1.3c0.2,0,0.2-0.9,0.7-0.9c0.5,0,0,0.6-0.1,0.9c-0.2,0.3,0.4,0.4,0.7,0.3
			s0.6-0.2,0.8-1.1c0,0.6,0.4,1,0.6,0.8c0.2-0.2,0.3-0.7,0.6-0.6c0.3,0.1,1.3-0.5,1.5-0.7c0.2-0.3,1.7-0.2,2.2-0.3s1.1,0.3,1.7,0.3
			s0.4-0.2,0.5-0.6c0.1-0.4-0.1-1-0.7-1c-0.6,0-0.6-0.3-0.8-0.7s0.2-1.2,0.3-1.5c0.1-0.3,0.8-0.5,1.1-0.5c0.4,0.1,0.3-0.4,0.4-1
			c0.1-0.6-0.4-1.2-0.4-1.5c0-0.3,1.2-1.1,0-1.1c-0.2,0-0.3,0.1-0.4,0.1c-0.4,0.1-0.6,0.5-0.8,0.6s-0.9,0.3-1.2,0.5
			c-0.2,0.1-0.5,0.7-1.2,0.9c-0.7,0.2-1.2,0.7-1.5,0.7c-0.3,0.1-0.7,0.6-1.1,1s-0.7,0.3-0.8,0.7c-0.1,0.3-0.5,0.8-0.9,1
			s-0.8,0.5-1.1,0.7c-0.2,0.1,0,0.5-0.3,0.7c-0.3,0.2-0.5,0.8-0.6,1.3c-0.1,0.5-0.5,1.5-1,2.2c-0.2,0.3-0.4,0.8-0.5,1.4L18.9,52.9
			L18.9,52.9z"/>
		
			<linearGradient id="SVGID_13_" gradientUnits="userSpaceOnUse" x1="18.1044" y1="9.1349" x2="30.8305" y2="9.1349" gradientTransform="matrix(1 0 0 -1 0 56)">
			<stop  offset="0" style="stop-color:#885A3A"/>
			<stop  offset="0.4769" style="stop-color:#67432B"/>
			<stop  offset="1" style="stop-color:#4A3E2F"/>
		</linearGradient>
		<path class="st27" d="M18.3,51.4c0.2-0.2,0.3-0.8,0.6-0.6c0.3,0.1,0.9,0.1,0.6,0.4c-0.3,0.3-1.1,0.7-0.9,0.9s1,0.1,0.6,0.5
			c-0.1,0.1-0.2,0.3-0.3,0.4h0.5c0.3-0.2,0.4-0.4,0.6-0.5c0.3-0.1,1-0.2,1.4-0.5c-0.6-0.4-0.4-0.8-0.2-1.1c0.2-0.2,0.6-0.3,0.4-0.6
			c-0.1-0.3,1.3-1.1,1.6-1.1c0.3,0,1.1-0.2,0.8,0.1c-0.4,0.4-0.4,0.3-0.7,0.5c-0.3,0.2,0.2,0.5-0.2,0.6c-0.4,0.1-0.6,0.4-0.9,0.5
			c0.9-0.2,1.2-0.3,1.5-0.3c0.3,0-0.5-0.7,0-0.7c0.5,0,1-0.2,1-0.4c0-0.2-0.3-0.5,0-0.5c0.4,0,1.2-0.1,1.5,0c0.3,0.1,1.5,0,1.6,0.1
			c0.2,0.1,0.6,0.6,0.5,0.8c-0.1,0.2,0.4,0.3,0.2,0.7s-0.2,0.6-0.1,0.8s0.5,0.6,0.3,1.1c0,0.1,0,0.3,0,0.4h2c0.1-0.1,0.1-0.2,0.2-0.2
			c0.2-0.3-0.4-0.2-0.8-0.2c-0.4,0-0.5-1.2-0.8-1.7c-0.3-0.6,0.1-1.4,0.5-2.3c-0.4,0-0.5,0.5-0.7,0.8c-0.3,0.2-0.5-0.5-0.8-0.7
			s0.2-0.9,0.5-1.4c0.3-0.6-0.8-0.3-1.2-0.4c-0.4-0.2-0.1-1,0.3-1.1c0.4-0.1,0.6-0.6,0.9-1.2c0.3-0.6-0.3-1.6-0.4-2.2
			c-0.1-0.5,0.3-0.7,0.4-1.5c0-0.1-0.6,0.2-1,0.3c1.2,0,0,0.8,0,1.1c0,0.3,0.5,0.9,0.4,1.5c-0.1,0.6,0,1.1-0.4,1
			c-0.4-0.1-1,0.2-1.1,0.5c-0.1,0.3-0.5,1.1-0.3,1.5c0.2,0.4,0.1,0.7,0.8,0.7s0.8,0.6,0.7,1c-0.1,0.4,0,0.6-0.5,0.6s-1.1-0.3-1.7-0.3
			s-2,0-2.2,0.3c-0.2,0.3-1.1,0.8-1.5,0.7c-0.3-0.1-0.4,0.4-0.6,0.6c-0.2,0.2-0.7-0.2-0.6-0.8c-0.3,0.9-0.5,1-0.8,1.1
			c-0.3,0.1-0.9,0-0.7-0.3c0.2-0.3,0.6-0.9,0.1-0.9c-0.5,0-0.5,0.8-0.7,0.9C18,50.2,18,51.6,18.3,51.4z"/>
		
			<linearGradient id="SVGID_14_" gradientUnits="userSpaceOnUse" x1="27.233" y1="10.0773" x2="39.1494" y2="10.0773" gradientTransform="matrix(1 0 0 -1 0 56)">
			<stop  offset="0" style="stop-color:#3C2F26"/>
			<stop  offset="1" style="stop-color:#1E1212"/>
		</linearGradient>
		<path class="st28" d="M27.4,46.7c0.4,0.2,1.4-0.1,1.2,0.4c-0.3,0.6-0.8,1.2-0.5,1.4c0.3,0.3,0.6,0.9,0.8,0.7
			c0.3-0.2,0.4-0.8,0.7-0.8c-0.3,0.9-0.7,1.7-0.5,2.3c0.3,0.6,0.3,1.8,0.8,1.7c0.4,0,1-0.1,0.8,0.2c0,0.1-0.1,0.1-0.2,0.2h8.5
			c0-0.2,0-0.4,0-0.6c0-0.7-0.2-1.3-0.1-2c0.1-0.7,0.2-1.6,0.1-2c-0.1-0.4-0.2-2.5-0.2-3.4c0-0.8-0.2-1.8-0.3-2.5s-0.3-2.7-0.3-3.2
			c0-0.1,0-0.2,0-0.3l0,0c0,0-1.4,0-1.9,0c-0.5,0.1-2.1,0.1-2.5,0.3s-1.7,0.3-2.2,0.6c-0.4,0.2-1.2,0.6-1.6,0.6s-1.5,0.3-1.7,0.4
			c-0.1,0.8-0.5,1-0.4,1.5c0.1,0.5,0.7,1.6,0.4,2.2c-0.3,0.6-0.5,1.1-0.9,1.2C27.3,45.7,27,46.5,27.4,46.7z"/>
	</g>
	<g id="White">
		
			<linearGradient id="SVGID_15_" gradientUnits="userSpaceOnUse" x1="21.6477" y1="12.4035" x2="30.3423" y2="16.6169" gradientTransform="matrix(1 0 0 -1 0 56)">
			<stop  offset="0" style="stop-color:#FFFEFB"/>
			<stop  offset="1" style="stop-color:#FBFBF9"/>
		</linearGradient>
		<path class="st29" d="M29.8,40.4c0.2-0.1,0.2-0.5,0.6-0.6c0.4-0.1,0.4-0.4,0.8-0.5c0.4-0.1,0.7-0.1,0.4,0.1
			c-0.2,0.2,0.1,0.2,0.3,0.1c0.2-0.1,0.5-0.3,0.7-0.3c0.3-0.1,0.3-0.2,0.3-0.3c0-0.1-0.9-0.3-1.4-0.3c-0.5,0-1.3-0.1-1.7,0.1
			c-0.4,0.1-1.2,0.6-1.6,0.6c-0.4,0-0.7,0.1-1.2,0c-1.1,0.3-2.2,0.6-2.7,0.8c-0.8,0.4-1.9,1.2-2.2,1.5c-0.2,0.2-0.6,0.4-0.8,0.5
			c-0.3,0.3-0.9,1.2-1,1.3s-0.7,0.7-1,1.1c-0.2,0.4-0.7,1.8-0.8,2.9c0.3-0.2,0.8-0.4,1.1-0.7c0.4-0.3,0.8-0.7,0.9-1
			c0.1-0.3,0.4-0.3,0.8-0.7s0.9-0.9,1.1-1c0.3-0.1,0.8-0.6,1.5-0.7c0.7-0.2,0.9-0.7,1.2-0.9c0.2-0.1,1-0.3,1.2-0.5
			c0.2-0.1,0.4-0.5,0.8-0.6c0.1,0,0.2-0.1,0.3-0.1C29,40.5,29.6,40.5,29.8,40.4z"/>
		
			<linearGradient id="SVGID_16_" gradientUnits="userSpaceOnUse" x1="26.9072" y1="16.8858" x2="36.6139" y2="16.8858" gradientTransform="matrix(1 0 0 -1 0 56)">
			<stop  offset="0" style="stop-color:#C0C8D4"/>
			<stop  offset="1" style="stop-color:#524C3F"/>
		</linearGradient>
		<path class="st30" d="M36.2,38.5c-0.5,0-0.6-0.1-0.4-0.2s0.4-0.5,0.1-0.7c-0.3-0.2-0.6-0.5-0.9-0.5c-0.6,0-1.2,0-1.7,0.1
			c0,0-0.3,0.1-1.3,0.4c-1,0.3-2.4,0.9-3.1,1.1c-0.5,0.2-0.7,0.2-1.9,0.5c0.6,0.1,0.9,0,1.3,0c0.4,0,1.2-0.5,1.6-0.6
			c0.4-0.1,1.1,0,1.7-0.1s1.4,0.1,1.4,0.3c0,0.1-0.1,0.3-0.3,0.3c-0.3,0.1-0.5,0.2-0.7,0.3c-0.2,0.1-0.5,0-0.3-0.1
			c0.3-0.2,0-0.2-0.4-0.1c-0.4,0.1-0.4,0.4-0.8,0.5c-0.4,0.1-0.4,0.5-0.6,0.6c-0.2,0.1-0.8,0.2-2.4,0.7c0.4-0.1,1-0.3,1.2-0.3
			c0.1-0.1,1.3-0.3,1.7-0.4c0.4,0,1.2-0.4,1.6-0.6c0.4-0.2,1.7-0.4,2.2-0.6c0.4-0.1,2-0.2,2.5-0.3C36.7,38.6,36.7,38.5,36.2,38.5z"/>
		
			<linearGradient id="SVGID_17_" gradientUnits="userSpaceOnUse" x1="34.8632" y1="17.9706" x2="38.3836" y2="17.9706" gradientTransform="matrix(1 0 0 -1 0 56)">
			<stop  offset="0" style="stop-color:#2D2E33"/>
			<stop  offset="1" style="stop-color:#1C1B23"/>
		</linearGradient>
		<path class="st31" d="M34.9,37.1c-0.5-0.1,2,0.2,3.3,0.2c0,0.6,0.1,1.2,0.1,1.6l0,0c0,0-1.4,0-1.9,0c0.2-0.4,0.2-0.5-0.3-0.5
			s-0.6-0.1-0.4-0.2c0.2-0.1,0.4-0.5,0.1-0.7C35.5,37.4,35.3,37.1,34.9,37.1z"/>
	</g>
	<g id="Blue">
		
			<linearGradient id="SVGID_18_" gradientUnits="userSpaceOnUse" x1="29.3856" y1="36.3213" x2="40.8721" y2="21.9314" gradientTransform="matrix(1 0 0 -1 0 56)">
			<stop  offset="0" style="stop-color:#222952"/>
			<stop  offset="1" style="stop-color:#130D19"/>
		</linearGradient>
		<path class="st32" d="M21.3,19.3c-0.5-0.3-1.1-0.8-0.5-0.8c0.6,0,0.9,0.2,1.1,0.4c0.2,0.2,0.6,0.8,0.9,0.8c0.3,0,0.2-1.2,0-1.4
			s-0.2-0.5-0.2-0.6c0-0.1-0.5-0.5-0.7-0.6c-0.2-0.1-1.3-0.7-1.4-0.5s0.4,0.9,0.6,1c-0.9-0.5-1.5-1.2-1.1-1.4
			c0.4-0.2,0.4-0.3,0.6-0.3c-0.4-0.7,0.2-1.5,0.5-1.5s0.3,0.3,0.5,0.4c0.2,0.1,0,0.3,0,0.5c0,0.2,0.2,0.9,0.7,1.1
			c0.5,0.2,1.5,0.7,1.7,0.9c0.3,0.2,0.9,0.7,1.1,0.5c0.2-0.1-0.4-0.8-0.7-1c-0.3-0.2-0.4-0.5-0.1-0.6s0.9-0.1,1.2,0.4
			c0.3,0.4,0.8,1.4,1.1,1.6c0.3,0.2,0.2-0.8,0.1-1.1c-0.1-0.3,0-1.1,0.3-1.2c0.3-0.1,0.1-0.2,0-0.3c-0.1-0.1,0.3-0.1,0.4,0
			c0.1,0.1,1.1,0.9,1.2,1c0.1,0.2,0,0.6,0.4,0.6c0.4,0,1-0.3,0.9-0.8c-0.1-0.5-0.2-1.5,0.2-1.5c0.5,0,0.6-0.1,0.8-0.1
			c0.3,0,0.6,0.3,0.7,0.7c0-0.6-0.6-1.5-0.9-1.6s-1.2-1.1-0.9-1.4c0.3-0.4,0.6-0.3,0.8-0.2c0.2,0.1,1.2,0.5,0.9,0.3
			c-0.2-0.2-1.2-0.5-1.4-0.8c-0.2-0.3-0.3-0.6-0.6-0.7c-0.3-0.1-0.8-0.3-0.9-0.5c0.8,0.2,1.4,0.4,1.5,0.7c0.1,0.3,0.7,0.8,1,0.9
			c0.3,0.1,0.1-0.5-0.2-0.7c1.9,1.2,3,2.2,3.3,2.5c0.3,0.3,0.9,0.9,1.2,1.5c0.3,0.5,1.2,1.2,1.5,1.4c0,2.1,0.5,5.7,0.6,6.3
			c0.1,0.6,0.3,3.8,0.3,4.7c0.1,0.9,0.1,3.6,0.1,4.2c0,0.6,0,1.7,0,2.4c0,0.7,0.2,2.7,0.2,3.1c-1.3,0-2.7-0.2-3.1-0.2
			c-0.4,0-1.6,0-2,0.1c-0.9-1.7-2.3-4.8-2.4-5.2c-0.1-0.4,0-0.5-0.1-0.8s0-0.4,0.7-0.7c0.6-0.2,0.7-0.5,0.5-0.7
			c-0.2-0.3-3.9-4.4-4.7-5.2c-0.9-0.8-3.9-3.8-4.4-4.2C22.4,20.1,21.8,19.6,21.3,19.3z"/>
		
			<linearGradient id="SVGID_19_" gradientUnits="userSpaceOnUse" x1="17.4508" y1="46.9884" x2="26.0613" y2="36.2014" gradientTransform="matrix(1 0 0 -1 0 56)">
			<stop  offset="0" style="stop-color:#7586C1"/>
			<stop  offset="1" style="stop-color:#7283BC"/>
		</linearGradient>
		<path class="st33" d="M21.3,19.3c-0.5-0.3-1.1-0.8-0.5-0.8c0.6,0,0.9,0.2,1.1,0.4c0.2,0.2,0.6,0.8,0.9,0.8c0.3,0,0.2-1.2,0-1.4
			s-0.2-0.5-0.2-0.6c0-0.1-0.5-0.5-0.7-0.6c-0.2-0.1-1.3-0.7-1.4-0.5s0.4,0.9,0.6,1c-0.9-0.5-1.5-1.2-1.1-1.4
			c0.4-0.2,0.4-0.3,0.6-0.3c-0.4-0.7,0.2-1.5,0.5-1.5s0.3,0.3,0.5,0.4c0.2,0,0,0.3,0,0.5c0,0.2,0.2,0.9,0.7,1.1
			c0.5,0.2,1.5,0.7,1.7,0.9c0.3,0.2,0.9,0.7,1.1,0.5c0.2-0.1-0.4-0.8-0.7-1c-0.3-0.2-0.4-0.5-0.1-0.6s0.9-0.1,1.2,0.4
			c0.3,0.4,0.8,1.4,1.1,1.6c0.3,0.2,0.2-0.8,0.1-1.1c-0.1-0.3,0-1.1,0.3-1.2c0.3-0.1,0.1-0.2,0-0.3c-0.1-0.1,0.3-0.1,0.4,0
			c0.1,0.1,1.1,0.9,1.2,1c0.1,0.2,0,0.6,0.4,0.6c0.4,0,1-0.3,0.9-0.8c-0.1-0.5-0.2-1.5,0.2-1.5c0.5,0,0.6-0.1,0.8-0.1
			s0.6,0.3,0.7,0.7c0-0.6-0.6-1.5-0.9-1.6s-1.2-1.1-0.9-1.4c0.3-0.4,0.6-0.3,0.8-0.2c0.2,0.1,1.2,0.5,0.9,0.3
			c-0.2-0.2-1.2-0.5-1.4-0.8c-0.2-0.3-0.3-0.6-0.6-0.7s-0.8-0.3-0.9-0.5c0.8,0.2,1.4,0.4,1.5,0.7c0.1,0.3,0.7,0.8,1,0.9
			c0.3,0.1,0.1-0.5-0.2-0.7l0,0c-0.2-0.1-0.3-0.3-0.4-0.3c-0.4-0.4-1.8-1.2-2.8-1.6c-0.4-0.1-0.8-0.2-1-0.3c-0.3-0.1-0.4-0.2-0.5-0.2
			c0,0-0.1,0-0.2-0.1c-0.3-0.1-1.2-0.1-1.6-0.3c0,0-0.1,0-0.2-0.1c-0.1,0-0.3-0.1-0.4-0.1C23.9,8,23.7,8,23.6,8c-0.3,0-0.5,0-0.8,0
			c-0.4,0.1-0.7,0.1-0.9,0.1c-0.1,0-0.3,0-0.4,0c-0.9,0.1-3,0.8-4.1,1.2c-1.1,0.5-1.3,0.6-1.5,1.2c-0.6,0.2-1.3,1.2-1.5,1.3
			c-0.1,0.2,0,0.3,0,0.3s-0.1,0-0.4,0.3c-0.3,0.2-1.1,1.4-1.3,1.6c-0.1,0.3,0,0.6-0.1,0.7c0,0-0.2,0.1-0.3,0.3
			c-0.1,0.2-0.3,0.4-0.5,1c-0.2,0.6,0.2,1.5,0.6,1.1c0.1-0.1,0.5-0.4,0.8-0.6c0.3-0.2,1.2-0.4,1.9-0.2c0.7,0.1,2.2,0.9,2.9,1.2
			C18.5,17.7,20.2,18.6,21.3,19.3C21.2,19.2,21.4,19.4,21.3,19.3z"/>
		
			<linearGradient id="SVGID_20_" gradientUnits="userSpaceOnUse" x1="21.5563" y1="45.6621" x2="27.9207" y2="37.6889" gradientTransform="matrix(1 0 0 -1 0 56)">
			<stop  offset="0" style="stop-color:#576BB2"/>
			<stop  offset="1" style="stop-color:#293F6A"/>
		</linearGradient>
		<path class="st34" d="M20.8,18.5c0.6,0,0.9,0.2,1.1,0.4c0.2,0.2,0.6,0.8,0.9,0.8c0.3,0,0.2-1.2,0-1.4c-0.2-0.1-0.2-0.5-0.2-0.6
			s-0.5-0.5-0.7-0.6c-0.2-0.1-1.3-0.7-1.4-0.5c-0.1,0.2,0.4,0.9,0.6,1c-0.9-0.5-1.5-1.2-1.1-1.4c0.4-0.2,0.4-0.3,0.6-0.3
			c-0.4-0.7,0.2-1.5,0.5-1.5s0.3,0.3,0.5,0.4c0.2,0,0,0.3,0,0.5c0,0.2,0.2,0.9,0.7,1.1c0.5,0.2,1.5,0.7,1.7,0.9
			c0.3,0.2,0.9,0.7,1.1,0.5c0.2-0.1-0.4-0.8-0.7-1c-0.3-0.2-0.4-0.5-0.1-0.6s0.9-0.1,1.2,0.4c0.3,0.4,0.8,1.4,1.1,1.6
			c0.3,0.2,0.2-0.8,0.1-1.1c-0.1-0.3,0-1.1,0.3-1.2c0.3-0.1,0.1-0.2,0-0.3c-0.1-0.1,0.3-0.1,0.4,0c0.1,0.1,1.1,0.9,1.2,1
			c0.1,0.2,0,0.6,0.4,0.6c0.4,0,1-0.3,0.9-0.8c-0.1-0.5-0.2-1.5,0.2-1.5c0.5,0,0.6-0.1,0.8-0.1s0.6,0.3,0.7,0.7
			c0-0.6-0.6-1.5-0.9-1.6s-1.2-1.1-0.9-1.4c0.3-0.4,0.6-0.3,0.8-0.2c0.2,0.1,1.2,0.5,0.9,0.3c-0.2-0.2-1.2-0.5-1.4-0.8
			c-0.2-0.3-0.3-0.6-0.6-0.7s-0.8-0.3-0.9-0.5c0.8,0.2,1.4,0.4,1.5,0.7c0.1,0.3,0.7,0.8,1,0.9c0.3,0.1,0.1-0.5-0.2-0.7
			c0.6,0.4,1.2,0.8,1.6,1.1l0,0c-0.1-0.2-0.9-0.7-1.5-1.2c-0.6-0.4-1.3-0.9-1.6-1.1c-0.3-0.2-1.4-0.6-1.7-0.8
			c-0.3-0.2-1.6-0.6-1.5-0.4s0.7,0.4,0.9,0.7c0.2,0.3-0.7-0.3-0.9-0.4c-0.2,0-1-0.5-1.4-0.6c-0.4-0.1,0.2-0.1,0.3,0.1
			c0.1,0.1,0.7,0.6,1,0.8s0.7,0.7,0.5,0.8c-0.3,0.1-0.5-0.2-0.9-0.4c-0.3-0.1-0.4-0.4-0.7-0.5S24.8,9,24.4,8.9
			c-0.5,0,0.1,0.2,0.1,0.4c0,0.1-0.3,0.1-0.4,0.4c-0.1,0.3-0.2,0.6-0.5,0.7c-0.3,0.1-0.8-0.1-1-0.3c-0.3-0.1-0.9,0-0.8,0.2
			c0.1,0.2,0,0.4-0.2,0.4s-0.6-0.2-0.5,0c0.1,0.2,0.4,0.3,0.6,0.5c0.2,0.2,0.4,0.5,0.4,0.7s-0.5,0.1-0.8,0.1c-0.4,0-0.4,0.2-0.3,0.3
			c0,0.1,0.3,0,0.4,0.1c0.1,0.1-0.1,0.2-0.3,0.2c-0.2,0-0.1,0.4-0.1,0.5s0.2,0.3,0.4,0.5c-0.1,0-0.2,0.4-0.2,0.5c0,0.1-0.5,0.1-1,0.1
			c0,0.2,0.4,0.3,0.5,0.5c0.1,0.2-0.3,0.4-0.2,0.7c0.1,0.3,0.2,0.1,0,0.5c-0.2,0-0.6,0.3-0.8,0.5c-0.2,0.2-0.6,0.1-0.9,0.1
			c-0.3-0.1-0.7-0.4-1.1-0.5c0.1,0.1,0.1,0.3,0,0.5c-0.1,0.1-0.7,0.1-0.5,0.2c0.3,0.1,0.2,0.3,0.4,0.5c0.2,0.2,0.9,0.4,1.3,0.7
			c0.4,0.2,1.2,0.7,1.5,0.8c0.1,0.1,0.7,0.4,1,0.6C20.5,18.8,20.4,18.5,20.8,18.5z"/>
		
			<linearGradient id="SVGID_21_" gradientUnits="userSpaceOnUse" x1="12.5081" y1="41.3412" x2="13.8274" y2="40.6844" gradientTransform="matrix(1 0 0 -1 0 56)">
			<stop  offset="0" style="stop-color:#576BB2"/>
			<stop  offset="1" style="stop-color:#293F6A"/>
		</linearGradient>
		<path class="st35" d="M12.3,15.1c0.2-0.2,0.5-0.1,0.9-0.1s0.5,0,0.9,0c-1-0.1-1.5-0.1-1.4-0.2C12.4,15,12.3,15.1,12.3,15.1z"/>
		
			<linearGradient id="SVGID_22_" gradientUnits="userSpaceOnUse" x1="13.8976" y1="43.6565" x2="15.13" y2="43.043" gradientTransform="matrix(1 0 0 -1 0 56)">
			<stop  offset="0" style="stop-color:#576BB2"/>
			<stop  offset="1" style="stop-color:#293F6A"/>
		</linearGradient>
		<path class="st36" d="M13.6,12.9c0.2-0.2,0.4-0.4,0.7-0.4c0.3,0,0.7-0.1,1,0c-1-0.1-1.2-0.2-1.1-0.4C14.1,12.3,13.6,12.9,13.6,12.9
			z"/>
		
			<linearGradient id="SVGID_23_" gradientUnits="userSpaceOnUse" x1="15.5753" y1="45.5602" x2="16.709" y2="44.9958" gradientTransform="matrix(1 0 0 -1 0 56)">
			<stop  offset="0" style="stop-color:#576BB2"/>
			<stop  offset="1" style="stop-color:#293F6A"/>
		</linearGradient>
		<path class="st37" d="M15.4,10.8c0.2-0.1,0.3-0.2,0.6-0.2c0.3,0,0.5,0,0.9,0c-1-0.1-1.1-0.1-1-0.2C15.7,10.7,15.4,10.8,15.4,10.8z"
			/>
	</g>
	<g id="Yellow">
		
			<linearGradient id="SVGID_24_" gradientUnits="userSpaceOnUse" x1="33.2691" y1="38.9096" x2="40.9444" y2="16.7092" gradientTransform="matrix(1 0 0 -1 0 56)">
			<stop  offset="0" style="stop-color:#92723E"/>
			<stop  offset="1" style="stop-color:#B08B51"/>
		</linearGradient>
		<path class="st38" d="M22.9,8c0.6-0.1,1.2,0.1,1.7,0.3s1.3,0.2,1.6,0.3s0.3,0.2,1.2,0.4c0.9,0.2,2.7,1.3,3.2,1.8
			c0.5,0.4,2.8,2.1,3.6,2.8c0.8,0.6,1,1.2,1.3,1.6c0.3,0.3,0.4,0.7,1.5,1.4c0,0.5,0.1,3.4,0.3,4.1c0.2,0.8,0.4,3.5,0.4,4.2
			s0.3,3.4,0.3,4.5c0,1.1,0.1,3.5,0,4.4c-0.1,0.9,0.3,5,0.3,5.5c-0.1,0.5,0.2,2.5,0.3,3.2c0.1,0.7,0.3,1.7,0.3,2.5
			c0,0.8,0.1,3,0.2,3.4c0.1,0.4,0,1.3-0.1,2c-0.1,0.7,0.1,1.3,0.1,2c0,0.2,0,0.4,0,0.6H44c0,0,0-0.1,0-0.1c-0.1-0.4-0.2-1,0.2-1
			c0.8,0.1,0.9-0.2,1.2-0.3c0.3-0.1,0.3,0.2,0.7,0.4c0.4,0.2,1.1,0,1.3-0.2c0.2-0.2,0.2-0.1,0.5-0.2c0.4-0.1,0.3-0.5,0.2-0.7
			c-0.1-0.2-0.2-0.3-0.1-1.1c0.1-0.8-0.1-3-0.1-3.4c0-0.5-0.6-1.1-0.6-1.6c0-0.5-0.3-0.6-0.5-1c-0.1-0.5,0-2.5-0.1-2.8
			c-0.2-0.2-0.5-1.2-0.5-2.2c0-1-0.7-2.8-0.9-3.2c-0.1-0.5,0.2-0.9,0.2-1.3s-0.7-0.9-0.8-1.5c-0.1-0.6-0.1-1.4-0.5-1.7
			c-0.4-0.3-0.5-0.9-0.5-2.2s-0.7-1.6-1.1-2c-0.4-0.5-0.1-0.9-0.3-1.4c-0.2-0.5-0.2-1.6-0.2-2.3c0-0.7-0.5-1.9-0.4-2.3
			c0.1-0.4-0.3-1.5-0.2-2.1c0.1-0.6-0.2-1.3-0.3-1.6c-0.1-0.3-0.4-0.4-0.2-0.9s-0.3-1.1-0.5-1.1c-0.2-0.1-0.5-0.4-0.4-1.1
			c0.3-0.3,0.4-0.9,0.3-1.3c-0.1-0.4-0.2-0.8-0.5-1.7c-0.3-0.9-1.2-1.1-1.5-1.3C37.9,9.1,37.8,8.5,38,8c0.2-0.5-0.8-1-1-1.4
			c-0.2-0.4-0.7-0.6-1.2-0.7c-0.5-0.1-0.7-0.5-0.9-0.7c-0.2-0.2-0.4-0.4-1-0.7s-1.4-0.2-2.2-0.4c-0.8-0.2-1.4-0.3-2.4-0.3
			c-1,0-1.9,0.4-2.4,0.7S25,5.9,24.9,6.5c-0.4,0.1-1.6,0.6-2,0.7c-0.4,0.1-1.3,0.3-1.3,1C21.9,8.2,22.4,8.1,22.9,8z"/>
		
			<linearGradient id="SVGID_25_" gradientUnits="userSpaceOnUse" x1="26.6795" y1="51.7623" x2="34.6977" y2="47.7705" gradientTransform="matrix(1 0 0 -1 0 56)">
			<stop  offset="0" style="stop-color:#6E5837"/>
			<stop  offset="1" style="stop-color:#514024"/>
		</linearGradient>
		<path class="st39" d="M31.7,4.5c-1.8,0-2.8,0.2-2.9,0.3C28.6,5,28.3,5.1,28,5.3S27.3,6,27.5,6c0.2,0,1.2-0.5,1.4-0.6
			c0.2-0.2,1.2-0.6,1.8-0.6s1.5-0.1,1.9,0C31.2,4.9,30.1,5,30,5.1c-0.1,0.1-0.9,0.3-0.8,0.5c0,0.2-0.3,0.5,0,0.6
			c0.3,0.1,0.6-0.1,0.8,0c0.3,0.1-0.1,0.4,0.2,0.5c0.2,0.1,0.7,0.1,1,0c-0.4,0.3-0.4,0.5,0,0.5c0.3,0,0.6-0.1,0.7,0.1
			c0.1,0.2-0.3,0.5,0.4,0.5c0.7,0,1.2-0.2,1.3,0c0.1,0.2-0.2,0.7,0.2,0.8c0.4,0.1,0.3,0.2,0.6,0.4c-1.1-0.4-1.4-0.7-1.6-0.8
			s-1.6-0.7-2-1c-0.5-0.3-1.1-0.6-1.9-0.8C28,6.2,26.5,6.2,26,6.2c-0.5,0-0.4-0.2,0.4-0.3s1.1-0.5,1.3-0.7c0.2-0.2,1-0.7,1.6-0.7
			C29.9,4.5,30.8,4.6,31.7,4.5z"/>
		
			<linearGradient id="SVGID_26_" gradientUnits="userSpaceOnUse" x1="25.1657" y1="34.7347" x2="53.6827" y2="20.538" gradientTransform="matrix(1 0 0 -1 0 56)">
			<stop  offset="0" style="stop-color:#775F3E"/>
			<stop  offset="1" style="stop-color:#744F35"/>
		</linearGradient>
		<path class="st40" d="M34.8,9.2c0.5,0.7,1.5,1.4,1.7,1.7s0-0.5,0.4-0.5s0.9,0.6,0.7,0.2c-0.1-0.4-0.5-0.9-0.2-0.7
			c0.3,0.2,0.5,0.8,0.7,1.1c0.2,0.3,0.2,0.6,0.4,0.3c0.2-0.3,0-0.4-0.3-0.8C38,10,37.7,9.5,37.4,9.5c-0.3,0-0.8,0-1-0.4
			c-0.3-0.4-1.1-0.9-0.9-1.1c0.2-0.2,0.4-0.1,0.5-0.1c0.2,0-0.2-0.4-0.6-0.4C35,7.4,34.9,7,35.1,7c0.2,0,0.6,0.1,0.9,0.3
			s-0.3-0.4-0.1-0.6c0.1-0.2,0.4-0.4,0.7,0c0.3,0.4,0.1,1.1,0.5,1.2c0.4,0.1,0.6-0.1,0.5-0.3C37.5,7.3,38,7.4,38,7.8
			c-0.1,0.4-0.3,0.7-0.1,1.1c0.2,0.4,0.3,0.6,0.9,0.8c0.6,0.2,0.7,0.8,0.9,1.3s0.4,1.3,0.4,1.6c0,0.3-0.1,0.8-0.3,1.1
			c-0.2,0.3,0.1,3.9,0.3,4.5c0.2,0.6,0.5,2.5,0.4,3.6c-0.1,1.1-0.1,2.4,0.1,3c0.3,0.6,0.6,3.6,0.5,5s0.2,4.1,0.3,5.1
			c0.1,1,0.5,3,0.6,3.8c0.1,0.8,0.3,2.7,0.4,3.2c0.1,0.5,0.1,2.2,0.4,2.1s0.4-0.3,0.3-1.1c0.4,1.3,0.5,1.7,0.2,1.9
			c-0.2,0.1-0.5,0.3-0.3,0.6c0.2,0.3,0.6-0.2,0.7-0.1c0.2,0.1-0.4-5.9-0.5-6.8c-0.1-0.9-1.5-7.8-1.6-9.3s-0.3-3-0.5-3.8
			c-0.1-0.8,0-1.8,0.3-0.2c0.2,1.6,0.3,1.9,0.4,1.5c0.1-0.4,0.6-0.1,0.9,0.3c0.3,0.4,0.6,1.1,0.7,1.6c0,0.6,0,1.6,0.3,2
			s-0.4,0.1-0.2,0.8c0.2,0.6,0.9,3,0.9,3.8c0,0.8,1,3.6,1,4.8c0.1,1.2,0.3,2.7,0.4,3c0.1,0.4,0.8,1.5,0.8,2s-0.1,1.5-0.4,1.5
			c-0.3-0.1-0.8-1-0.6-1.5c0.2-0.5,0.3-1.1,0.1-1.6s-0.3-2-0.5-2s-0.1,2.1,0,2.6c0.2,0.5,0.2,1.3,0.2,2c0,0.6-0.3,1.5-0.1,2.2
			c0.2,0.7-0.1,1.4,0.2,1.8c0.3,0.4,0.2,1.3,0,1.4c-0.3,0.1-0.7-0.1-0.7-0.8c0-0.7,0.2-1.4-0.3-2.1c-0.5-0.7-0.5-1.6-0.4-1.9
			c0.1-0.3,0.4-1.1-0.2-0.9c-0.6,0.3-1,0.4-0.9,1.2s0.5,2,0.4,2.5c-0.1,0.5,0.1,1.1,0.2,1.7c-0.5-1.5-0.4-2.1-0.4-2.5
			c0-0.5-0.3-0.3-0.6-0.1c-0.3,0.2-0.3-0.2-0.3-0.6s0.2-2.1,0-2.8c-0.2-0.7-0.5-1.7-0.7-2.2c-0.1-0.5-0.3-2.5-0.5-3.2
			c-0.2-0.7,0-1-0.1-1.4c-0.1-0.4-0.4-0.1-0.5-0.2c-0.1-0.1,0.3-0.6,0.2-1c-0.1-0.4-0.4-1-0.3-1.7c0.1-0.7,0-1.7-0.1-2.1
			c0.1,1.5-0.1,2-0.1,2.8c-0.1,0.8,0.2,1.7,0.2,2.3c-0.1,0.6-0.2,1.5,0.2,2c0.4,0.5,0.8,0.9,0.8,1.5c0,0.6-0.1,1.7,0,2.3
			c-0.4-0.4-0.5-0.4-0.5,0c-0.2-1.3-0.4-1.7-0.4-2.2c0-0.4-0.1-1.2-0.3-1.7c-0.3-0.6-0.5-1.5-0.3-2c0.1-0.5-0.3-8.7-0.2-9.5
			c0.1-0.8,0.1-2.7-0.1-2.9c-0.3-0.2-0.6-0.6-0.7-1.3c0-0.7,0.2-3.2,0.1-3.6c-0.1-0.4-0.3,0.2-0.3,0.6c0,0.3,0,2.6,0,3.2
			c0,0.6,0.5,2.8,0.5,3.5s0.2,2.9,0.1,3.4C39.2,30.3,39,29.3,39,28c0-1.2-0.6-3.1-0.6-4.5c0-1.5,0-6.2,0.1-6.5c0.1-0.2,0-3.4-0.3-3.5
			s-0.2,0.6-0.3,0.5c-0.1-0.2-0.1-1.5,0-1.8s-0.4-1.6-0.7-1.6c-0.2,0-0.2,1.1-0.1,1.5c0.1,0.4,0.3,1.1,0.2,1.5
			c-0.1,0.5-0.2,1.1-0.2,1.8s0,1.1,0,1.1s-1.1-0.8-1.3-1.1c-0.2-0.2-0.6-1.4-1.4-1.8c0.8,0.2,0.3-0.5-0.2-1.2
			c-0.5-0.7-0.8-1.8-1.3-2.2c-0.5-0.4-1.8-1.4-1.6-1.4s2.4,1.3,2.7,1.8c0.3,0.5,0.8,1,1.3,1.1c0.5,0.1,1.1,0.5,1.1,0.2
			c-0.1-0.3-0.5-0.3-0.5-0.5c0-0.2-0.1-1.1-0.5-1.4C35.7,10.2,35.5,9.8,34.8,9.2z"/>
		<path class="st41" d="M39.2,47.5c-0.1,0.8,0,1,0.2,1c0.2,0,0-1.7,0-2.1c0-0.4,0-1.5,0-2.1c-0.1-0.6,0-1.9-0.1-2.3
			c-0.1-0.5-0.2-1.9-0.2-2.4c0-0.5-0.1-1.7-0.1-2.5c0-0.7-0.3-1-0.3,0.3c0,1.3,0,1.7,0.1,1.8c0.1,0.1,0,1.3,0,1.5
			c0,0.2-0.1,0.9,0.1,0.9c0.1,0,0.3,0.7,0.2,1s0.2,1.7,0.1,1.8s0.1,1,0,1.5C39.1,46.2,39.2,47,39.2,47.5z"/>
		<path class="st41" d="M39.2,37c0-1,0.2-1.5,0.3-0.7c0.1,0.8,0.2,1.6,0.1,2.3c0,0.6,0.2,1,0.2,1.6c0,0.6,0.2,1.8,0.3,2.1
			s0,1.7-0.1,1.7c-0.1,0-0.3-1.1-0.3-1.6c0-0.5,0-1-0.2-1c-0.2-0.1,0-1,0-1.3c0-0.4,0-1-0.2-1.5C39.2,38.2,39.2,37.2,39.2,37z"/>
		
			<linearGradient id="SVGID_27_" gradientUnits="userSpaceOnUse" x1="23.4873" y1="49.8749" x2="32.4078" y2="45.434" gradientTransform="matrix(1 0 0 -1 0 56)">
			<stop  offset="0" style="stop-color:#F6D983"/>
			<stop  offset="1" style="stop-color:#C7A560"/>
		</linearGradient>
		<path class="st42" d="M24.3,7.8c-0.5,0-1.9,0.2-1.6,0s1-0.5,1.4-0.5s0.8-0.2,0.3-0.2c-0.6-0.1-0.5-0.2,0.5-0.1
			c1,0.1,0.7-0.1,0.8-0.2c0.1-0.1,0.7-0.1,0.9,0c0.2,0.1,0.1-0.2,0-0.3s1.2-0.1,1.6,0.1c0.5,0.2,2.1,0.8,2.6,1.1
			c0.5,0.3,1.5,0.8,1.8,1.1c-0.7-0.2-0.6-0.2-0.8-0.1c-0.1,0.1-0.3-0.3-0.9-0.5c-0.6-0.2-0.9-0.2-1.3-0.5S29.1,6.9,28.8,7
			c-0.3,0.1-0.4-0.2-0.5-0.2c-0.1,0-0.5,0.1-0.7,0c-0.2-0.1-0.5-0.2-0.6-0.1c-0.1,0.1,0.3,0.3,0.4,0.4c0.1,0.1,0.2,0.3-0.1,0.3
			s0.1,0.3,0.6,0.3c0.4,0,1.6,0.6,1.7,0.7c0.1,0.1,0,0.7,0.2,0.9c0.3,0.2,1.1,0.5,1.3,0.7c0.3,0.3,0.8,0.8,1,1
			c0.1,0.2-0.4-0.1-0.8-0.3c-0.3-0.2-1.3-0.9-1.5-1c-0.3-0.1-1.4-0.6-1.9-0.9c-0.5-0.3-0.5-0.6-0.9-0.7c-0.3,0-0.1,0.3-0.6,0.2
			c-0.4-0.1-0.6-0.1-0.6-0.4c0-0.3-0.3,0-0.7,0C24.8,8,24.6,7.8,24.3,7.8z"/>
		
			<linearGradient id="SVGID_28_" gradientUnits="userSpaceOnUse" x1="29.7216" y1="51.151" x2="35.3664" y2="48.3408" gradientTransform="matrix(1 0 0 -1 0 56)">
			<stop  offset="0" style="stop-color:#F6D983"/>
			<stop  offset="1" style="stop-color:#C7A560"/>
		</linearGradient>
		<path class="st43" d="M32.7,6c0.5-0.1,1.4-0.6,0.8-0.8c-0.6-0.2-1.2,0.1-1.3,0c-0.2-0.1-0.4-0.4-0.7-0.3c-0.3,0-1.5,0.2-1.8,0.4
			c-0.3,0.1-0.5,0.7-0.4,0.7c0.1,0,0.6,0.1,0.9,0.1c0.2,0-0.1,0.4,0.1,0.5s0.9,0.1,1.2,0C31.2,6.7,30.9,6.9,31,7
			c0.1,0.1,0.7,0,0.9,0.1c0.2,0.1,0,0.3,0.1,0.4c0.1,0.1,0.7,0.1,0.9,0c0.2-0.1,0.8-0.1,1,0.1c0.1,0.2,0.9,0.3,0.8,0
			c-0.1-0.3-0.3-0.5-0.7-0.5c-0.4,0-1.2,0.3-1,0.1C33.2,7,34,6.9,34,6.7c0.1-0.2,0.4-0.4,0.1-0.6c-0.3-0.2-0.5-0.2-0.8-0.2
			c-0.3,0.1-0.9,0.3-1.2,0.4C32.6,6.1,32.7,6,32.7,6z"/>
		
			<linearGradient id="SVGID_29_" gradientUnits="userSpaceOnUse" x1="36.5435" y1="41.6133" x2="38.3525" y2="40.7127" gradientTransform="matrix(1 0 0 -1 0 56)">
			<stop  offset="0" style="stop-color:#F6D983"/>
			<stop  offset="1" style="stop-color:#C7A560"/>
		</linearGradient>
		<path class="st44" d="M37.2,15.5c-0.1-0.4,0-0.9,0.1-1.3c0.1-0.3,0.1-1,0-1.3c0-0.3,0.2-0.2,0.2,0.2c0,0.4,0.2,1.1,0.1,1.4
			c-0.1,0.3-0.3,0.6-0.2,1.2s0,0.9,0.1,1.3C37.2,16,37.3,15.8,37.2,15.5z"/>
		
			<linearGradient id="SVGID_30_" gradientUnits="userSpaceOnUse" x1="37.3211" y1="35.1267" x2="39.2472" y2="34.1678" gradientTransform="matrix(1 0 0 -1 0 56)">
			<stop  offset="0" style="stop-color:#F6D983"/>
			<stop  offset="1" style="stop-color:#C7A560"/>
		</linearGradient>
		<path class="st45" d="M38.3,18.9c-0.1,1.4,0,2.5,0,3.1c0,0.7,0,1.3,0,1.7c-0.3-1.1-0.1-1.7-0.1-2c0-0.3-0.1-1.4-0.1-1.5
			C38.1,20,38.2,19.4,38.3,18.9z"/>
		
			<linearGradient id="SVGID_31_" gradientUnits="userSpaceOnUse" x1="38.8501" y1="21.4209" x2="46.5825" y2="17.5715" gradientTransform="matrix(1 0 0 -1 0 56)">
			<stop  offset="0" style="stop-color:#F6D983"/>
			<stop  offset="1" style="stop-color:#C7A560"/>
		</linearGradient>
		<path class="st46" d="M41.7,29c0.2,1.9,0.6,3.9,0.8,4.9c0.2,0.9,0.4,2.3,0.6,3.6c0.1,1.3,0.2,2.9,0.4,3.6c0.1,0.7,0.4,2.1,0.4,3
			c-0.4-2.7-0.9-3.6-0.9-4.3c0-0.6,0-2.1-0.1-2.5c0-0.5-0.3-2.5-0.5-3c-0.2-0.4-0.6-2.6-0.6-3.4C41.7,30.1,41.7,29.8,41.7,29z"/>
		
			<linearGradient id="SVGID_32_" gradientUnits="userSpaceOnUse" x1="38.7966" y1="22.9221" x2="40.0874" y2="22.2794" gradientTransform="matrix(1 0 0 -1 0 56)">
			<stop  offset="0" style="stop-color:#F6D983"/>
			<stop  offset="1" style="stop-color:#C7A560"/>
		</linearGradient>
		<path class="st47" d="M39.2,34.5c0.1-0.3,0.3-0.7-0.1-0.9c-0.4-0.2-0.2-0.7,0-0.8c0.2-0.1,0.3-0.4,0.3-0.7c0-0.3,0.2,0.4,0.1,0.6
			c-0.1,0.2-0.3,0.6-0.2,0.7c0.1,0.1,0.2,0.3,0.4,0.4c0.2,0.1,0.3,0.3,0.3,0.4c-0.2-0.4-0.4-0.5-0.5-0.4
			C39.3,33.8,39.4,34.4,39.2,34.5z"/>
		<path class="st48" d="M38.5,33.4c0.1,0-0.2-0.1-0.2,0c0,0.2,0.1,0.2,0.1,0.4c0,0.2,0,0.9,0,1.2s0.1,0.7,0.1,1c0,0.3,0,0.9,0,1.2
			c0.2-0.9,0.2-1.7,0.1-2c-0.1-0.2-0.2-0.7-0.2-0.9c0-0.2,0.1-0.6,0.1-0.7C38.4,33.6,38.2,33.4,38.5,33.4z"/>
	</g>
</svg>
