<svg xmlns="http://www.w3.org/2000/svg" width="0" height="0">

	<svg id="icon-cog" viewBox="0 0 500 500">
		<path d="M326.3,250c0-42-34.3-76.3-76.3-76.3S173.7,208,173.7,250c0,42,34.3,76.3,76.3,76.3C292,326.3,326.3,292,326.3,250 L326.3,250z M478.9,217.5v66.2c0,4.5-3.6,9.8-8.3,10.7l-55.1,8.3c-3.3,9.5-6.9,18.5-11.6,27.1c10.1,14.6,20.9,27.7,31.9,41.1 c1.8,2.1,3,4.8,3,7.5c0,2.7-0.9,4.8-2.7,6.9c-7.2,9.5-47.4,53.3-57.5,53.3c-2.7,0-5.4-1.2-7.7-2.7l-41.1-32.2 c-8.6,4.5-17.9,8.3-27.1,11.3c-2.1,18.2-3.9,37.6-8.6,55.4c-1.2,4.8-5.4,8.3-10.7,8.3h-66.2c-5.4,0-10.1-3.9-10.7-8.9l-8.3-54.8 c-9.2-3-18.2-6.6-26.8-11L129,436c-2.1,1.8-4.8,2.7-7.5,2.7c-2.7,0-5.4-1.2-7.5-3.3c-15.8-14.3-36.7-32.8-49.2-50.1 c-1.5-2.1-2.1-4.5-2.1-6.9c0-2.7,0.9-4.8,2.4-6.9c10.1-13.7,21.2-26.8,31.3-40.8c-5.1-9.5-9.2-19.4-12.2-29.5l-54.5-8 c-5.1-0.9-8.6-5.7-8.6-10.7v-66.2c0-4.5,3.6-9.8,8-10.7l55.4-8.3c3-9.5,6.9-18.5,11.6-27.4c-10.1-14.3-20.9-27.7-31.9-41.1 c-1.8-2.1-3-4.5-3-7.2c0-2.7,1.2-4.8,2.7-6.9c7.2-9.8,47.4-53.3,57.5-53.3c2.7,0,5.4,1.2,7.7,3l41.1,31.9 c8.6-4.5,17.9-8.3,27.1-11.3c2.1-18.2,3.9-37.6,8.6-55.4c1.2-4.8,5.4-8.3,10.7-8.3h66.2c5.4,0,10.1,3.9,10.7,8.9l8.3,54.8 c9.2,3,18.2,6.6,26.8,11L371.3,64c1.8-1.8,4.5-2.7,7.2-2.7s5.4,1.2,7.5,3c15.8,14.6,36.7,33.1,49.2,50.7c1.5,1.8,2.1,4.2,2.1,6.6 c0,2.7-0.9,4.8-2.4,6.9c-10.1,13.7-21.2,26.8-31.3,40.8c5.1,9.5,9.2,19.4,12.2,29.2l54.5,8.3C475.3,207.7,478.9,212.4,478.9,217.5 L478.9,217.5z"/>
	</svg>

	<svg id="icon-arrow" viewBox="0 0 500 500">
		<path fill="#999" d="M241.494,401.686L38.997,107.301c-4.664-8.506-0.549-15.365,9.055-15.365h403.896c9.604,0,13.721,6.859,9.056,15.365 L258.506,401.686C253.842,410.191,246.159,410.191,241.494,401.686z"/>
	</svg>

	<svg id="icon-mountain" viewBox="0 0 500 500">
		<polygon points="303.556,149.703 229.1,224.243 172.24,177.698 25.291,324.664 35.32,350.695 464.711,350.695 474.709,320.873 "/>
	</svg>

	<svg id="icon-r" viewBox="0 0 500 500">
		<path d="M406.1,408.1h-84.4l-107-147.8c-7.9,0.3-14.4,0.4-19.4,0.4c-2,0-4.2,0-6.5-0.1c-2.3-0.1-4.7-0.2-7.2-0.3v91.8 c0,19.9,2.2,32.2,6.5,37c5.9,6.8,14.7,10.3,26.6,10.3h12.3v8.6H91.7v-8.6h11.9c13.4,0,22.9-4.3,28.7-13.1c3.3-4.8,4.9-16.3,4.9-34.3 V147.9c0-19.9-2.2-32.2-6.5-37c-6-6.8-15.1-10.3-27-10.3H91.7V92h115.2c33.6,0,58.3,2.4,74.2,7.3c15.9,4.9,29.5,13.9,40.6,27 c11.1,13.1,16.7,28.8,16.7,46.9c0,19.5-6.4,36.3-19,50.6c-12.7,14.3-32.3,24.4-58.8,30.3l65.3,90.7c14.9,20.8,27.7,34.6,38.5,41.5 c10.7,6.8,24.7,11.2,41.9,13.1L406.1,408.1L406.1,408.1z M181.7,245.6c2.9,0,5.5,0,7.7,0.1c2.2,0.1,4,0.1,5.3,0.1 c30.1,0,52.9-6.5,68.2-19.6c15.3-13.1,23-29.7,23-49.9c0-19.7-6.2-35.7-18.5-48.1s-28.7-18.5-49.1-18.5c-9,0-21.2,1.5-36.6,4.4 L181.7,245.6L181.7,245.6z"/>
	</svg>

	<svg id="icon-g" viewBox="0 0 500 500">
		<path d="M365.6,84.7l8.2,99.7h-8.2c-8.3-24.9-18.9-43.6-32-56.2c-18.8-18.2-43-27.3-72.5-27.3c-40.2,0-70.9,15.9-91.8,47.8 c-17.6,26.9-26.4,58.9-26.4,96c0,30.1,5.9,57.6,17.5,82.5c11.6,24.9,27,43.1,45.8,54.7c18.9,11.5,38.2,17.4,58.1,17.4 c11.6,0,22.9-1.5,33.8-4.4c10.9-2.9,21.4-7.3,31.4-13.1v-91.4c0-15.8-1.2-26.2-3.6-31.1c-2.4-4.9-6.1-8.6-11.2-11.2 c-5.1-2.6-14-3.9-26.7-3.9v-8.9h122.4v8.9h-5.9c-12.1,0-20.4,4-25,12.1c-3.1,5.8-4.7,17.1-4.7,34v96.7 c-17.9,9.6-35.5,16.7-52.9,21.2c-17.4,4.5-36.8,6.7-58.1,6.7c-61.1,0-107.5-19.6-139.2-58.7c-23.8-29.4-35.7-63.2-35.7-101.6 c0-27.8,6.7-54.4,20.1-79.9c15.8-30.3,37.6-53.6,65.3-69.9c23.2-13.5,50.5-20.2,82.1-20.2c11.5,0,22,0.9,31.4,2.8 c9.4,1.9,22.7,5.9,40,12.3c8.7,3.3,14.6,4.9,17.5,4.9s5.5-1.4,7.6-4c2.1-2.8,3.4-8,3.9-15.9L365.6,84.7L365.6,84.7z"/>
	</svg>

	<svg id="icon-b" viewBox="0 0 500 500">
		<path d="M306.3,246.7c21.9,4.7,38.3,12.1,49.2,22.4c15.1,14.3,22.7,31.8,22.7,52.5c0,15.7-5,30.8-14.9,45.1 c-10,14.4-23.6,24.9-40.9,31.4c-17.3,6.6-43.8,9.9-79.4,9.9H93.6v-8.6h11.9c13.2,0,22.7-4.2,28.4-12.6c3.5-5.4,5.3-17.1,5.3-34.7 V147.9c0-19.6-2.2-32-6.7-37c-6-6.8-15.1-10.3-27-10.3H93.6V92h136.6c25.5,0,45.9,1.9,61.3,5.6c23.3,5.6,41.1,15.5,53.4,29.7 s18.4,30.6,18.4,49.1c0,15.8-4.8,30.1-14.5,42.6C339.3,231.4,325.1,240.7,306.3,246.7z M184.1,234.1c5.8,1.1,12.3,1.9,19.7,2.4 s15.5,0.8,24.4,0.8c22.7,0,39.7-2.4,51.2-7.3c11.5-4.9,20.2-12.4,26.2-22.5c6-10.1,9.1-21.1,9.1-33.1c0-18.5-7.6-34.3-22.7-47.3 c-15.1-13.1-37-19.6-66-19.6c-15.5,0-29.5,1.7-41.9,5.2L184.1,234.1L184.1,234.1z M184.1,385.2c18,4.2,35.8,6.3,53.4,6.3 c28.2,0,49.6-6.3,64.3-19c14.7-12.7,22.1-28.3,22.1-46.9c0-12.3-3.4-24.1-10-35.4c-6.7-11.4-17.6-20.2-32.6-26.8s-33.8-9.8-56-9.8 c-9.6,0-17.9,0.2-24.7,0.4c-6.8,0.3-12.3,0.9-16.5,1.6L184.1,385.2L184.1,385.2z"/>
	</svg>

	<svg id="icon-rgb-mix" viewBox="0 0 500 500">
		<style type="text/css">
			.st0{opacity:0.35;}
		</style>
		<path d="M250,236.3c-51.5,0-98.3-46.8-98.3-98.3s46.8-98.4,98.3-98.4s98.3,46.9,98.3,98.4S301.5,236.3,250,236.3z"/>
		<path d="M125.3,255.6c-52.2,0-98.3,46.3-98.3,98.5c0,52.1,46.2,98.1,98.3,98.1s98.3-46,98.3-98.1 C223.7,301.9,177.5,255.6,125.3,255.6z M125.3,271.1c42.8,0,82.8,40.2,82.8,83s-40.1,82.8-82.8,82.8s-82.7-40.1-82.8-82.8 C42.6,311.3,82.5,271.1,125.3,271.1z"/>
		<path d="M374.7,255.8c-52.2,0-98.3,46.3-98.3,98.5c0,52.1,46.2,98.1,98.3,98.1s98.3-46,98.3-98.1C473,302.1,426.8,255.8,374.7,255.8 z M374.7,271.2c42.8,0,82.8,40.2,82.8,83S417.5,437,374.7,437S292,397,291.9,354.2C291.9,311.4,331.9,271.2,374.7,271.2z"/>
		<circle class="st0" cx="374.7" cy="354.2" r="82.7"/>
	</svg>

	<svg id="tool-pipette" viewBox="0 0 500 500">
		<path d="M446.438,53.562c-19.64-19.641-51.483-19.641-71.123,0l-67.626,67.625L260,73.5l-53.342,53.343l41.815,41.815 L62.975,354.155c-3.163,3.163-4.506,7.45-4.047,11.575h-0.096l-20,82.864c0,6.944,5.629,12.573,12.573,12.573l82.865-20 c0,0,1.047,0,1.571,0c3.62,0,7.239-1.382,10.002-4.143l185.498-185.498l41.814,41.815L426.499,240l-47.688-47.688l67.626-67.626 C466.078,105.044,466.078,73.203,446.438,53.562z M146.84,396.022l-22.862-20l-20-22.861l164.499-164.499l42.862,42.862 L146.84,396.022z"/>
	</svg>

	<svg id="icon-cursor-pos" viewBox="0 0 500 500">
		<line fill="none" stroke="#000" stroke-width="30" x1="21.462" y1="250" x2="478.538" y2="250"/>
		<line fill="none" stroke="#000" stroke-width="30" x1="250.001" y1="21.461" x2="250" y2="478.539"/>
	</svg>

	<svg id="icon-selection-dim" viewBox="0 0 500 500">
		<polygon points="478.325,90.395 359.316,21.675 359.316,75.082 105.708,75.082 75.083,75.082 75.083,105.708 75.083,359.315 21.675,359.315 90.395,478.324 159.116,359.315 105.708,359.315 105.708,105.708 359.316,105.708 359.316,159.115"/>
		<line fill="none" stroke="#000" stroke-width="30" stroke-dasharray="33.6886" x1="149.605" y1="429.833" x2="452.803" y2="429.833"/>
		<line fill="none" stroke="#000" stroke-width="30" stroke-dasharray="33.6886" x1="437.49" y1="141.948" x2="437.49" y2="445.146"/>
	</svg>

	<svg id="icon-compare" viewBox="0 0 500 500">
		<style type="text/css">
			.st0{fill:none;stroke:#000;stroke-width:35;}
			.st1{opacity:0.25;}
		</style>
		<rect x="18.1" y="85.9" class="st0" width="463.7" height="328.3"/>
		<line class="st0" x1="250" y1="368.4" x2="250" y2="414.1"/>
		<line class="st0" x1="250" y1="92.6" x2="250" y2="137.2"/>
		<circle class="st0" cx="250" cy="253.4" r="115.1"/>
		<path class="st1" d="M365.2,250c0-63.5-51.5-115.1-115.1-115.1V85.9H482v328.3H250.1v-49.1C313.7,365.1,365.2,313.5,365.2,250z"/>
	</svg>

	<svg id="icon-saved" viewBox="0 0 500 500">
		<polygon points="88.912,58.209 88.912,441.791 411.088,441.791 411.088,186.594 281.203,186.594 281.203,58.209"/>
		<polygon points="301.339,167.956 408.053,167.956 301.339,61.207"/>
	</svg>

	<svg id="icon-save" viewBox="0 0 500 500">
		<rect x="148.2" y="66.7" width="140.3" height="93.4"/>
		<path d="M426.7,150L350,73.3c-4.3-4.3-10-6.6-16-6.6h-21v105.6c0,6.7-5.4,12.2-12.2,12.2c0,0,0,0,0,0H135.9
			c-6.7,0-12.2-5.4-12.2-12.2c0,0,0,0,0,0V66.7H90c-12.9,0-23.3,10.5-23.3,23.3V410c0,12.9,10.5,23.3,23.3,23.3H410
			c12.9,0,23.3-10.5,23.3-23.3V166C433.3,160,430.9,154.2,426.7,150z M377.1,373.7c0,5.8-4.7,10.4-10.4,10.4c0,0,0,0,0,0H133.3
			c-5.8,0-10.4-4.7-10.4-10.4c0,0,0,0,0,0v-135c0-5.8,4.7-10.4,10.4-10.4c0,0,0,0,0,0h233.3c5.8,0,10.4,4.7,10.4,10.4c0,0,0,0,0,0
			V373.7z"/>
	</svg>

	<svg id="icon-trashcan" viewBox="0 0 500 500">
		<polygon points="107.993,96.576 391.989,96.576 391.989,66.13 281.29,66.13 281.29,40.753 219.554,40.753 219.554,65.708 107.993,65.708"/>
		<path d="M91.521,111.934v31.729l31.071,0.659l10.763,316.925h233.258l10.171-316.925h31.696v-32.389H91.521z M195.461,405.492 h-23.451l-4.427-225.673h27.877V405.492z M262.671,405.492h-24.092V179.819h24.092V405.492z M326.705,405.492h-21.559V179.819 h28.52L326.705,405.492z"/>
	</svg>

	<svg id="knob" viewBox="0 0 34 1734">
		<filter id="DS_1" x="-40%" y="-40%" width="180%" height="180%">
			<feDropShadow dx="0" dy="0" stdDeviation="1" flood-color="#f90" flood-opacity="1" />
		</filter>
		<style type="text/css">
			.st0{fill:none;stroke:#f90;stroke-width:2.5;stroke-linecap:round;filter:url(#DS_1);}
			.st1{fill:none;stroke:#a6a6a6;stroke-width:2.75;stroke-linecap:round;}
		</style>
		<path class="st0" d="M7.1,60.9c0.4,0.4,0.7,0.7,1.1,1"/>
		<path class="st0" d="M6.2,94c0.6,0.7,1.2,1.4,2,1.9"/>
		<path class="st0" d="M5.4,126.9c0.8,1.2,1.7,2.2,2.8,3"/>
		<path class="st0" d="M4.7,159.7c0.9,1.6,2.1,3.1,3.5,4.2"/>
		<path class="st0" d="M4.1,192.5c0.9,2.2,2.3,4,4.1,5.5"/>
		<path class="st0" d="M3.6,225.1c0.8,2.7,2.5,5.1,4.6,6.8"/>
		<path class="st0" d="M3.3,257.8c0.7,3.3,2.5,6.1,4.9,8.1"/>
		<path class="st0" d="M3.1,290.5c0.4,3.8,2.4,7.2,5.1,9.4"/>
		<path class="st0" d="M3,323c0,4.4,2.1,8.4,5.2,10.9"/>
		<path class="st0" d="M3.1,355.7c0,0.4-0.1,0.9-0.1,1.3c0,4.4,2.1,8.4,5.2,10.9"/>
		<path class="st0" d="M3.3,388.3C3.1,389.2,3,390.1,3,391c0,4.4,2.1,8.4,5.2,10.9"/>
		<path class="st0" d="M3.6,421c-0.4,1.3-0.6,2.6-0.6,4c0,4.4,2.1,8.4,5.2,10.9"/>
		<path class="st0" d="M4,453.7c-0.7,1.6-1,3.4-1,5.3c0,4.4,2.1,8.4,5.2,10.9"/>
		<path class="st0" d="M4.6,486.5c-1,2-1.6,4.2-1.6,6.5c0,4.4,2.1,8.4,5.2,10.9"/>
		<path class="st0" d="M5.3,519.3C3.9,521.5,3,524.2,3,527c0,4.4,2.1,8.4,5.2,10.9"/>
		<path class="st0" d="M6.3,552.2c-2,2.4-3.2,5.5-3.2,8.8c0,4.4,2.1,8.4,5.2,10.9"/>
		<path class="st0" d="M7.2,585.2c-2.5,2.5-4.1,6-4.1,9.9c0,4.4,2.1,8.4,5.2,10.9"/>
		<path class="st0" d="M8.3,618.2c-3.1,2.6-5.1,6.5-5.1,10.8c0,4.4,2.1,8.4,5.2,10.9"/>
		<path class="st0" d="M9.4,651.4c-3.7,2.5-6.2,6.8-6.2,11.6c0,4.4,2.1,8.4,5.2,10.9"/>
		<path class="st0" d="M10.5,684.7c-4.4,2.4-7.4,7-7.4,12.3c0,4.4,2.1,8.4,5.2,10.9"/>
		<path class="st0" d="M11.8,718.1c-5,2.1-8.6,7.1-8.6,12.9c0,4.4,2.1,8.4,5.2,10.9"/>
		<path class="st0" d="M13.1,751.6c-5.7,1.8-9.9,7.1-9.9,13.4c0,4.4,2.1,8.4,5.2,10.9"/>
		<path class="st0" d="M14.4,785.3c-6.4,1.3-11.2,7-11.2,13.7c0,4.4,2.1,8.4,5.2,10.9"/>
		<path class="st0" d="M15.8,819.1c-7.1,0.7-12.6,6.7-12.6,13.9c0,4.4,2.1,8.4,5.2,10.9"/>
		<path class="st0" d="M17.2,853C17.1,853,17.1,853,17.2,853c-7.7,0-14,6.3-14,14c0,4.4,2.1,8.4,5.2,10.9"/>
		<path class="st0" d="M18.5,887.1c-0.4,0-0.9-0.1-1.4-0.1c-7.7,0-14,6.3-14,14c0,4.4,2.1,8.4,5.2,10.9"/>
		<path class="st0" d="M19.9,921.3c-0.9-0.2-1.8-0.3-2.7-0.3c-7.7,0-14,6.3-14,14c0,4.4,2.1,8.4,5.2,10.9"/>
		<path class="st0" d="M21.2,955.6c-1.3-0.4-2.6-0.6-4.1-0.6c-7.7,0-14,6.3-14,14c0,4.4,2.1,8.4,5.2,10.9"/>
		<path class="st0" d="M22.5,990.1c-1.7-0.7-3.5-1.1-5.3-1.1c-7.7,0-14,6.3-14,14c0,4.4,2.1,8.4,5.2,10.9"/>
		<path class="st0" d="M23.8,1024.7c-2-1.1-4.3-1.7-6.7-1.7c-7.7,0-14,6.3-14,14c0,4.4,2.1,8.4,5.2,10.9"/>
		<path class="st0" d="M24.9,1059.4c-2.2-1.5-4.9-2.4-7.8-2.4c-7.7,0-14,6.3-14,14c0,4.4,2.1,8.4,5.2,10.9"/>
		<path class="st0" d="M25.9,1094.2c-2.4-2-5.5-3.2-8.9-3.2c-7.7,0-14,6.3-14,14c0,4.4,2.1,8.4,5.2,10.9"/>
		<path class="st0" d="M26.9,1129.1c-2.5-2.5-6-4.1-9.9-4.1c-7.7,0-14,6.3-14,14c0,4.4,2.1,8.4,5.2,10.9"/>
		<path class="st0" d="M27.8,1164.2c-2.6-3.1-6.5-5.1-10.8-5.1c-7.7,0-14,6.3-14,14c0,4.4,2.1,8.4,5.2,10.9"/>
		<path class="st0" d="M28.6,1199.2c-2.5-3.8-6.8-6.2-11.6-6.2c-7.7,0-14,6.3-14,14c0,4.4,2.1,8.4,5.2,10.9"/>
		<path class="st0" d="M29.3,1234.4c-2.4-4.4-7-7.4-12.3-7.4c-7.7,0-14,6.3-14,14c0,4.4,2.1,8.4,5.2,10.9"/>
		<path class="st0" d="M30.1,1269.7c-2.1-5.1-7.1-8.7-12.9-8.7c-7.7,0-14,6.3-14,14c0,4.4,2.1,8.4,5.2,10.9"/>
		<path class="st0" d="M30.6,1305c-1.7-5.7-7.1-10-13.4-10c-7.7,0-14,6.3-14,14c0,4.4,2.1,8.4,5.2,10.9"/>
		<path class="st0" d="M30.9,1340.3c-1.3-6.4-7-11.3-13.7-11.3c-7.7,0-14,6.3-14,14c0,4.4,2.1,8.4,5.2,10.9"/>
		<path class="st0" d="M31.1,1375.7c-0.7-7.1-6.7-12.7-13.9-12.7c-7.7,0-14,6.3-14,14c0,4.4,2.1,8.4,5.2,10.9"/>
		<path class="st0" d="M31.2,1411c0-7.7-6.3-14-14-14s-14,6.3-14,14c0,4.4,2.1,8.4,5.2,10.9"/>
		<path class="st0" d="M31.1,1446.4c0-0.5,0.1-0.9,0.1-1.4c0-7.7-6.3-14-14-14s-14,6.3-14,14c0,4.4,2.1,8.4,5.2,10.9"/>
		<path class="st0" d="M30.9,1481.8c0.2-0.9,0.3-1.8,0.3-2.8c0-7.7-6.3-14-14-14s-14,6.3-14,14c0,4.4,2.1,8.4,5.2,10.9"/>
		<path class="st0" d="M30.5,1517.1c0.4-1.3,0.6-2.7,0.6-4.1c0-7.7-6.3-14-14-14s-14,6.3-14,14c0,4.4,2.1,8.4,5.2,10.9"/>
		<path class="st0" d="M30.1,1552.4c0.7-1.7,1.1-3.5,1.1-5.4c0-7.7-6.3-14-14-14s-14,6.3-14,14c0,4.4,2.1,8.4,5.2,10.9"/>
		<path class="st0" d="M29.5,1587.7c1.1-2,1.7-4.3,1.7-6.6c0-7.7-6.3-14-14-14s-14,6.3-14,14c0,4.4,2.1,8.4,5.2,10.9"/>
		<path class="st0" d="M28.8,1622.8c1.5-2.2,2.4-4.9,2.4-7.8c0-7.7-6.3-14-14-14s-14,6.3-14,14c0,4.4,2.1,8.4,5.2,10.9"/>
		<path class="st0" d="M27.9,1657.9c2-2.4,3.2-5.6,3.2-8.9c0-7.7-6.3-14-14-14s-14,6.3-14,14c0,4.4,2.1,8.4,5.2,10.9"/>
		<path class="st0" d="M27,1693c2.5-2.5,4.1-6.1,4.1-10c0-7.7-6.3-14-14-14s-14,6.3-14,14c0,4.4,2.1,8.4,5.2,10.9"/>
		<path class="st0" d="M26,1727.9c3.1-2.5,5.2-6.5,5.2-10.9c0-7.7-6.3-14-14-14s-14,6.3-14,14c0,4.4,2.1,8.4,5.2,10.9"/>
		<path class="st1" d="M25.8,27.9C28.9,25.4,31,21.4,31,17c0-7.7-6.3-14-14-14S3,9.3,3,17c0,4.4,2.1,8.4,5.2,10.9L17,17"/>
		<path class="st1" d="M25.8,61.9c2.8-2.2,4.8-5.6,5.1-9.5c0.8-7.7-4.9-14.6-12.6-15.3S3.8,42,3.1,49.7C2.6,54,4.3,58.2,7.2,61L17,51" />
		<path class="st1" d="M25.8,95.9c2.4-2,4.3-4.8,4.9-8.2c1.5-7.6-3.4-15-11-16.5s-15,3.4-16.5,11c-0.9,4.3,0.4,8.6,3,11.7L17,85"/>
		<path class="st1" d="M25.8,129.9c2.1-1.7,3.8-4,4.6-6.8c2.2-7.4-2-15.2-9.3-17.5c-7.4-2.2-15.2,2-17.5,9.3 c-1.3,4.2-0.4,8.6,1.8,11.9L17,119"/>
		<path class="st1" d="M25.8,163.9c1.8-1.4,3.2-3.3,4.1-5.5c3-7.1-0.4-15.3-7.6-18.3S7,140.5,4.1,147.6c-1.7,4.1-1.3,8.6,0.6,12.1 L17,153"/>
		<path class="st1" d="M25.8,197.9c1.4-1.1,2.6-2.6,3.5-4.3c3.6-6.8,1.1-15.3-5.7-19s-15.3-1.1-19,5.7c-2.1,3.9-2.1,8.4-0.6,12.1 l13-5.4"/>
		<path class="st1" d="M25.8,231.9c1.1-0.9,2-1.9,2.8-3.1c4.3-6.4,2.6-15.1-3.8-19.4s-15.1-2.6-19.4,3.8c-2.5,3.7-2.9,8.1-1.8,11.9 L17,221"/>
		<path class="st1" d="M25.8,265.9c0.7-0.6,1.4-1.2,2-2c4.9-5.9,4-14.8-1.9-19.7s-14.8-4-19.7,1.9c-2.8,3.4-3.7,7.8-2.9,11.7L17,255" />
		<path class="st1" d="M25.8,299.9c0.4-0.3,0.7-0.6,1.1-1c5.5-5.4,5.5-14.3,0-19.8c-5.4-5.5-14.3-5.5-19.8,0 c-3.1,3.1-4.5,7.4-4.1,11.4l14-1.5"/>
		<path class="st1" d="M25.8,334l0.1-0.1c6-4.9,6.9-13.7,2-19.7s-13.7-6.9-19.7-2C4.7,315,3,319.1,3,323.1l14-0.1"/>
		<path class="st1" d="M25.7,367.9c5.5-4.5,6.9-12.6,2.9-18.6c-4.3-6.4-13-8.2-19.4-3.9c-3.7,2.4-5.8,6.4-6.2,10.4l14,1.2"/>
		<path class="st1" d="M25.8,401.9c5.1-4.1,6.8-11.5,3.6-17.5c-3.6-6.8-12.1-9.4-18.9-5.8c-3.9,2.1-6.4,5.8-7.2,9.7L17,391"/>
		<path class="st1" d="M25.8,435.9c4.7-3.8,6.6-10.4,4.2-16.2c-2.9-7.1-11.1-10.6-18.3-7.6c-4.1,1.7-7,5.1-8.1,8.9l13.4,4"/>
		<path class="st1" d="M25.8,469.9c4.3-3.5,6.3-9.3,4.6-14.9c-2.2-7.4-10.1-11.6-17.4-9.4c-4.2,1.3-7.4,4.4-8.9,8.1l13,5.3"/>
		<path class="st1" d="M25.8,503.9c3.9-3.2,6-8.3,5-13.6c-1.5-7.6-8.9-12.5-16.4-11.1c-4.3,0.8-7.8,3.7-9.7,7.2L17,493"/>
		<path class="st1" d="M25.8,537.9c3.5-2.9,5.6-7.4,5.2-12.2c-0.7-7.7-7.6-13.3-15.3-12.6c-4.4,0.4-8.2,2.9-10.4,6.2L17,527"/>
		<path class="st1" d="M25.9,571.9c3.2-2.6,5.2-6.5,5.2-10.8c0-7.7-6.2-14-13.9-14.1c-4.4,0-8.4,2.1-10.9,5.2l10.9,8.8"/>
		<path class="st1" d="M25.9,605.9c2.8-2.3,4.7-5.6,5.1-9.4c0.8-7.7-4.8-14.6-12.5-15.4c-4.4-0.5-8.6,1.2-11.4,4.1l9.9,9.9"/>
		<path class="st1" d="M25.9,639.9c2.5-2,4.3-4.8,4.9-8.1c1.5-7.5-3.4-15-10.9-16.5c-4.3-0.9-8.7,0.4-11.7,2.9l8.9,10.8"/>
		<path class="st1" d="M25.9,673.9c2.1-1.7,3.7-4,4.6-6.8c2.3-7.4-1.9-15.2-9.2-17.5c-4.2-1.3-8.6-0.5-11.9,1.8l7.8,11.6"/>
		<path class="st1" d="M25.9,707.9c1.8-1.4,3.2-3.3,4.1-5.5c3-7.1-0.4-15.3-7.5-18.3c-4.1-1.7-8.6-1.3-12.1,0.6L17,697"/>
		<path class="st1" d="M25.9,742c1.4-1.1,2.6-2.6,3.6-4.3c3.7-6.8,1.1-15.3-5.6-19c-3.9-2.1-8.4-2.2-12.1-0.6l5.4,12.9"/>
		<path class="st1" d="M25.9,775.9c1.1-0.9,2-1.9,2.8-3.1c4.3-6.4,2.6-15.1-3.8-19.4c-3.6-2.5-8.1-3-11.9-1.8l4.1,13.4"/>
		<path class="st1" d="M26,809.9c0.7-0.6,1.4-1.2,2-1.9c4.9-5.9,4.1-14.8-1.8-19.7c-3.4-2.8-7.8-3.8-11.7-3l2.8,13.7"/>
		<path class="st1" d="M25.9,843.9c0.4-0.3,0.7-0.6,1.1-1c5.5-5.4,5.5-14.3,0.1-19.8c-3.1-3.1-7.4-4.5-11.4-4.1l1.4,13.9"/>
		<path class="st1" d="M26,877.9c6-4.8,6.9-13.7,2.1-19.7c-2.8-3.4-6.9-5.2-10.9-5.2v14"/>
		<path class="st1" d="M26,911.9c5.5-4.5,6.9-12.5,2.9-18.6c-2.4-3.7-6.4-5.9-10.3-6.2L17.2,901"/>
		<path class="st1" d="M26,945.9c5.1-4.1,6.7-11.4,3.6-17.4c-2-3.9-5.8-6.5-9.7-7.2L17.2,935"/>
		<path class="st1" d="M26,979.9c4.7-3.8,6.5-10.3,4.2-16.2c-1.7-4.1-5.1-7-8.9-8.1L17.2,969"/>
		<path class="st1" d="M26,1013.9c4.3-3.5,6.3-9.3,4.6-14.9c-1.2-4.2-4.4-7.5-8.1-9l-5.4,12.9"/>
		<path class="st1" d="M26,1047.9c3.9-3.1,6-8.3,5-13.5c-0.8-4.3-3.6-7.9-7.2-9.7l-6.6,12.4"/>
		<path class="st1" d="M26,1081.9c3.5-2.8,5.6-7.3,5.2-12.1c-0.4-4.4-2.8-8.2-6.2-10.4l-7.8,11.6"/>
		<path class="st1" d="M25.8,1115.9c3.1-2.5,5.2-6.4,5.2-10.8s-2-8.4-5.1-10.9L17,1105"/>
		<path class="st1" d="M25.8,1149.9c2.8-2.3,4.7-5.6,5.1-9.4c0.5-4.4-1.2-8.6-4-11.4L17,1139"/>
		<path class="st1" d="M25.8,1183.9c2.5-2,4.3-4.8,5-8.1c0.9-4.3-0.3-8.7-2.9-11.7L17,1173"/>
		<path class="st1" d="M25.8,1217.9c2.1-1.7,3.7-4,4.6-6.7c1.3-4.2,0.5-8.6-1.7-12L17,1207"/>
		<path class="st1" d="M25.8,1251.9c1.7-1.4,3.2-3.2,4.1-5.4c1.7-4,1.4-8.6-0.5-12.1L17,1241"/>
		<path class="st1" d="M26,1285.9c1.4-1.1,2.6-2.5,3.5-4.2c2.1-3.9,2.2-8.4,0.7-12.1l-13,5.3"/>
		<path class="st1" d="M26,1319.9c1-0.8,2-1.8,2.8-3c2.5-3.6,3-8.1,1.9-11.9l-13.4,4"/>
		<path class="st1" d="M26,1353.9c0.7-0.6,1.3-1.2,1.9-1.9c2.8-3.4,3.8-7.8,3-11.7l-13.7,2.7"/>
		<path class="st1" d="M26,1387.9c0.3-0.3,0.7-0.6,1-0.9c3.1-3.1,4.5-7.4,4.1-11.3l-13.9,1.3"/>
		<path class="st1" d="M25.9,1421.9c3.4-2.8,5.2-6.9,5.2-10.9h-14"/>
		<path class="st1" d="M26,1455.9c3-2.4,4.8-5.9,5.1-9.5l-13.9-1.4"/>
		<path class="st1" d="M26,1489.9c2.6-2.1,4.3-5,4.9-8.1l-13.7-2.8"/>
		<path class="st1" d="M26,1523.9c2.2-1.8,3.8-4.2,4.6-6.8l-13.4-4.1"/>
		<path class="st1" d="M26,1557.9c1.8-1.5,3.3-3.4,4.1-5.5l-12.9-5.4"/>
		<path class="st1" d="M26,1591.9c1.5-1.2,2.7-2.6,3.5-4.2l-12.3-6.7"/>
		<path class="st1" d="M26,1625.9c1.1-0.9,2.1-1.9,2.8-3.1l-11.6-7.8"/>
		<path class="st1" d="M26,1659.9c0.7-0.6,1.4-1.2,2-2l-10.8-8.9"/>
		<path class="st1" d="M26,1693.9c0.4-0.3,0.7-0.6,1.1-0.9l-9.9-10"/>
		<path class="st1" d="M26,1727.9l-8.8-10.9"/>
	</svg>

	<svg id="pan-knob" viewBox="0 0 34 1734">
		<filter id="DS_1" x="-40%" y="-40%" width="180%" height="180%">
			<feDropShadow dx="0" dy="0" stdDeviation="1" flood-color="#f90" flood-opacity="1" />
		</filter>
		<style type="text/css">
			.st0{fill:none;stroke:#f90;stroke-width:2.5;stroke-linecap:round;filter:url(#DS_1);}
			.st1{fill:none;stroke:#a6a6a6;stroke-width:2.75;stroke-linecap:round;}
		</style>
		<path class="st0" d="M25.8,1727.9c3.1-2.5,5.2-6.5,5.2-10.9c0-7.7-6.3-14-14-14"/>
		<path class="st0" d="M17,275c-7.7,0-14,6.3-14,14c0,0.5,0,1,0.1,1.4"/>
		<path class="st0" d="M17,309c-7.7,0-14,6.3-14,14"/>
		<path class="st0" d="M17,343c-7.2,0-13.2,5.5-13.9,12.6"/>
		<path class="st0" d="M17,377c-6.8,0-12.5,4.9-13.7,11.3"/>
		<path class="st0" d="M17,411c-6.3,0-11.7,4.2-13.4,10"/>
		<path class="st0" d="M17,445c-5.8,0-10.8,3.6-12.9,8.7"/>
		<path class="st0" d="M25.8,469.9"/>
		<path class="st0" d="M17,479c-5.3,0-10,3-12.4,7.4"/>
		<path class="st0" d="M17,513c-4.8,0-9.1,2.5-11.6,6.3"/>
		<path class="st0" d="M17,3C9.3,3,3,9.3,3,17c0,4.4,2.1,8.4,5.2,10.9"/>
		<path class="st0" d="M17,37C9.3,37,3,43.3,3,51c0,3.8,1.6,7.4,4.1,9.9"/>
		<path class="st0" d="M17,71C9.3,71,3,77.3,3,85c0,3.4,1.2,6.5,3.2,8.9"/>
		<path class="st0" d="M17,105c-7.7,0-14,6.3-14,14c0,2.9,0.9,5.6,2.4,7.8"/>
		<path class="st0" d="M17,139c-7.7,0-14,6.3-14,14c0,2.4,0.6,4.7,1.7,6.7"/>
		<path class="st0" d="M17,173c-7.7,0-14,6.3-14,14c0,1.9,0.4,3.8,1.1,5.4"/>
		<path class="st0" d="M17,207c-7.7,0-14,6.3-14,14c0,1.4,0.2,2.8,0.6,4.1"/>
		<path class="st0" d="M17,241c-7.7,0-14,6.3-14,14c0,1,0.1,1.9,0.3,2.8"/>
		<path class="st0" d="M17,547c-4.4,0-8.3,2-10.8,5.2"/>
		<path class="st0" d="M17,581c-3.8,0-7.3,1.6-9.9,4.1"/>
		<path class="st0" d="M17,615c-3.4,0-6.5,1.2-8.9,3.2"/>
		<path class="st0" d="M17,649c-2.9,0-5.6,0.9-7.8,2.4"/>
		<path class="st0" d="M17,683c-2.4,0-4.6,0.6-6.6,1.7"/>
		<path class="st0" d="M17,717c-1.9,0-3.7,0.4-5.4,1.1"/>
		<path class="st0" d="M17,751c-1.4,0-2.8,0.2-4.1,0.6"/>
		<path class="st0" d="M17,785c-0.9,0-1.9,0.1-2.7,0.3"/>
		<path class="st0" d="M17,819"/>
		<path class="st0" d="M17,887"/>
		<path class="st0" d="M17,921"/>
		<path class="st0" d="M17,955"/>
		<path class="st0" d="M17,989"/>
		<path class="st0" d="M17,1023"/>
		<path class="st0" d="M17,1057"/>
		<path class="st0" d="M25.9,1094.2c-2.4-2-5.5-3.2-8.9-3.2"/>
		<path class="st0" d="M26.9,1129.2c-2.5-2.5-6-4.1-9.9-4.1"/>
		<path class="st0" d="M27.8,1164.2c-2.6-3.1-6.5-5.2-10.8-5.2"/>
		<path class="st0" d="M28.7,1199.3c-2.5-3.8-6.8-6.3-11.6-6.3"/>
		<path class="st0" d="M29.4,1234.4c-2.4-4.4-7-7.4-12.4-7.4"/>
		<path class="st0" d="M29.9,1269.7c-2.1-5.1-7.1-8.7-12.9-8.7"/>
		<path class="st0" d="M30.4,1305c-1.7-5.8-7.1-10-13.4-10"/>
		<path class="st0" d="M30.7,1340.4c-1.3-6.4-7-11.3-13.7-11.3"/>
		<path class="st0" d="M17,819c-0.5,0-0.9,0-1.4,0.1"/>
		<path class="st0" d="M18.4,887.1c-0.5,0-0.9-0.1-1.4-0.1"/>
		<path class="st0" d="M19.7,921.3c-0.9-0.2-1.8-0.3-2.7-0.3"/>
		<path class="st0" d="M21.1,955.6c-1.3-0.4-2.7-0.6-4.1-0.6"/>
		<path class="st0" d="M22.4,990.1c-1.7-0.7-3.5-1.1-5.4-1.1"/>
		<path class="st0" d="M23.6,1024.7c-2-1.1-4.2-1.7-6.6-1.7"/>
		<path class="st0" d="M24.8,1059.4c-2.2-1.5-4.9-2.4-7.8-2.4"/>
		<path class="st0" d="M30.9,1375.7c-0.7-7.1-6.7-12.7-13.9-12.7"/>
		<path class="st0" d="M31,1411c0-7.7-6.3-14-14-14"/>
		<path class="st0" d="M30.9,1446.4c0-0.5,0.1-1,0.1-1.4c0-7.7-6.3-14-14-14"/>
		<path class="st0" d="M30.7,1481.8c0.2-0.9,0.3-1.8,0.3-2.8c0-7.7-6.3-14-14-14"/>
		<path class="st0" d="M30.4,1517.1c0.4-1.3,0.6-2.7,0.6-4.1c0-7.7-6.3-14-14-14"/>
		<path class="st0" d="M29.9,1552.5c0.7-1.7,1.1-3.5,1.1-5.4c0-7.7-6.3-14-14-14"/>
		<path class="st0" d="M29.3,1587.7c1.1-2,1.7-4.3,1.7-6.7c0-7.7-6.3-14-14-14"/>
		<path class="st0" d="M28.6,1622.9c1.5-2.2,2.4-5,2.4-7.8c0-7.7-6.3-14-14-14"/>
		<path class="st0" d="M27.8,1658c2-2.4,3.2-5.6,3.2-8.9c0-7.7-6.3-14-14-14"/>
		<path class="st0" d="M26.8,1693c2.5-2.5,4.2-6.1,4.2-10c0-7.7-6.3-14-14-14"/>
		<path class="st1" d="M17,1703c-7.7,0-14,6.3-14,14c0,4.4,2.1,8.4,5.2,10.9"/>
		<path class="st1" d="M25.8,1727.9"/>
		<path class="st1" d="M8.2,27.9"/>
		<path class="st1" d="M25.8,27.9C28.9,25.4,31,21.4,31,17c0-7.7-6.3-14-14-14"/>
		<path class="st1" d="M8.2,61.9"/>
		<path class="st1" d="M25.8,61.9C28.9,59.4,31,55.4,31,51c0-7.7-6.3-14-14-14"/>
		<path class="st1" d="M8.2,95.9"/>
		<path class="st1" d="M25.8,95.9C28.9,93.4,31,89.4,31,85c0-7.7-6.3-14-14-14"/>
		<path class="st1" d="M8.2,129.9"/>
		<path class="st1" d="M25.8,129.9c3.1-2.5,5.2-6.5,5.2-10.9c0-7.7-6.3-14-14-14"/>
		<path class="st1" d="M8.2,163.9"/>
		<path class="st1" d="M25.8,163.9c3.1-2.5,5.2-6.5,5.2-10.9c0-7.7-6.3-14-14-14"/>
		<path class="st1" d="M8.2,197.9"/>
		<path class="st1" d="M25.8,197.9c3.1-2.5,5.2-6.5,5.2-10.9c0-7.7-6.3-14-14-14"/>
		<path class="st1" d="M8.2,231.9"/>
		<path class="st1" d="M25.8,231.9c3.1-2.5,5.2-6.5,5.2-10.9c0-7.7-6.3-14-14-14"/>
		<path class="st1" d="M8.2,265.9"/>
		<path class="st1" d="M25.8,265.9c3.1-2.5,5.2-6.5,5.2-10.9c0-7.7-6.3-14-14-14"/>
		<path class="st1" d="M25.8,299.9c3.1-2.5,5.2-6.5,5.2-10.9c0-7.7-6.3-14-14-14"/>
		<path class="st1" d="M25.8,333.9c3.1-2.5,5.2-6.5,5.2-10.9c0-7.7-6.3-14-14-14"/>
		<path class="st1" d="M25.8,367.9c3.1-2.5,5.2-6.5,5.2-10.9c0-7.7-6.3-14-14-14"/>
		<path class="st1" d="M25.8,401.9c3.1-2.5,5.2-6.5,5.2-10.9c0-7.7-6.3-14-14-14"/>
		<path class="st1" d="M25.8,435.9c3.1-2.5,5.2-6.5,5.2-10.9c0-7.7-6.3-14-14-14"/>
		<path class="st1" d="M25.8,469.9c3.1-2.5,5.2-6.5,5.2-10.9c0-7.7-6.3-14-14-14"/>
		<path class="st1" d="M25.8,503.9c3.1-2.5,5.2-6.5,5.2-10.9c0-7.7-6.3-14-14-14"/>
		<path class="st1" d="M25.8,537.9c3.1-2.5,5.2-6.5,5.2-10.9c0-7.7-6.3-14-14-14"/>
		<path class="st1" d="M25.8,571.9c3.1-2.5,5.2-6.5,5.2-10.9c0-7.7-6.3-14-14-14"/>
		<path class="st1" d="M25.8,605.9c3.1-2.5,5.2-6.5,5.2-10.9c0-7.7-6.3-14-14-14"/>
		<path class="st1" d="M25.8,639.9c3.1-2.5,5.2-6.5,5.2-10.9c0-7.7-6.3-14-14-14"/>
		<path class="st1" d="M25.8,673.9c3.1-2.5,5.2-6.5,5.2-10.9c0-7.7-6.3-14-14-14"/>
		<path class="st1" d="M25.8,707.9c3.1-2.5,5.2-6.5,5.2-10.9c0-7.7-6.3-14-14-14"/>
		<path class="st1" d="M25.8,741.9c3.1-2.5,5.2-6.5,5.2-10.9c0-7.7-6.3-14-14-14"/>
		<path class="st1" d="M25.8,775.9c3.1-2.5,5.2-6.5,5.2-10.9c0-7.7-6.3-14-14-14"/>
		<path class="st1" d="M25.8,809.9c3.1-2.5,5.2-6.5,5.2-10.9c0-7.7-6.3-14-14-14"/>
		<path class="st1" d="M25.8,843.9c3.1-2.5,5.2-6.5,5.2-10.9c0-7.7-6.3-14-14-14"/>
		<path class="st1" d="M25.8,877.9c3.1-2.5,5.2-6.5,5.2-10.9c0-7.7-6.3-14-14-14s-14,6.3-14,14c0,4.4,2.1,8.4,5.2,10.9"/>
		<path class="st1" d="M17,887c-7.7,0-14,6.3-14,14c0,4.4,2.1,8.4,5.2,10.9"/>
		<path class="st1" d="M17,921c-7.7,0-14,6.3-14,14c0,4.4,2.1,8.4,5.2,10.9"/>
		<path class="st1" d="M17,955c-7.7,0-14,6.3-14,14c0,4.4,2.1,8.4,5.2,10.9"/>
		<path class="st1" d="M17,989c-7.7,0-14,6.3-14,14c0,4.4,2.1,8.4,5.2,10.9"/>
		<path class="st1" d="M17,1023c-7.7,0-14,6.3-14,14c0,4.4,2.1,8.4,5.2,10.9"/>
		<path class="st1" d="M17,1057c-7.7,0-14,6.3-14,14c0,4.4,2.1,8.4,5.2,10.9"/>
		<path class="st1" d="M17,1091c-7.7,0-14,6.3-14,14c0,4.4,2.1,8.4,5.2,10.9"/>
		<path class="st1" d="M17,1125c-7.7,0-14,6.3-14,14c0,4.4,2.1,8.4,5.2,10.9"/>
		<path class="st1" d="M17,1159c-7.7,0-14,6.3-14,14c0,4.4,2.1,8.4,5.2,10.9"/>
		<path class="st1" d="M17,1193c-7.7,0-14,6.3-14,14c0,4.4,2.1,8.4,5.2,10.9"/>
		<path class="st1" d="M17,1227c-7.7,0-14,6.3-14,14c0,4.4,2.1,8.4,5.2,10.9"/>
		<path class="st1" d="M17,1261c-7.7,0-14,6.3-14,14c0,4.4,2.1,8.4,5.2,10.9"/>
		<path class="st1" d="M17,1295c-7.7,0-14,6.3-14,14c0,4.4,2.1,8.4,5.2,10.9"/>
		<path class="st1" d="M17,1329c-7.7,0-14,6.3-14,14c0,4.4,2.1,8.4,5.2,10.9"/>
		<path class="st1" d="M17,1363c-7.7,0-14,6.3-14,14c0,4.4,2.1,8.4,5.2,10.9"/>
		<path class="st1" d="M17,1397c-7.7,0-14,6.3-14,14c0,4.4,2.1,8.4,5.2,10.9"/>
		<path class="st1" d="M17,1431c-7.7,0-14,6.3-14,14c0,4.4,2.1,8.4,5.2,10.9"/>
		<path class="st1" d="M17,1465c-7.7,0-14,6.3-14,14c0,4.4,2.1,8.4,5.2,10.9"/>
		<path class="st1" d="M17,1499c-7.7,0-14,6.3-14,14c0,4.4,2.1,8.4,5.2,10.9"/>
		<path class="st1" d="M17,1533c-7.7,0-14,6.3-14,14c0,4.4,2.1,8.4,5.2,10.9"/>
		<path class="st1" d="M17,1567c-7.7,0-14,6.3-14,14c0,4.4,2.1,8.4,5.2,10.9"/>
		<path class="st1" d="M17,1601c-7.7,0-14,6.3-14,14c0,4.4,2.1,8.4,5.2,10.9"/>
		<path class="st1" d="M17,1635c-7.7,0-14,6.3-14,14c0,4.4,2.1,8.4,5.2,10.9"/>
		<path class="st1" d="M17,1669c-7.7,0-14,6.3-14,14c0,4.4,2.1,8.4,5.2,10.9"/>
		<line class="st1" x1="17" y1="1717" x2="25.8" y2="1727.9"/>
		<line class="st1" x1="17" y1="17" x2="8.2" y2="27.9"/>
		<path class="st1" d="M17,51l-9.9,9.9c0.4,0.4,0.7,0.7,1.1,1"/>
		<path class="st1" d="M17,85L6.2,93.9c0.6,0.7,1.3,1.4,2,2"/>
		<path class="st1" d="M17,119l-11.6,7.8c0.8,1.2,1.7,2.2,2.8,3.1"/>
		<path class="st1" d="M17,153l-12.3,6.7c0.9,1.7,2.1,3.1,3.5,4.2"/>
		<path class="st1" d="M17,187l-12.9,5.4c0.9,2.2,2.3,4.1,4.1,5.5"/>
		<path class="st1" d="M17,221l-13.4,4.1c0.8,2.7,2.5,5.1,4.6,6.8"/>
		<path class="st1" d="M17,255l-13.7,2.8c0.7,3.3,2.5,6.1,4.9,8.1"/>
		<path class="st1" d="M17,289l-13.9,1.4c0.4,3.8,2.4,7.2,5.1,9.5"/>
		<path class="st1" d="M17,323H3c0,4.4,2.1,8.4,5.2,10.9"/>
		<path class="st1" d="M17,357l-13.9-1.4C3,356,3,356.5,3,357c0,4.4,2.1,8.4,5.2,10.9"/>
		<path class="st1" d="M17,391l-13.7-2.8C3.1,389.1,3,390.1,3,391c0,4.4,2.1,8.4,5.2,10.9"/>
		<path class="st1" d="M17,425l-13.4-4c-0.4,1.3-0.6,2.6-0.6,4c0,4.4,2.1,8.4,5.2,10.9"/>
		<path class="st1" d="M17,459l-12.9-5.3C3.4,455.4,3,457.2,3,459c0,4.4,2.1,8.4,5.2,10.9"/>
		<path class="st1" d="M17,493l-12.4-6.6c-1,2-1.6,4.2-1.6,6.6c0,4.4,2.1,8.4,5.2,10.9"/>
		<path class="st1" d="M17,527l-11.6-7.7C3.9,521.5,3,524.2,3,527c0,4.4,2.1,8.4,5.2,10.9"/>
		<path class="st1" d="M17,561l-10.8-8.8c-2,2.4-3.2,5.5-3.2,8.8c0,4.4,2.1,8.4,5.2,10.9"/>
		<path class="st1" d="M17,595l-9.9-9.9c-2.5,2.5-4.1,6-4.1,9.9c0,4.4,2.1,8.4,5.2,10.9"/>
		<path class="st1" d="M17,629l-8.9-10.8C5,620.8,3,624.7,3,629c0,4.4,2.1,8.4,5.2,10.9"/>
		<path class="st1" d="M17,663l-7.8-11.6C5.5,653.9,3,658.2,3,663c0,4.4,2.1,8.4,5.2,10.9"/>
		<path class="st1" d="M17,697l-6.6-12.3C6,687,3,691.7,3,697c0,4.4,2.1,8.4,5.2,10.9"/>
		<path class="st1" d="M17,731l-5.4-12.9c-5,2.1-8.6,7.1-8.6,12.9c0,4.4,2.1,8.4,5.2,10.9"/>
		<path class="st1" d="M17,765l-4.1-13.4C7.2,753.4,3,758.7,3,765c0,4.4,2.1,8.4,5.2,10.9"/>
		<path class="st1" d="M17,799l-2.7-13.7C7.9,786.6,3,792.3,3,799c0,4.4,2.1,8.4,5.2,10.9"/>
		<path class="st1" d="M17,833l-1.4-13.9C8.6,819.8,3,825.8,3,833c0,4.4,2.1,8.4,5.2,10.9"/>
		<line class="st1" x1="17" y1="867" x2="17" y2="853"/>
		<path class="st1" d="M17,901l1.4-13.9c7.1,0.7,12.6,6.7,12.6,13.9c0,4.4-2.1,8.4-5.2,10.9"/>
		<path class="st1" d="M17,935l2.7-13.7c6.4,1.3,11.3,7,11.3,13.7c0,4.4-2.1,8.4-5.2,10.9"/>
		<path class="st1" d="M17,969l4.1-13.4c5.7,1.8,9.9,7.1,9.9,13.4c0,4.4-2.1,8.4-5.2,10.9"/>
		<path class="st1" d="M17,1003l5.4-12.9c5.1,2.1,8.6,7.1,8.6,12.9c0,4.4-2.1,8.4-5.2,10.9"/>
		<path class="st1" d="M17,1037l6.6-12.3c4.4,2.4,7.4,7,7.4,12.3c0,4.4-2.1,8.4-5.2,10.9"/>
		<path class="st1" d="M17,1071l7.8-11.6c3.7,2.5,6.2,6.8,6.2,11.6c0,4.4-2.1,8.4-5.2,10.9"/>
		<path class="st1" d="M17,1105l8.9-10.8c3.1,2.6,5.1,6.5,5.1,10.8c0,4.4-2.1,8.4-5.2,10.9"/>
		<path class="st1" d="M17,1139l9.9-9.9c2.5,2.5,4.1,6,4.1,9.9c0,4.4-2.1,8.4-5.2,10.9"/>
		<path class="st1" d="M17,1173l10.8-8.8c2,2.4,3.2,5.5,3.2,8.8c0,4.4-2.1,8.4-5.2,10.9"/>
		<path class="st1" d="M17,1207l11.6-7.7c1.5,2.2,2.4,4.9,2.4,7.7c0,4.4-2.1,8.4-5.2,10.9"/>
		<path class="st1" d="M17,1241l12.4-6.6c1,2,1.6,4.2,1.6,6.6c0,4.4-2.1,8.4-5.2,10.9"/>
		<path class="st1" d="M17,1275l12.9-5.3c0.7,1.6,1.1,3.4,1.1,5.3c0,4.4-2.1,8.4-5.2,10.9"/>
		<path class="st1" d="M17,1309l13.4-4c0.4,1.3,0.6,2.6,0.6,4c0,4.4-2.1,8.4-5.2,10.9"/>
		<path class="st1" d="M17,1343l13.7-2.7l0,0c0.2,0.9,0.3,1.8,0.3,2.7c0,4.4-2.1,8.4-5.2,10.9"/>
		<path class="st1" d="M17,1377l13.9-1.3l0,0c0,0.4,0.1,0.9,0.1,1.3c0,4.4-2.1,8.4-5.2,10.9"/>
		<path class="st1" d="M17,1411h14c0,4.4-2.1,8.4-5.2,10.9"/>
		<path class="st1" d="M17,1445l13.9,1.4c-0.4,3.8-2.4,7.2-5.1,9.5"/>
		<path class="st1" d="M17,1479l13.7,2.8c-0.7,3.3-2.5,6.1-4.9,8.1"/>
		<path class="st1" d="M17,1513l13.4,4.1c-0.8,2.7-2.5,5.1-4.6,6.8"/>
		<path class="st1" d="M17,1547l12.9,5.4c-0.9,2.2-2.3,4.1-4.1,5.5"/>
		<path class="st1" d="M17,1581l12.3,6.7c-0.9,1.7-2.1,3.1-3.5,4.2"/>
		<path class="st1" d="M17,1615l11.6,7.8c-0.8,1.2-1.7,2.2-2.8,3.1"/>
		<path class="st1" d="M17,1649l10.8,8.9l0,0c-0.6,0.7-1.3,1.4-2,2"/>
		<path class="st1" d="M17,1683l9.8,10l0,0c-0.3,0.3-0.7,0.6-1,0.9"/>
	</svg>

</svg>

