<svg xmlns="http://www.w3.org/2000/svg" width="0" height="0">

	<svg id="icon-arrow" viewBox="0 0 500 500">
		<path fill="#999" d="M241.494,401.686L38.997,107.301c-4.664-8.506-0.549-15.365,9.055-15.365h403.896c9.604,0,13.721,6.859,9.056,15.365 L258.506,401.686C253.842,410.191,246.159,410.191,241.494,401.686z"/>
	</svg>

	<svg id="icon-mountain" viewBox="0 0 500 500">
		<polygon points="303.556,149.703 229.1,224.243 172.24,177.698 25.291,324.664 35.32,350.695 464.711,350.695 474.709,320.873 "/>
	</svg>

	<svg id="knob" viewBox="0 0 34 1734">
		<style type="text/css">
			.st0{fill:none;stroke:#f90;stroke-width:2.5;stroke-linecap:round;}
			.st1{fill:none;stroke:#b7b7b7;stroke-width:2.75;stroke-linecap:round;}
		</style>
		<path class="st0" d="M7.1,60.9c0.4,0.4,0.7,0.7,1.1,1"/>
		<path class="st0" d="M6.2,94c0.6,0.7,1.2,1.4,2,1.9"/>
		<path class="st0" d="M5.4,126.9c0.8,1.2,1.7,2.2,2.8,3"/>
		<path class="st0" d="M4.7,159.7c0.9,1.6,2.1,3.1,3.5,4.2"/>
		<path class="st0" d="M4.1,192.5c0.9,2.2,2.3,4,4.1,5.5"/>
		<path class="st0" d="M3.6,225.1c0.8,2.7,2.5,5.1,4.6,6.8"/>
		<path class="st0" d="M3.3,257.8c0.7,3.3,2.5,6.1,4.9,8.1"/>
		<path class="st0" d="M3.1,290.5c0.4,3.8,2.4,7.2,5.1,9.4"/>
		<path class="st0" d="M3,323c0,4.4,2.1,8.4,5.2,10.9"/>
		<path class="st0" d="M3.1,355.7c0,0.4-0.1,0.9-0.1,1.3c0,4.4,2.1,8.4,5.2,10.9"/>
		<path class="st0" d="M3.3,388.3C3.1,389.2,3,390.1,3,391c0,4.4,2.1,8.4,5.2,10.9"/>
		<path class="st0" d="M3.6,421c-0.4,1.3-0.6,2.6-0.6,4c0,4.4,2.1,8.4,5.2,10.9"/>
		<path class="st0" d="M4,453.7c-0.7,1.6-1,3.4-1,5.3c0,4.4,2.1,8.4,5.2,10.9"/>
		<path class="st0" d="M4.6,486.5c-1,2-1.6,4.2-1.6,6.5c0,4.4,2.1,8.4,5.2,10.9"/>
		<path class="st0" d="M5.3,519.3C3.9,521.5,3,524.2,3,527c0,4.4,2.1,8.4,5.2,10.9"/>
		<path class="st0" d="M6.3,552.2c-2,2.4-3.2,5.5-3.2,8.8c0,4.4,2.1,8.4,5.2,10.9"/>
		<path class="st0" d="M7.2,585.2c-2.5,2.5-4.1,6-4.1,9.9c0,4.4,2.1,8.4,5.2,10.9"/>
		<path class="st0" d="M8.3,618.2c-3.1,2.6-5.1,6.5-5.1,10.8c0,4.4,2.1,8.4,5.2,10.9"/>
		<path class="st0" d="M9.4,651.4c-3.7,2.5-6.2,6.8-6.2,11.6c0,4.4,2.1,8.4,5.2,10.9"/>
		<path class="st0" d="M10.5,684.7c-4.4,2.4-7.4,7-7.4,12.3c0,4.4,2.1,8.4,5.2,10.9"/>
		<path class="st0" d="M11.8,718.1c-5,2.1-8.6,7.1-8.6,12.9c0,4.4,2.1,8.4,5.2,10.9"/>
		<path class="st0" d="M13.1,751.6c-5.7,1.8-9.9,7.1-9.9,13.4c0,4.4,2.1,8.4,5.2,10.9"/>
		<path class="st0" d="M14.4,785.3c-6.4,1.3-11.2,7-11.2,13.7c0,4.4,2.1,8.4,5.2,10.9"/>
		<path class="st0" d="M15.8,819.1c-7.1,0.7-12.6,6.7-12.6,13.9c0,4.4,2.1,8.4,5.2,10.9"/>
		<path class="st0" d="M17.2,853C17.1,853,17.1,853,17.2,853c-7.7,0-14,6.3-14,14c0,4.4,2.1,8.4,5.2,10.9"/>
		<path class="st0" d="M18.5,887.1c-0.4,0-0.9-0.1-1.4-0.1c-7.7,0-14,6.3-14,14c0,4.4,2.1,8.4,5.2,10.9"/>
		<path class="st0" d="M19.9,921.3c-0.9-0.2-1.8-0.3-2.7-0.3c-7.7,0-14,6.3-14,14c0,4.4,2.1,8.4,5.2,10.9"/>
		<path class="st0" d="M21.2,955.6c-1.3-0.4-2.6-0.6-4.1-0.6c-7.7,0-14,6.3-14,14c0,4.4,2.1,8.4,5.2,10.9"/>
		<path class="st0" d="M22.5,990.1c-1.7-0.7-3.5-1.1-5.3-1.1c-7.7,0-14,6.3-14,14c0,4.4,2.1,8.4,5.2,10.9"/>
		<path class="st0" d="M23.8,1024.7c-2-1.1-4.3-1.7-6.7-1.7c-7.7,0-14,6.3-14,14c0,4.4,2.1,8.4,5.2,10.9"/>
		<path class="st0" d="M24.9,1059.4c-2.2-1.5-4.9-2.4-7.8-2.4c-7.7,0-14,6.3-14,14c0,4.4,2.1,8.4,5.2,10.9"/>
		<path class="st0" d="M25.9,1094.2c-2.4-2-5.5-3.2-8.9-3.2c-7.7,0-14,6.3-14,14c0,4.4,2.1,8.4,5.2,10.9"/>
		<path class="st0" d="M26.9,1129.1c-2.5-2.5-6-4.1-9.9-4.1c-7.7,0-14,6.3-14,14c0,4.4,2.1,8.4,5.2,10.9"/>
		<path class="st0" d="M27.8,1164.2c-2.6-3.1-6.5-5.1-10.8-5.1c-7.7,0-14,6.3-14,14c0,4.4,2.1,8.4,5.2,10.9"/>
		<path class="st0" d="M28.6,1199.2c-2.5-3.8-6.8-6.2-11.6-6.2c-7.7,0-14,6.3-14,14c0,4.4,2.1,8.4,5.2,10.9"/>
		<path class="st0" d="M29.3,1234.4c-2.4-4.4-7-7.4-12.3-7.4c-7.7,0-14,6.3-14,14c0,4.4,2.1,8.4,5.2,10.9"/>
		<path class="st0" d="M30.1,1269.7c-2.1-5.1-7.1-8.7-12.9-8.7c-7.7,0-14,6.3-14,14c0,4.4,2.1,8.4,5.2,10.9"/>
		<path class="st0" d="M30.6,1305c-1.7-5.7-7.1-10-13.4-10c-7.7,0-14,6.3-14,14c0,4.4,2.1,8.4,5.2,10.9"/>
		<path class="st0" d="M30.9,1340.3c-1.3-6.4-7-11.3-13.7-11.3c-7.7,0-14,6.3-14,14c0,4.4,2.1,8.4,5.2,10.9"/>
		<path class="st0" d="M31.1,1375.7c-0.7-7.1-6.7-12.7-13.9-12.7c-7.7,0-14,6.3-14,14c0,4.4,2.1,8.4,5.2,10.9"/>
		<path class="st0" d="M31.2,1411c0-7.7-6.3-14-14-14s-14,6.3-14,14c0,4.4,2.1,8.4,5.2,10.9"/>
		<path class="st0" d="M31.1,1446.4c0-0.5,0.1-0.9,0.1-1.4c0-7.7-6.3-14-14-14s-14,6.3-14,14c0,4.4,2.1,8.4,5.2,10.9"/>
		<path class="st0" d="M30.9,1481.8c0.2-0.9,0.3-1.8,0.3-2.8c0-7.7-6.3-14-14-14s-14,6.3-14,14c0,4.4,2.1,8.4,5.2,10.9"/>
		<path class="st0" d="M30.5,1517.1c0.4-1.3,0.6-2.7,0.6-4.1c0-7.7-6.3-14-14-14s-14,6.3-14,14c0,4.4,2.1,8.4,5.2,10.9"/>
		<path class="st0" d="M30.1,1552.4c0.7-1.7,1.1-3.5,1.1-5.4c0-7.7-6.3-14-14-14s-14,6.3-14,14c0,4.4,2.1,8.4,5.2,10.9"/>
		<path class="st0" d="M29.5,1587.7c1.1-2,1.7-4.3,1.7-6.6c0-7.7-6.3-14-14-14s-14,6.3-14,14c0,4.4,2.1,8.4,5.2,10.9"/>
		<path class="st0" d="M28.8,1622.8c1.5-2.2,2.4-4.9,2.4-7.8c0-7.7-6.3-14-14-14s-14,6.3-14,14c0,4.4,2.1,8.4,5.2,10.9"/>
		<path class="st0" d="M27.9,1657.9c2-2.4,3.2-5.6,3.2-8.9c0-7.7-6.3-14-14-14s-14,6.3-14,14c0,4.4,2.1,8.4,5.2,10.9"/>
		<path class="st0" d="M27,1693c2.5-2.5,4.1-6.1,4.1-10c0-7.7-6.3-14-14-14s-14,6.3-14,14c0,4.4,2.1,8.4,5.2,10.9"/>
		<path class="st0" d="M26,1727.9c3.1-2.5,5.2-6.5,5.2-10.9c0-7.7-6.3-14-14-14s-14,6.3-14,14c0,4.4,2.1,8.4,5.2,10.9"/>
		<path class="st1" d="M25.8,27.9C28.9,25.4,31,21.4,31,17c0-7.7-6.3-14-14-14S3,9.3,3,17c0,4.4,2.1,8.4,5.2,10.9L17,17"/>
		<path class="st1" d="M25.8,61.9c2.8-2.2,4.8-5.6,5.1-9.5c0.8-7.7-4.9-14.6-12.6-15.3S3.8,42,3.1,49.7C2.6,54,4.3,58.2,7.2,61L17,51" />
		<path class="st1" d="M25.8,95.9c2.4-2,4.3-4.8,4.9-8.2c1.5-7.6-3.4-15-11-16.5s-15,3.4-16.5,11c-0.9,4.3,0.4,8.6,3,11.7L17,85"/>
		<path class="st1" d="M25.8,129.9c2.1-1.7,3.8-4,4.6-6.8c2.2-7.4-2-15.2-9.3-17.5c-7.4-2.2-15.2,2-17.5,9.3 c-1.3,4.2-0.4,8.6,1.8,11.9L17,119"/>
		<path class="st1" d="M25.8,163.9c1.8-1.4,3.2-3.3,4.1-5.5c3-7.1-0.4-15.3-7.6-18.3S7,140.5,4.1,147.6c-1.7,4.1-1.3,8.6,0.6,12.1 L17,153"/>
		<path class="st1" d="M25.8,197.9c1.4-1.1,2.6-2.6,3.5-4.3c3.6-6.8,1.1-15.3-5.7-19s-15.3-1.1-19,5.7c-2.1,3.9-2.1,8.4-0.6,12.1 l13-5.4"/>
		<path class="st1" d="M25.8,231.9c1.1-0.9,2-1.9,2.8-3.1c4.3-6.4,2.6-15.1-3.8-19.4s-15.1-2.6-19.4,3.8c-2.5,3.7-2.9,8.1-1.8,11.9 L17,221"/>
		<path class="st1" d="M25.8,265.9c0.7-0.6,1.4-1.2,2-2c4.9-5.9,4-14.8-1.9-19.7s-14.8-4-19.7,1.9c-2.8,3.4-3.7,7.8-2.9,11.7L17,255" />
		<path class="st1" d="M25.8,299.9c0.4-0.3,0.7-0.6,1.1-1c5.5-5.4,5.5-14.3,0-19.8c-5.4-5.5-14.3-5.5-19.8,0 c-3.1,3.1-4.5,7.4-4.1,11.4l14-1.5"/>
		<path class="st1" d="M25.8,334l0.1-0.1c6-4.9,6.9-13.7,2-19.7s-13.7-6.9-19.7-2C4.7,315,3,319.1,3,323.1l14-0.1"/>
		<path class="st1" d="M25.7,367.9c5.5-4.5,6.9-12.6,2.9-18.6c-4.3-6.4-13-8.2-19.4-3.9c-3.7,2.4-5.8,6.4-6.2,10.4l14,1.2"/>
		<path class="st1" d="M25.8,401.9c5.1-4.1,6.8-11.5,3.6-17.5c-3.6-6.8-12.1-9.4-18.9-5.8c-3.9,2.1-6.4,5.8-7.2,9.7L17,391"/>
		<path class="st1" d="M25.8,435.9c4.7-3.8,6.6-10.4,4.2-16.2c-2.9-7.1-11.1-10.6-18.3-7.6c-4.1,1.7-7,5.1-8.1,8.9l13.4,4"/>
		<path class="st1" d="M25.8,469.9c4.3-3.5,6.3-9.3,4.6-14.9c-2.2-7.4-10.1-11.6-17.4-9.4c-4.2,1.3-7.4,4.4-8.9,8.1l13,5.3"/>
		<path class="st1" d="M25.8,503.9c3.9-3.2,6-8.3,5-13.6c-1.5-7.6-8.9-12.5-16.4-11.1c-4.3,0.8-7.8,3.7-9.7,7.2L17,493"/>
		<path class="st1" d="M25.8,537.9c3.5-2.9,5.6-7.4,5.2-12.2c-0.7-7.7-7.6-13.3-15.3-12.6c-4.4,0.4-8.2,2.9-10.4,6.2L17,527"/>
		<path class="st1" d="M25.9,571.9c3.2-2.6,5.2-6.5,5.2-10.8c0-7.7-6.2-14-13.9-14.1c-4.4,0-8.4,2.1-10.9,5.2l10.9,8.8"/>
		<path class="st1" d="M25.9,605.9c2.8-2.3,4.7-5.6,5.1-9.4c0.8-7.7-4.8-14.6-12.5-15.4c-4.4-0.5-8.6,1.2-11.4,4.1l9.9,9.9"/>
		<path class="st1" d="M25.9,639.9c2.5-2,4.3-4.8,4.9-8.1c1.5-7.5-3.4-15-10.9-16.5c-4.3-0.9-8.7,0.4-11.7,2.9l8.9,10.8"/>
		<path class="st1" d="M25.9,673.9c2.1-1.7,3.7-4,4.6-6.8c2.3-7.4-1.9-15.2-9.2-17.5c-4.2-1.3-8.6-0.5-11.9,1.8l7.8,11.6"/>
		<path class="st1" d="M25.9,707.9c1.8-1.4,3.2-3.3,4.1-5.5c3-7.1-0.4-15.3-7.5-18.3c-4.1-1.7-8.6-1.3-12.1,0.6L17,697"/>
		<path class="st1" d="M25.9,742c1.4-1.1,2.6-2.6,3.6-4.3c3.7-6.8,1.1-15.3-5.6-19c-3.9-2.1-8.4-2.2-12.1-0.6l5.4,12.9"/>
		<path class="st1" d="M25.9,775.9c1.1-0.9,2-1.9,2.8-3.1c4.3-6.4,2.6-15.1-3.8-19.4c-3.6-2.5-8.1-3-11.9-1.8l4.1,13.4"/>
		<path class="st1" d="M26,809.9c0.7-0.6,1.4-1.2,2-1.9c4.9-5.9,4.1-14.8-1.8-19.7c-3.4-2.8-7.8-3.8-11.7-3l2.8,13.7"/>
		<path class="st1" d="M25.9,843.9c0.4-0.3,0.7-0.6,1.1-1c5.5-5.4,5.5-14.3,0.1-19.8c-3.1-3.1-7.4-4.5-11.4-4.1l1.4,13.9"/>
		<path class="st1" d="M26,877.9c6-4.8,6.9-13.7,2.1-19.7c-2.8-3.4-6.9-5.2-10.9-5.2v14"/>
		<path class="st1" d="M26,911.9c5.5-4.5,6.9-12.5,2.9-18.6c-2.4-3.7-6.4-5.9-10.3-6.2L17.2,901"/>
		<path class="st1" d="M26,945.9c5.1-4.1,6.7-11.4,3.6-17.4c-2-3.9-5.8-6.5-9.7-7.2L17.2,935"/>
		<path class="st1" d="M26,979.9c4.7-3.8,6.5-10.3,4.2-16.2c-1.7-4.1-5.1-7-8.9-8.1L17.2,969"/>
		<path class="st1" d="M26,1013.9c4.3-3.5,6.3-9.3,4.6-14.9c-1.2-4.2-4.4-7.5-8.1-9l-5.4,12.9"/>
		<path class="st1" d="M26,1047.9c3.9-3.1,6-8.3,5-13.5c-0.8-4.3-3.6-7.9-7.2-9.7l-6.6,12.4"/>
		<path class="st1" d="M26,1081.9c3.5-2.8,5.6-7.3,5.2-12.1c-0.4-4.4-2.8-8.2-6.2-10.4l-7.8,11.6"/>
		<path class="st1" d="M25.8,1115.9c3.1-2.5,5.2-6.4,5.2-10.8s-2-8.4-5.1-10.9L17,1105"/>
		<path class="st1" d="M25.8,1149.9c2.8-2.3,4.7-5.6,5.1-9.4c0.5-4.4-1.2-8.6-4-11.4L17,1139"/>
		<path class="st1" d="M25.8,1183.9c2.5-2,4.3-4.8,5-8.1c0.9-4.3-0.3-8.7-2.9-11.7L17,1173"/>
		<path class="st1" d="M25.8,1217.9c2.1-1.7,3.7-4,4.6-6.7c1.3-4.2,0.5-8.6-1.7-12L17,1207"/>
		<path class="st1" d="M25.8,1251.9c1.7-1.4,3.2-3.2,4.1-5.4c1.7-4,1.4-8.6-0.5-12.1L17,1241"/>
		<path class="st1" d="M26,1285.9c1.4-1.1,2.6-2.5,3.5-4.2c2.1-3.9,2.2-8.4,0.7-12.1l-13,5.3"/>
		<path class="st1" d="M26,1319.9c1-0.8,2-1.8,2.8-3c2.5-3.6,3-8.1,1.9-11.9l-13.4,4"/>
		<path class="st1" d="M26,1353.9c0.7-0.6,1.3-1.2,1.9-1.9c2.8-3.4,3.8-7.8,3-11.7l-13.7,2.7"/>
		<path class="st1" d="M26,1387.9c0.3-0.3,0.7-0.6,1-0.9c3.1-3.1,4.5-7.4,4.1-11.3l-13.9,1.3"/>
		<path class="st1" d="M25.9,1421.9c3.4-2.8,5.2-6.9,5.2-10.9h-14"/>
		<path class="st1" d="M26,1455.9c3-2.4,4.8-5.9,5.1-9.5l-13.9-1.4"/>
		<path class="st1" d="M26,1489.9c2.6-2.1,4.3-5,4.9-8.1l-13.7-2.8"/>
		<path class="st1" d="M26,1523.9c2.2-1.8,3.8-4.2,4.6-6.8l-13.4-4.1"/>
		<path class="st1" d="M26,1557.9c1.8-1.5,3.3-3.4,4.1-5.5l-12.9-5.4"/>
		<path class="st1" d="M26,1591.9c1.5-1.2,2.7-2.6,3.5-4.2l-12.3-6.7"/>
		<path class="st1" d="M26,1625.9c1.1-0.9,2.1-1.9,2.8-3.1l-11.6-7.8"/>
		<path class="st1" d="M26,1659.9c0.7-0.6,1.4-1.2,2-2l-10.8-8.9"/>
		<path class="st1" d="M26,1693.9c0.4-0.3,0.7-0.6,1.1-0.9l-9.9-10"/>
		<path class="st1" d="M26,1727.9l-8.8-10.9"/>
	</svg>

	<svg id="pan-knob" viewBox="0 0 34 1734">
		<style type="text/css">
			.st0{fill:none;stroke:#f90;stroke-width:2.5;stroke-linecap:round;}
			.st1{fill:none;stroke:#b7b7b7;stroke-width:2.75;stroke-linecap:round;}
		</style>
		<path class="st0" d="M25.8,1727.9c3.1-2.5,5.2-6.5,5.2-10.9c0-7.7-6.3-14-14-14"/>
		<path class="st0" d="M17,3C9.3,3,3,9.3,3,17c0,4.4,2.1,8.4,5.2,10.9"/>
		<path class="st0" d="M17,37C9.3,37,3,43.3,3,51"/>
		<path class="st0" d="M17,71C9.3,71,3,77.3,3,85"/>
		<path class="st0" d="M17,105c-7.7,0-14,6.3-14,14"/>
		<path class="st0" d="M17,139c-7.7,0-14,6.3-14,14"/>
		<path class="st0" d="M17,173c-7.7,0-14,6.3-14,14"/>
		<path class="st0" d="M17,207c-7.7,0-14,6.3-14,14"/>
		<path class="st0" d="M17,241c-7.7,0-14,6.3-14,14"/>
		<path class="st0" d="M17,275c-7.7,0-14,6.3-14,14c0,0.5,0,1,0.1,1.4"/>
		<path class="st0" d="M17,309c-7.7,0-14,6.3-14,14"/>
		<path class="st0" d="M17,343c-7.2,0-13.2,5.5-13.9,12.6"/>
		<path class="st0" d="M17,377c-6.8,0-12.5,4.9-13.7,11.3"/>
		<path class="st0" d="M17,411c-6.3,0-11.7,4.2-13.4,10"/>
		<path class="st0" d="M17,445c-5.8,0-10.8,3.6-12.9,8.7"/>
		<path class="st0" d="M25.8,469.9"/>
		<path class="st0" d="M17,479c-5.3,0-10,3-12.4,7.4"/>
		<path class="st0" d="M17,513c-4.8,0-9.1,2.5-11.6,6.3"/>
		<path class="st0" d="M17,3C9.3,3,3,9.3,3,17c0,4.4,2.1,8.4,5.2,10.9"/>
		<path class="st0" d="M17,37C9.3,37,3,43.3,3,51c0,3.8,1.6,7.4,4.1,9.9"/>
		<path class="st0" d="M17,71C9.3,71,3,77.3,3,85c0,3.4,1.2,6.5,3.2,8.9"/>
		<path class="st0" d="M17,105c-7.7,0-14,6.3-14,14c0,2.9,0.9,5.6,2.4,7.8"/>
		<path class="st0" d="M17,139c-7.7,0-14,6.3-14,14c0,2.4,0.6,4.7,1.7,6.7"/>
		<path class="st0" d="M17,173c-7.7,0-14,6.3-14,14c0,1.9,0.4,3.8,1.1,5.4"/>
		<path class="st0" d="M17,207c-7.7,0-14,6.3-14,14c0,1.4,0.2,2.8,0.6,4.1"/>
		<path class="st0" d="M17,241c-7.7,0-14,6.3-14,14c0,1,0.1,1.9,0.3,2.8"/>
		<path class="st0" d="M17,547c-4.4,0-8.3,2-10.8,5.2"/>
		<path class="st0" d="M17,581c-3.8,0-7.3,1.6-9.9,4.1"/>
		<path class="st0" d="M17,615c-3.4,0-6.5,1.2-8.9,3.2"/>
		<path class="st0" d="M17,649c-2.9,0-5.6,0.9-7.8,2.4"/>
		<path class="st0" d="M17,683c-2.4,0-4.6,0.6-6.6,1.7"/>
		<path class="st0" d="M17,717c-1.9,0-3.7,0.4-5.4,1.1"/>
		<path class="st0" d="M17,751c-1.4,0-2.8,0.2-4.1,0.6"/>
		<path class="st0" d="M17,785c-0.9,0-1.9,0.1-2.7,0.3"/>
		<path class="st0" d="M17,819"/>
		<path class="st0" d="M17,887"/>
		<path class="st0" d="M17,921"/>
		<path class="st0" d="M17,955"/>
		<path class="st0" d="M17,989"/>
		<path class="st0" d="M17,1023"/>
		<path class="st0" d="M17,1057"/>
		<path class="st0" d="M25.9,1094.2c-2.4-2-5.5-3.2-8.9-3.2"/>
		<path class="st0" d="M26.9,1129.2c-2.5-2.5-6-4.1-9.9-4.1"/>
		<path class="st0" d="M27.8,1164.2c-2.6-3.1-6.5-5.2-10.8-5.2"/>
		<path class="st0" d="M28.7,1199.3c-2.5-3.8-6.8-6.3-11.6-6.3"/>
		<path class="st0" d="M29.4,1234.4c-2.4-4.4-7-7.4-12.4-7.4"/>
		<path class="st0" d="M29.9,1269.7c-2.1-5.1-7.1-8.7-12.9-8.7"/>
		<path class="st0" d="M30.4,1305c-1.7-5.8-7.1-10-13.4-10"/>
		<path class="st0" d="M30.7,1340.4c-1.3-6.4-7-11.3-13.7-11.3"/>
		<path class="st0" d="M17,819c-0.5,0-0.9,0-1.4,0.1"/>
		<path class="st0" d="M18.4,887.1c-0.5,0-0.9-0.1-1.4-0.1"/>
		<path class="st0" d="M19.7,921.3c-0.9-0.2-1.8-0.3-2.7-0.3"/>
		<path class="st0" d="M21.1,955.6c-1.3-0.4-2.7-0.6-4.1-0.6"/>
		<path class="st0" d="M22.4,990.1c-1.7-0.7-3.5-1.1-5.4-1.1"/>
		<path class="st0" d="M23.6,1024.7c-2-1.1-4.2-1.7-6.6-1.7"/>
		<path class="st0" d="M24.8,1059.4c-2.2-1.5-4.9-2.4-7.8-2.4"/>
		<path class="st0" d="M30.9,1375.7c-0.7-7.1-6.7-12.7-13.9-12.7"/>
		<path class="st0" d="M31,1411c0-7.7-6.3-14-14-14"/>
		<path class="st0" d="M30.9,1446.4c0-0.5,0.1-1,0.1-1.4c0-7.7-6.3-14-14-14"/>
		<path class="st0" d="M30.7,1481.8c0.2-0.9,0.3-1.8,0.3-2.8c0-7.7-6.3-14-14-14"/>
		<path class="st0" d="M30.4,1517.1c0.4-1.3,0.6-2.7,0.6-4.1c0-7.7-6.3-14-14-14"/>
		<path class="st0" d="M29.9,1552.5c0.7-1.7,1.1-3.5,1.1-5.4c0-7.7-6.3-14-14-14"/>
		<path class="st0" d="M29.3,1587.7c1.1-2,1.7-4.3,1.7-6.7c0-7.7-6.3-14-14-14"/>
		<path class="st0" d="M28.6,1622.9c1.5-2.2,2.4-5,2.4-7.8c0-7.7-6.3-14-14-14"/>
		<path class="st0" d="M27.8,1658c2-2.4,3.2-5.6,3.2-8.9c0-7.7-6.3-14-14-14"/>
		<path class="st0" d="M26.8,1693c2.5-2.5,4.2-6.1,4.2-10c0-7.7-6.3-14-14-14"/>
		<path class="st1" d="M17,1703c-7.7,0-14,6.3-14,14c0,4.4,2.1,8.4,5.2,10.9"/>
		<path class="st1" d="M25.8,1727.9"/>
		<path class="st1" d="M8.2,27.9"/>
		<path class="st1" d="M25.8,27.9C28.9,25.4,31,21.4,31,17c0-7.7-6.3-14-14-14"/>
		<path class="st1" d="M8.2,61.9"/>
		<path class="st1" d="M25.8,61.9C28.9,59.4,31,55.4,31,51c0-7.7-6.3-14-14-14"/>
		<path class="st1" d="M8.2,95.9"/>
		<path class="st1" d="M25.8,95.9C28.9,93.4,31,89.4,31,85c0-7.7-6.3-14-14-14"/>
		<path class="st1" d="M8.2,129.9"/>
		<path class="st1" d="M25.8,129.9c3.1-2.5,5.2-6.5,5.2-10.9c0-7.7-6.3-14-14-14"/>
		<path class="st1" d="M8.2,163.9"/>
		<path class="st1" d="M25.8,163.9c3.1-2.5,5.2-6.5,5.2-10.9c0-7.7-6.3-14-14-14"/>
		<path class="st1" d="M8.2,197.9"/>
		<path class="st1" d="M25.8,197.9c3.1-2.5,5.2-6.5,5.2-10.9c0-7.7-6.3-14-14-14"/>
		<path class="st1" d="M8.2,231.9"/>
		<path class="st1" d="M25.8,231.9c3.1-2.5,5.2-6.5,5.2-10.9c0-7.7-6.3-14-14-14"/>
		<path class="st1" d="M8.2,265.9"/>
		<path class="st1" d="M25.8,265.9c3.1-2.5,5.2-6.5,5.2-10.9c0-7.7-6.3-14-14-14"/>
		<path class="st1" d="M25.8,299.9c3.1-2.5,5.2-6.5,5.2-10.9c0-7.7-6.3-14-14-14"/>
		<path class="st1" d="M25.8,333.9c3.1-2.5,5.2-6.5,5.2-10.9c0-7.7-6.3-14-14-14"/>
		<path class="st1" d="M25.8,367.9c3.1-2.5,5.2-6.5,5.2-10.9c0-7.7-6.3-14-14-14"/>
		<path class="st1" d="M25.8,401.9c3.1-2.5,5.2-6.5,5.2-10.9c0-7.7-6.3-14-14-14"/>
		<path class="st1" d="M25.8,435.9c3.1-2.5,5.2-6.5,5.2-10.9c0-7.7-6.3-14-14-14"/>
		<path class="st1" d="M25.8,469.9c3.1-2.5,5.2-6.5,5.2-10.9c0-7.7-6.3-14-14-14"/>
		<path class="st1" d="M25.8,503.9c3.1-2.5,5.2-6.5,5.2-10.9c0-7.7-6.3-14-14-14"/>
		<path class="st1" d="M25.8,537.9c3.1-2.5,5.2-6.5,5.2-10.9c0-7.7-6.3-14-14-14"/>
		<path class="st1" d="M8.2,27.9"/>
		<path class="st1" d="M25.8,571.9c3.1-2.5,5.2-6.5,5.2-10.9c0-7.7-6.3-14-14-14"/>
		<path class="st1" d="M25.8,605.9c3.1-2.5,5.2-6.5,5.2-10.9c0-7.7-6.3-14-14-14"/>
		<path class="st1" d="M25.8,639.9c3.1-2.5,5.2-6.5,5.2-10.9c0-7.7-6.3-14-14-14"/>
		<path class="st1" d="M25.8,673.9c3.1-2.5,5.2-6.5,5.2-10.9c0-7.7-6.3-14-14-14"/>
		<path class="st1" d="M25.8,707.9c3.1-2.5,5.2-6.5,5.2-10.9c0-7.7-6.3-14-14-14"/>
		<path class="st1" d="M25.8,741.9c3.1-2.5,5.2-6.5,5.2-10.9c0-7.7-6.3-14-14-14"/>
		<path class="st1" d="M25.8,775.9c3.1-2.5,5.2-6.5,5.2-10.9c0-7.7-6.3-14-14-14"/>
		<path class="st1" d="M25.8,809.9c3.1-2.5,5.2-6.5,5.2-10.9c0-7.7-6.3-14-14-14"/>
		<path class="st1" d="M3,833c0,4.4,2.1,8.4,5.2,10.9"/>
		<path class="st1" d="M25.8,843.9c3.1-2.5,5.2-6.5,5.2-10.9c0-7.7-6.3-14-14-14"/>
		<path class="st1" d="M25.8,877.9c3.1-2.5,5.2-6.5,5.2-10.9c0-7.7-6.3-14-14-14s-14,6.3-14,14c0,4.4,2.1,8.4,5.2,10.9"/>
		<path class="st1" d="M17,887c-7.7,0-14,6.3-14,14c0,4.4,2.1,8.4,5.2,10.9"/>
		<path class="st1" d="M25.8,911.9c3.1-2.5,5.2-6.5,5.2-10.9"/>
		<path class="st1" d="M17,921c-7.7,0-14,6.3-14,14c0,4.4,2.1,8.4,5.2,10.9"/>
		<path class="st1" d="M25.8,945.9c3.1-2.5,5.2-6.5,5.2-10.9"/>
		<path class="st1" d="M17,955c-7.7,0-14,6.3-14,14c0,4.4,2.1,8.4,5.2,10.9"/>
		<path class="st1" d="M25.8,979.9c3.1-2.5,5.2-6.5,5.2-10.9"/>
		<path class="st1" d="M17,989c-7.7,0-14,6.3-14,14c0,4.4,2.1,8.4,5.2,10.9"/>
		<path class="st1" d="M25.8,1013.9c3.1-2.5,5.2-6.5,5.2-10.9"/>
		<path class="st1" d="M17,1023c-7.7,0-14,6.3-14,14c0,4.4,2.1,8.4,5.2,10.9"/>
		<path class="st1" d="M25.8,1047.9c3.1-2.5,5.2-6.5,5.2-10.9"/>
		<path class="st1" d="M17,1057c-7.7,0-14,6.3-14,14c0,4.4,2.1,8.4,5.2,10.9"/>
		<path class="st1" d="M25.8,1081.9c3.1-2.5,5.2-6.5,5.2-10.9"/>
		<path class="st1" d="M17,1091c-7.7,0-14,6.3-14,14c0,4.4,2.1,8.4,5.2,10.9"/>
		<path class="st1" d="M17,1125c-7.7,0-14,6.3-14,14c0,4.4,2.1,8.4,5.2,10.9"/>
		<path class="st1" d="M17,1159c-7.7,0-14,6.3-14,14c0,4.4,2.1,8.4,5.2,10.9"/>
		<path class="st1" d="M17,1193c-7.7,0-14,6.3-14,14c0,4.4,2.1,8.4,5.2,10.9"/>
		<path class="st1" d="M17,1227c-7.7,0-14,6.3-14,14c0,4.4,2.1,8.4,5.2,10.9"/>
		<path class="st1" d="M17,1261c-7.7,0-14,6.3-14,14c0,4.4,2.1,8.4,5.2,10.9"/>
		<path class="st1" d="M17,1295c-7.7,0-14,6.3-14,14c0,4.4,2.1,8.4,5.2,10.9"/>
		<path class="st1" d="M17,1329c-7.7,0-14,6.3-14,14c0,4.4,2.1,8.4,5.2,10.9"/>
		<path class="st1" d="M17,1363c-7.7,0-14,6.3-14,14c0,4.4,2.1,8.4,5.2,10.9"/>
		<path class="st1" d="M17,1397c-7.7,0-14,6.3-14,14c0,4.4,2.1,8.4,5.2,10.9"/>
		<path class="st1" d="M17,1431c-7.7,0-14,6.3-14,14c0,4.4,2.1,8.4,5.2,10.9"/>
		<path class="st1" d="M17,1465c-7.7,0-14,6.3-14,14c0,4.4,2.1,8.4,5.2,10.9"/>
		<path class="st1" d="M17,1499c-7.7,0-14,6.3-14,14c0,4.4,2.1,8.4,5.2,10.9"/>
		<path class="st1" d="M17,1533c-7.7,0-14,6.3-14,14c0,4.4,2.1,8.4,5.2,10.9"/>
		<path class="st1" d="M17,1567c-7.7,0-14,6.3-14,14c0,4.4,2.1,8.4,5.2,10.9"/>
		<path class="st1" d="M17,1601c-7.7,0-14,6.3-14,14c0,4.4,2.1,8.4,5.2,10.9"/>
		<path class="st1" d="M17,1635c-7.7,0-14,6.3-14,14c0,4.4,2.1,8.4,5.2,10.9"/>
		<path class="st1" d="M17,1669c-7.7,0-14,6.3-14,14c0,4.4,2.1,8.4,5.2,10.9"/>
		<line class="st1" x1="17" y1="1717" x2="25.8" y2="1727.9"/>
		<line class="st1" x1="17" y1="17" x2="8.2" y2="27.9"/>
		<path class="st1" d="M17,51l-9.9,9.9c0.4,0.4,0.7,0.7,1.1,1"/>
		<path class="st1" d="M17,85L6.2,93.9c0.6,0.7,1.3,1.4,2,2"/>
		<path class="st1" d="M17,119l-11.6,7.8c0.8,1.2,1.7,2.2,2.8,3.1"/>
		<path class="st1" d="M17,153l-12.3,6.7c0.9,1.7,2.1,3.1,3.5,4.2"/>
		<path class="st1" d="M17,187l-12.9,5.4c0.9,2.2,2.3,4.1,4.1,5.5"/>
		<path class="st1" d="M17,221l-13.4,4.1c0.8,2.7,2.5,5.1,4.6,6.8"/>
		<path class="st1" d="M17,255l-13.7,2.8c0.7,3.3,2.5,6.1,4.9,8.1"/>
		<path class="st1" d="M17,289l-13.9,1.4c0.4,3.8,2.4,7.2,5.1,9.5"/>
		<path class="st1" d="M17,323H3c0,4.4,2.1,8.4,5.2,10.9"/>
		<path class="st1" d="M17,357l-13.9-1.4C3,356,3,356.5,3,357c0,4.4,2.1,8.4,5.2,10.9"/>
		<path class="st1" d="M17,391l-13.7-2.8C3.1,389.1,3,390.1,3,391c0,4.4,2.1,8.4,5.2,10.9"/>
		<path class="st1" d="M17,425l-13.4-4c-0.4,1.3-0.6,2.6-0.6,4c0,4.4,2.1,8.4,5.2,10.9"/>
		<path class="st1" d="M17,459l-12.9-5.3C3.4,455.4,3,457.2,3,459c0,4.4,2.1,8.4,5.2,10.9"/>
		<path class="st1" d="M17,493l-12.4-6.6c-1,2-1.6,4.2-1.6,6.6c0,4.4,2.1,8.4,5.2,10.9"/>
		<path class="st1" d="M17,527l-11.6-7.7C3.9,521.5,3,524.2,3,527c0,4.4,2.1,8.4,5.2,10.9"/>
		<path class="st1" d="M17,561l-10.8-8.8c-2,2.4-3.2,5.5-3.2,8.8c0,4.4,2.1,8.4,5.2,10.9"/>
		<path class="st1" d="M17,595l-9.9-9.9c-2.5,2.5-4.1,6-4.1,9.9c0,4.4,2.1,8.4,5.2,10.9"/>
		<path class="st1" d="M17,629l-8.9-10.8C5,620.8,3,624.7,3,629c0,4.4,2.1,8.4,5.2,10.9"/>
		<path class="st1" d="M17,663l-7.8-11.6C5.5,653.9,3,658.2,3,663c0,4.4,2.1,8.4,5.2,10.9"/>
		<path class="st1" d="M17,697l-6.6-12.3C6,687,3,691.7,3,697c0,4.4,2.1,8.4,5.2,10.9"/>
		<path class="st1" d="M17,731l-5.4-12.9C6.6,720.2,3,725.2,3,731c0,4.4,2.1,8.4,5.2,10.9"/>
		<path class="st1" d="M17,765l-4.1-13.4C7.2,753.4,3,758.7,3,765c0,4.4,2.1,8.4,5.2,10.9"/>
		<path class="st1" d="M17,799l-2.7-13.7C7.9,786.6,3,792.3,3,799c0,4.4,2.1,8.4,5.2,10.9"/>
		<path class="st1" d="M17,833l-1.4-13.9C8.6,819.8,3,825.8,3,833c0,4.4,2.1,8.4,5.2,10.9"/>
		<line class="st1" x1="17" y1="867" x2="17" y2="853"/>
		<path class="st1" d="M17,901l1.4-13.9c7.1,0.7,12.6,6.7,12.6,13.9c0,4.4-2.1,8.4-5.2,10.9"/>
		<path class="st1" d="M17,935l2.7-13.7c6.4,1.3,11.3,7,11.3,13.7c0,4.4-2.1,8.4-5.2,10.9"/>
		<path class="st1" d="M17,969l4.1-13.4c5.7,1.8,9.9,7.1,9.9,13.4c0,4.4-2.1,8.4-5.2,10.9"/>
		<path class="st1" d="M17,1003l5.4-12.9c5.1,2.1,8.6,7.1,8.6,12.9c0,4.4-2.1,8.4-5.2,10.9"/>
		<path class="st1" d="M17,1037l6.6-12.3c4.4,2.4,7.4,7,7.4,12.3c0,4.4-2.1,8.4-5.2,10.9"/>
		<path class="st1" d="M17,1071l7.8-11.6c3.7,2.5,6.2,6.8,6.2,11.6c0,4.4-2.1,8.4-5.2,10.9"/>
		<path class="st1" d="M17,1105l8.9-10.8c3.1,2.6,5.1,6.5,5.1,10.8c0,4.4-2.1,8.4-5.2,10.9"/>
		<path class="st1" d="M17,1139l9.9-9.9c2.5,2.5,4.1,6,4.1,9.9c0,4.4-2.1,8.4-5.2,10.9"/>
		<path class="st1" d="M17,1173l10.8-8.8c2,2.4,3.2,5.5,3.2,8.8c0,4.4-2.1,8.4-5.2,10.9"/>
		<path class="st1" d="M17,1207l11.6-7.7c1.5,2.2,2.4,4.9,2.4,7.7c0,4.4-2.1,8.4-5.2,10.9"/>
		<path class="st1" d="M17,1241l12.4-6.6c1,2,1.6,4.2,1.6,6.6c0,4.4-2.1,8.4-5.2,10.9"/>
		<path class="st1" d="M17,1275l12.9-5.3c0.7,1.6,1.1,3.4,1.1,5.3c0,4.4-2.1,8.4-5.2,10.9"/>
		<path class="st1" d="M17,1309l13.4-4c0.4,1.3,0.6,2.6,0.6,4c0,4.4-2.1,8.4-5.2,10.9"/>
		<path class="st1" d="M17,1343l13.7-2.7l0,0c0.2,0.9,0.3,1.8,0.3,2.7c0,4.4-2.1,8.4-5.2,10.9"/>
		<path class="st1" d="M17,1377l13.9-1.3h0c0,0.4,0.1,0.9,0.1,1.3c0,4.4-2.1,8.4-5.2,10.9"/>
		<path class="st1" d="M17,1411h14c0,4.4-2.1,8.4-5.2,10.9"/>
		<path class="st1" d="M17,1445l13.9,1.4c-0.4,3.8-2.4,7.2-5.1,9.5"/>
		<path class="st1" d="M17,1479l13.7,2.8c-0.7,3.3-2.5,6.1-4.9,8.1"/>
		<path class="st1" d="M17,1513l13.4,4.1c-0.8,2.7-2.5,5.1-4.6,6.8"/>
		<path class="st1" d="M17,1547l12.9,5.4c-0.9,2.2-2.3,4.1-4.1,5.5"/>
		<path class="st1" d="M17,1581l12.3,6.7c-0.9,1.7-2.1,3.1-3.5,4.2"/>
		<path class="st1" d="M17,1615l11.6,7.8c-0.8,1.2-1.7,2.2-2.8,3.1"/>
		<path class="st1" d="M17,1649l10.8,8.9l0,0c-0.6,0.7-1.3,1.4-2,2"/>
		<path class="st1" d="M17,1683l9.8,10l0,0c-0.3,0.3-0.7,0.6-1,0.9"/>
	</svg>

</svg>

